/* XPM */
static char *result[] = {
/* columns rows colors chars-per-pixel */
"42 42 197 2 ",
"   c #3A312E",
".  c #3F3632",
"X  c #413733",
"o  c #423834",
"O  c #453C39",
"+  c #493E39",
"@  c #4D423C",
"#  c #51443E",
"$  c #093A6E",
"%  c #133E6C",
"&  c #1A3E66",
"*  c #26415D",
"=  c #30465E",
"-  c #1A426C",
";  c #0D5378",
":  c #1A5376",
">  c #144B71",
",  c #2A4968",
"<  c #474848",
"1  c #534741",
"2  c #554A46",
"3  c #56504E",
"4  c #5D5755",
"5  c #60524A",
"6  c #6E5E54",
"7  c #66605E",
"8  c #6E665F",
"9  c #746157",
"0  c #79675A",
"q  c #7C4675",
"w  c #53777F",
"e  c #5A6878",
"r  c #776C67",
"t  c #767270",
"y  c #777879",
"u  c #696462",
"i  c #B31F5A",
"p  c #923265",
"a  c #CF1356",
"s  c #D81156",
"d  c #93695A",
"f  c #826F61",
"g  c #9E6D60",
"h  c #897769",
"j  c #857E7A",
"k  c #917F70",
"l  c #997969",
"z  c #A77E6D",
"x  c #C94774",
"c  c #9A8374",
"v  c #9C8879",
"b  c #948377",
"n  c #A3806E",
"m  c #A38C7A",
"M  c #AA8674",
"N  c #AB917D",
"B  c #A6917F",
"V  c #B5947E",
"C  c #A5BD7F",
"Z  c #107E8F",
"A  c #0C7F9B",
"S  c #336887",
"D  c #5E6789",
"F  c #4C758D",
"G  c #03819E",
"H  c #1C8B9B",
"J  c #3B8996",
"K  c #129BB2",
"L  c #3697AD",
"P  c #1AA8BD",
"I  c #38ABBC",
"U  c #56919A",
"Y  c #7D848E",
"T  c #6A8B9B",
"R  c #669299",
"E  c #74959D",
"W  c #4784AF",
"Q  c #5292AC",
"!  c #6D9EA6",
"~  c #6E91B1",
"^  c #6C8DA7",
"/  c #40AEBF",
"(  c #66A8B9",
")  c #71A5B9",
"_  c #01A8C0",
"`  c #1DB1C7",
"'  c #3DBBCF",
"]  c #29AFC5",
"[  c #5DACCD",
"{  c #45BBCE",
"}  c #59B1C1",
"|  c #52AED2",
" . c #48B0D2",
".. c #6FB3CE",
"X. c #59C4D5",
"o. c #6DC1CF",
"O. c #888786",
"+. c #978A81",
"@. c #9A8E86",
"#. c #898D90",
"$. c #9D9C9C",
"%. c #949696",
"&. c #B38F83",
"*. c #A59283",
"=. c #AD9682",
"-. c #A99A8C",
";. c #A8988C",
":. c #B79681",
">. c #B49E8B",
",. c #B89A86",
"<. c #A29B96",
"1. c #89A99A",
"2. c #BBA18C",
"3. c #B6A18E",
"4. c #ABA39C",
"5. c #A4A19E",
"6. c #BBA392",
"7. c #BAA596",
"8. c #899AA1",
"9. c #88A3A8",
"0. c #9CABB5",
"q. c #9BB1B9",
"w. c #96A9B3",
"e. c #A2A3A3",
"r. c #AAA8A6",
"t. c #ADACAC",
"y. c #A4A6A7",
"u. c #B4ADA6",
"i. c #BAAFA7",
"p. c #B5B0AD",
"a. c #A9B8BA",
"s. c #B3B2B2",
"d. c #BAB8B7",
"f. c #BCBBBA",
"g. c #B8B6B6",
"h. c #C19A85",
"j. c #C5A38A",
"k. c #C9A78E",
"l. c #C4A993",
"z. c #CAAC94",
"x. c #CAAF98",
"c. c #C7AF99",
"v. c #D2AC94",
"b. c #D2B196",
"n. c #D3B59B",
"m. c #D8B79D",
"M. c #D4B89F",
"N. c #C7B7A4",
"B. c #D6BAA2",
"V. c #DCBDA3",
"C. c #D1BCA8",
"Z. c #C1BEBD",
"A. c #BCC6B3",
"S. c #DDC0A6",
"D. c #DEC2A8",
"F. c #C1C0BF",
"G. c #E1C2A7",
"H. c #E3C5AA",
"J. c #E7C9AD",
"K. c #E9CBAF",
"L. c #98B9CA",
"P. c #87B1D1",
"I. c #A6BFCD",
"U. c #BABEC3",
"Y. c #E5BECB",
"T. c #88C7DF",
"R. c #BDC3C4",
"E. c #B8C3C7",
"W. c #BFD0DC",
"Q. c #9CCFE5",
"!. c #94CDE3",
"~. c #88C2E2",
"^. c #A2CCE4",
"/. c #AED1E7",
"(. c #B4D5EA",
"). c #BDD7EA",
"_. c #B4D6E7",
"`. c #C5C5C5",
"'. c #CCCBCB",
"]. c #C5C7C9",
"[. c #C4D0D4",
"{. c #D4D5D5",
"}. c #DDDDDD",
"|. c #C6CDD4",
" X c #CADFE3",
".X c #D6DEE3",
"XX c #CCE0E7",
"oX c #D5E5ED",
"OX c #DEEEF6",
"+X c #E5E4E4",
"@X c #EDEDED",
"#X c #E8EAEB",
"$X c #E7F2F6",
"%X c #F3F3F3",
"&X c #FDFDFD",
"*X c #F5F9FB",
"=X c #E4EAF0",
/* pixels */
"%X%X%X%X%X%X%X%X%X%X%X%X%X%X%X%X%X%X+X@.u 2 4 O.f.%X%X%X%X%X%X%X%X%X%X%X%X%X%X%X%X%X",
"%X%X%X%X%X%X%X%X%X%X%X%X%X%X%X@X'.t.7 . o o . . O t `.%X%X%X%X%X%X%X%X%X%X%X%X%X%X%X",
"%X%X%X%X%X%X%X%X%X%X%X%X%X%X%Xy . o o o o o o o o o o O.@X%X%X%X%X%X%X%X%X%X%X%X%X%X",
"%X%X%X%X%X%X%X%X%X%X%X%X%X%Xt.. o o o o o o o o o o o o t @X%X%X%X%X%X%X%X%X%X%X%X%X",
"%X%X%X%X%X%X%X%X%X%X%X%X%X#X1 o o o o o o o o o o o o o o 5.%X%X%X%X%X%X%X%X%X%X%X%X",
"%X%X%X%X%X%X%X%X%X%X%X%X%Xd.. o o o o o . o o o o o o o o 3 %X%X%X%X%X%X%X%X%X%X%X%X",
"%X%X%X%X%X%X%X%X%X%X%X%X%X7 o o o o o o o o o o @ @ o o o   }.%X%X%X%X%X%X%X%X%X%X%X",
"%X%X%X%X%X%X%X%X%X%X%X%X{.o o o o O @ + 6 9 9 B 3.v o o o . '.%X%X%X%X%X%X%X%X%X%X%X",
"%X%X%X%X%X%X%X%X%X%X%X%Xd.o o o O 0 x.=.B.K.K.J.K.K.m 2 o o '.%X@X%X%X%X%X%X%X%X%X%X",
"%X%X%X%X%X%X%X%X%X%X%X%X'.o o o 1 2.B.V.H.K.H.:.h c c.c @ f `.%X%X%X%X%X%X%X%X%X%X%X",
"%X%X%X%X%X%X%X%X%X%X%X%X+X1 o o 6 k # 2 c K.v.f 9 =.H.S.# h 4.%X&X%X%X%X%X%X%X%X%X%X",
"%X%X%X%X%X%X%X%X%X%X%X%XZ.b O 5 D.n.r +.z n.:.=.r 7.D.K.,.z.@.%X%X%X%X%X%X%X%X%X%X%X",
"%X%X%X%X%X%X%X%X%X%X%X%Xp.>.@ h K.C.7.c l x.b.n l.K.K.K.M.f B %X%X%X%X%X%X%X%X%X%X%X",
"%X%X%X%X%X%X%X%X%X%X%X%Xu.x.0 M K.K.J.z.b.S.K.H.J.K.K.K.M.c B @X%X%X%X%X%X%X%X%X%X%X",
"%X%X%X%X%X%X*X%X%X%X%X%Xp.*.j.,.H.K.K.D.m.H.K.S.l.J.K.K.j.n.=.%X%X%X%X%X%X%X%X%X%X%X",
"%X%X%X%X%X%X%X%X%X%X%X%XZ.k.2.N h.m.K.=.z.H.K.l.2.m.K.D.:.H.<.%X%X%X%X%X%X%X%X%X%X%X",
"%X%X%X%X%X%X%X%X%X%X%X%X.X>.H.V j.m.H.m.j.N *.k.H.G.K.v.c @.{.%X%X%X%X%X%X%X%X%X%X%X",
"%X%X%X%X%X%X%X%X%X%X%X%X%Xp.7.v N m.H.V h.:.6.&.z V.K.k.@.%X%X%X%X%X%X%X%X%X%X%X%X%X",
"%X%X%X%X%X%X%X%X%X%X%X%X%X@X'.}.k j.G.J.h.z g g v.K.K.V < j ].%X%X%X%X%X%X%X%X%X%X%X",
"%X%X%X%X%X%X%X%X%X%X%X%X%X%X%X%X{.n k.H.J.,.z :.H.K.G.e. .'.e.t.+X%X%X%X%X%X%X%X%X%X",
"%X%X%X%X%X%X%X%X%X%X%X%X%X%X%X@Xt.t v x.K.J.S.G.J.J.-.OX .*X*Xr.@.f.%X%X%X%X%X%X%X%X",
"%X%X%X%X%X%X%X%X%X%X%X%X%X%X%Xs.Y [.Q >.M.K.H.H.J.>.L $X .$X4.H.K.2.{.%X%X%X%X%X%X%X",
"%X%X%X%X%X%X%X%X%X%X%X%X%X%X%Xr.p.*X..].3.m.m.V.c.q.( XX[ y.=.K.K.*.#X%X%X%X%X%X%X%X",
"%X%X%X%X%X%X%X%X%X%X%X%X%X%Xp.@X&X&X!.OX..e.$.E q. X3.A.8.t H.J.-.}.%X%X%X%X%X%X%X%X",
"%X%X%X%X%X%X%X%X%X%X%X%X%X%X#.5.@X%X/.OX~.^.W W F OX1.a.#.7.D.3.'.%X%X%X%X%X%X%X%X%X",
"%X%X%X%X%X%X&X%X%X%X%X%X%X@X+.6.u O.y .X^.(.^ Q S [.L./.$.c.>.`.%X%X%X%X%X%X%X%X%X%X",
"%X%X%X%X%X%X%X%X%X%X%X%X@Xr.B.K.J.+.e.< w.I.^ P.~ @X)./.e.>.-.'.%X%X%X%X%X%X&X%X%X%X",
"%X%X%X%X%X%X@X%X%X%X%X@Xb G.J.K.;..Xd.'.%X&X$XE.L.%XoX).U.<.d.%X%X%X%X%X%X%X%X%X%X%X",
"%X%X%X%X%X%X%X%X%X%X%X{.>.l.G.m.<.%Xs.&X&X&XXXi.S.S.E.W.E.}.%X%X%X%X%X%X%X%X%X%X%X%X",
"%X%X%X%X%X%X%X%X%X%X%X@Xh =.*.r.@X%Xp.&X&X&XE.S.u.0.! @Xe.F w #X%X%X%X%X%X%X%X%X%X%X",
"%X%X%X%X%X%X%X%X%X%X%X%X.X`.`.%X%X%X+Xt.%X&Xd.t.[ | Q.{.Q ; $ e.%X%X%X%X%X%X%X%X%X%X",
"%X%X%X%X%X%X%X%X%X%X%X%X%X%X%X%X%X%X%X+Xy.{.q.( T.&X=X} : , & O.%X%X%X%X%X%X%X%X%X%X",
"%X%X%X%X%X%X%X%X%X%X%X%X%X%X%X%X%X%X%X%X%X$.5...*X X/ G - $ - y.%X%X@X%X%X%X%X%X%X%X",
"%X%X%X%X%X%X%X%X%X%X%X%X%X%X%X%X%X%X%X%X}.R 0.].&XI K : % - * #X%X%X%X%X%X%X%X%X%X%X",
"&X%X%X%X%X%X%X%X%X%X%X%X%X%X%X%X%X%X%X#Xt.%X!.) }.P G > $ , ].%X%X%X%X%X%X%X%X%X%X%X",
"%X%X%X%X%X%X%X%X%X%X%X%X%X%X%X%X%X%X}.%.#X&X&X..E P ; $ - {.%X%X%X%X%X%X%X%X%X%X%X%X",
"%X%X%X%X%X%X%X%X%X%X%X%X%X%X%X%X%XE.J D x Y.&Xt.d.H > - e %X%X%X%X%X%X%X%X%X%X%X%X%X",
"%X%X%X%X%X%X%X%X%X%X%X%X%X%X%X@X1.Q D a s x p.}.$Xa., = f.%X%X%X%X%X%X%X%X%X%X%X%X%X",
"%X%X%X%X%X%X%X%X%X%X%X%X%X%X%XR ' K p i q : `.%X%X%X%X@X%X%X%X%X%X%X%X%X%X%X%X%X%X%X",
"%X%X%X%X%X%X%X%X%X%X%X@X%X%X%XZ P P X.X.' ! %X%X%X%X%X%X%X%X@X%X%X%X%X%X%X%X%X%X%X%X",
"%X%X%X%X%X%X%X%X%X%X%X%X%X%X%XE K { o.L U +X%X%X%X%X%X%X%X%X%X%X%X%X%X%X%X%X%X%X%X%X",
"%X%X%X%X%X%X%X%X%X%X%X%X%X%X%X#X9.! ! `.@X%X%X%X%X%X%X%X%X%X%X%X%X%X%X%X%X%X%X%X%X%X"
};
