/* XPM */
static char *result[] = {
/* columns rows colors chars-per-pixel */
"60 60 108 2 ",
"   c #401000",
".  c #501000",
"X  c #402000",
"o  c #502000",
"O  c #503000",
"+  c #602000",
"@  c #603000",
"#  c #703000",
"$  c #704000",
"%  c #705000",
"&  c #803000",
"*  c #804000",
"=  c #914000",
"-  c #805000",
";  c #915000",
":  c #805010",
">  c #915010",
",  c #A04000",
"<  c #B04000",
"1  c #A05000",
"2  c #B05000",
"3  c #806000",
"4  c #916000",
"5  c #917000",
"6  c #A06000",
"7  c #B06000",
"8  c #A07000",
"9  c #B07000",
"0  c #B06010",
"q  c #B07010",
"w  c #C05000",
"e  c #D05000",
"r  c #C06000",
"t  c #C07000",
"y  c #D07000",
"u  c #E07000",
"i  c #A08000",
"p  c #B08000",
"a  c #B09100",
"s  c #C08000",
"d  c #D08000",
"f  c #C09100",
"g  c #D09100",
"h  c #C08010",
"j  c #D09110",
"k  c #E08000",
"l  c #E09100",
"z  c #F09100",
"x  c #E08010",
"c  c #F09110",
"v  c #C0A000",
"b  c #D0A000",
"n  c #C0B000",
"m  c #D0B000",
"M  c #C0A010",
"N  c #D0A010",
"B  c #E0A000",
"V  c #F0A000",
"C  c #E0B000",
"Z  c #F0B000",
"A  c #E0A010",
"S  c #F0A010",
"D  c #E0B010",
"F  c #F0B010",
"G  c #D09120",
"H  c #E09120",
"J  c #F09120",
"K  c #E0A020",
"L  c #F0A020",
"P  c #F0B020",
"I  c #F0B030",
"U  c #D0C000",
"Y  c #D0C010",
"T  c #E0C000",
"R  c #F0C000",
"E  c #F0D000",
"W  c #E0C010",
"Q  c #F0C010",
"!  c #F0D010",
"~  c #F0E000",
"^  c #F0E010",
"/  c #F0F010",
"(  c #F0C020",
")  c #F0D020",
"_  c #F0C030",
"`  c #F0D030",
"'  c #F0E020",
"]  c #F0F020",
"[  c #F0E030",
"{  c #F0F030",
"}  c #F0B040",
"|  c #F0B050",
" . c #F0B060",
".. c #F0C040",
"X. c #F0D040",
"o. c #F0C050",
"O. c #F0D050",
"+. c #F0E040",
"@. c #F0F040",
"#. c #F0E050",
"$. c #F0F050",
"%. c #F0C060",
"&. c #F0D060",
"*. c #F0C070",
"=. c #F0F060",
"-. c #F0F070",
";. c #F0F080",
":. c None",
/* pixels */
":.:.:.:.:.:.:.:.:.:.:.:.:.:.:.:.:.:.:.:.:.:.:.:.:.:.:.:.:.:.:.:.:.:.:.:.:.:.:.:.:.:.:.:.:.:.:.:.:.:.:.:.:.:.:.:.:.:.:.:.",
":.:.:.:.:.:.:.:.:.:.:.:.:.:.:.:.:.:.:.:.:.:.:.:.:.:.:.:.:.:.:.:.:.:.:.:.:.:.:.:.:.:.:.:.:.:.:.:.:.:.:.:.:.:.:.:.:.:.:.:.",
":.:.:.:.:.:.:.:.:.:.:.:.:.:.:.:.:.:.:.:.:.:.:.:.:.:.:.:.:.:.:.:.:.:.:.:.:.:.:.:.:.:.:.:.:.:.:.:.:.:.:.:.:.:.:.:.:.:.:.:.",
":.:.:.:.:.:.:.:.:.:.:.:.:.:.:.:.:.:.:.:.:.:.:.:.:.:.:.@ @ @ @ @ :.:.:.:.:.:.:.:.:.:.:.:.:.:.:.:.:.:.:.:.:.:.:.:.:.:.:.:.",
":.:.:.:.:.:.:.:.:.:.:.:.:.:.:.:.:.:.:.:.:.:.@ @ @ @ @ @ @ @ @ @ @ @ @ @ @ :.:.:.:.:.:.:.:.:.:.:.:.:.:.:.:.:.:.:.:.:.:.:.",
":.:.:.:.:.:.:.:.:.:.:.:.:.:.:.:.:.:.:.:.@ @ @ @ o o o o o o o o o o + @ @ @ @ :.:.:.:.:.:.:.:.:.:.:.:.:.:.:.:.:.:.:.:.:.",
":.:.:.:.:.:.:.:.:.:.:.:.:.:.:.:.:.@ @ @ @ + o X o o o @ - - $ o o o o o o @ @ @ @ :.:.:.:.:.:.:.:.:.:.:.:.:.:.:.:.:.:.:.",
":.:.:.:.:.:.:.:.:.:.:.:.:.:.:.:.@ @ @ + o o @ ; q h h H I I L G h h 6 @ o   o @ @ @ @ :.:.:.:.:.:.:.:.:.:.:.:.:.:.:.:.:.",
":.:.:.:.:.:.:.:.:.:.:.:.:.:.:.@ @ @ o o o q H I } } } |  .%.o.o.o...I K q - @ o + @ @ @ :.:.:.:.:.:.:.:.:.:.:.:.:.:.:.:.",
":.:.:.:.:.:.:.:.:.:.:.:.:.@ @ o X $ j P } | | | o.o.o.........o.o.o.o.%.%.o.o.A 5 O   + @ @ :.:.:.:.:.:.:.:.:.:.:.:.:.:.",
":.:.:.:.:.:.:.:.:.:.:.:.@ @ + O 8 P I | | o.o.......X.` [ [ ` X.X.X.....o.o.o..._ N % . o @ @ :.:.:.:.:.:.:.:.:.:.:.:.:.",
":.:.:.:.:.:.:.:.:.:.:.@ @ o o j P } | | o.....` [ { { ] ] ' ' ] { { ` _ X.X.X.O.o.X.( 8 o @ @ @ :.:.:.:.:.:.:.:.:.:.:.:.",
":.:.:.:.:.:.:.:.:.:.@ @ o o 4 I } | o.....[ { { ] Q A g y r y g l F ' { [ ` X.O.O.O.X.) M . @ @ @ :.:.:.:.:.:.:.:.:.:.:.",
":.:.:.:.:.:.:.:.:.@ @ +   3 F } | ...._ [ { ! A t 2 1 1 1 1 1 1 1 2 t A Q [ [ X.X.O.O.O.' @ . @ @ @ :.:.:.:.:.:.:.:.:.:.",
":.:.:.:.:.:.:.:.:.@ o   $ A _ o.....` { { k w < 1 7 7 6 6 6 6 6 6 6 1 1 2 d ) ` X.X.X.O.O.m @ . @ @ @ :.:.:.:.:.:.:.:.:.",
":.:.:.:.:.:.:.@ @   $ D ( } ....[ { { k < 9 7 7 ; * # + @ @ + @ @ * ; 6 6 6 1 d ) ` _ X.X.+.] a . o @ :.:.:.:.:.:.:.:.:.",
":.:.:.:.:.:.:.@ @ O f ( ......[ { @.k 2 7 7 ; $ @ + o o o o o o o o @ $ - 6 6 1 y ) ` _ X.#.@.^ 3 . @ :.:.:.:.:.:.:.:.:.",
":.:.:.:.:.:.@ @ + 8 Q _ ......{ $.x 2 t t * + o o + @ @ @ @ @ @ @ + o o + $ 4 6 1 k ` ` _ +.#.{ Y @ o @ :.:.:.:.:.:.:.:.",
":.:.:.:.:.:.@ @ . F ( ......[ =.L w t t 6 o o @ @ @ @ @ @ @ @ @ @ @ @ @ o o @ 6 6 1 l ) _ X.+.@.] i . @ @ :.:.:.:.:.:.:.",
":.:.:.:.:.@ @ o @ ( _ ....` ] O.e t y 6 # o @ @ @ @ :.:.:.:.:.:.:.@ @ @ @ @ o - 7 6 2 V ` X.+.@.{ ! $ @ @ :.:.:.:.:.:.:.",
":.:.:.:.:.@ @ . - ( ......{ { k r d 0 # o @ @ @ :.:.:.:.:.:.:.:.:.:.:.@ @ @ @ @ ; 7 6 d ( _ X.+.@.] a o @ @ :.:.:.:.:.:.",
":.:.:.:.@ @ o @ b _ ....{ { -.y d = o o @ :.:.:.:.:.:.:.:.:.:.:.:.:.:.:.:.:.@ + o $ 6 7 k _ _ X.+.@.] . + @ @ :.:.:.:.:.",
":.:.:.:.@ + o 4 Q ....` ] $.+.d 0 + o @ @ :.:.:.:.:.:.:.:.:.:.:.:.:.:.:.:.:.@ @ o + ; 9 r _ _ X.+.@.{ @ o @ @ :.:.:.:.:.",
":.:.:.@ @ o o f Q ....[ { $.F d * o @ @ @ :.:.:.:.:.:.:.:.:.:.:.:.:.:.:.:.:.:.@ @ o $ 6 r ( _ ..+.@.{ 4 . + @ :.:.:.:.:.",
":.:.:.:.@ o $ B ( .._ { { @.z 7 + o @ @ :.:.:.:.:.:.:.:.:.:.:.:.:.:.:.:.:.:.:.@ @ o @ ; t ( _ _ X.@.@.a o o @ :.:.:.:.:.",
":.:.:.@ @ o * Z ( ..X.{ { { z ; o + @ :.:.:.:.:.:.:.:.:.:.:.:.:.:.:.:.:.:.:.:.@ @ + o * 9 Q _ _ X.@.@.U @ o @ @ :.:.:.:.",
":.:.:.@ @ o - Z ( ..[ { { ] z # o @ @ :.:.:.:.:.:.:.:.:.:.:.:.:.:.:.:.:.:.:.:.:.@ @ o # 7 Q ( _ ` +.@.~ % . @ :.:.:.:.:.",
":.:.:.@ o o 9 R ( _ { { { ] V o o @ :.:.:.:.:.:.:.:.:.:.:.:.:.:.:.:.:.:.:.:.:.:.@ @ o @ 1 ! ( _ ..+.@.^ - . @ @ :.:.:.:.",
":.:.:.@ o o 9 R _ _ { { { { F o o @ :.:.:.:.:.:.:.:.:.:.:.:.:.:.:.:.:.:.:.:.:.:.@ @ o o ; ! ( _ ..+.@./ 4 . + @ :.:.:.:.",
":.:.:.@ o o 9 Q _ X.@.{ { { Q o o @ :.:.:.:.:.:.:.:.:.:.:.:.:.:.:.:.:.:.:.:.:.:.:.@ o o = ! ( _ ..+.@./ p o o @ :.:.:.:.",
":.:.:.@ o o 9 R ( X.{ { { { ! o o @ :.:.:.:.:.:.:.:.:.:.:.:.:.:.:.:.:.:.:.:.:.:.:.@ + o ; ) ( _ ..+.@./ p o o @ :.:.:.:.",
":.:.:.@ o o 6 R ( _ @.{ { { / o o @ :.:.:.:.:.:.:.:.:.:.:.:.:.:.:.:.:.:.:.:.:.:.@ @ o o 9 ( ( _ ..+.{ / 8 o + @ :.:.:.:.",
":.:.:.@ o o ; Z ( _ +.{ { { / . o @ :.:.:.:.:.:.:.:.:.:.:.:.:.:.:.:.:.:.:.:.:.:.@ @ o @ b ( ( _ ..+.{ ^ * o @ @ :.:.:.:.",
":.:.:.@ @ o # g Q _ +.@.{ { ] * . @ @ :.:.:.:.:.:.:.:.:.:.:.:.:.:.:.:.:.:.:.:.:.@ @ . ; ! ( _ ....{ { C # o @ :.:.:.:.:.",
":.:.:.@ @ o + s Q _ X.@.@.{ { i . o @ :.:.:.:.:.:.:.:.:.:.:.:.:.:.:.:.:.:.:.:.@ @ o o f ^ _ _ ..X.{ { d + o @ @ :.:.:.:.",
":.:.:.:.@ o @ 6 Z _ ` +.@.{ { v o o @ @ :.:.:.:.:.:.:.:.:.:.:.:.:.:.:.:.:.:.:.@ @ o # E ' _ ....+.{ { 2 o o @ @ :.:.:.:.",
":.:.:.@ @ + o * d _ _ +.@.@.@.~ $ . @ @ :.:.:.:.:.:.:.:.:.:.:.:.:.:.:.:.:.:.:.@ o . p / ` _ ....{ { { & o + @ :.:.:.:.:.",
":.:.:.:.@ @ o # 7 _ _ ` +.@.@./ a o o @ @ :.:.:.:.:.:.:.:.:.:.:.:.:.:.:.:.:.:.@ . - ~ ] _ ....X.{ { ] + o @ @ :.:.:.:.:.",
":.:.:.:.@ @ o + * ) _ ` +.@.@.{ ~ $   @ @ :.:.:.:.:.:.:.:.:.:.:.:.:.:.:.:.:.@ o + m ] X.I ....[ { @.Q + o @ @ :.:.:.:.:.",
":.:.:.:.:.@ @ o @ l ) _ ` +.+.@.@.] n @ . @ @ @ :.:.:.:.:.:.:.:.:.:.:.@ @ @ + - ^ { ..I ....[ ] =.P 2 o @ @ :.:.:.:.:.:.",
":.:.:.:.:.@ @ o + 1 V ` _ ` +.#.#.@.] n + + @ @ @ @ :.:.:.:.:.:.:.@ @ @ @ o   T ' ..} ....X.] $.O.r = + @ @ :.:.:.:.:.:.",
":.:.:.:.:.:.@ @ o - 7 F ` ` X.#.O.#.@.] m   o @ @ @ @ @ @ @ @ @ @ @ @ o o . 3 ' ..} } ....] @.;.u 1 @ @ @ :.:.:.:.:.:.:.",
":.:.:.:.:.:.@ @ @ # ; y ) ` ` +.O.O.#.@.{ 5 @   . o + @ @ @ @ @ @ o . . @ a ! o.} } } ....] ;.J 1 $ o @ @ :.:.:.:.:.:.:.",
":.:.:.:.:.:.:.@ @ + * 1 l ` ` X.X.O.O.O.#.] W 8 $ o . . . . . .   o - p W ` X.| } ......[ -.I 2 * o o @ :.:.:.:.:.:.:.:.",
":.:.:.:.:.:.:.:.@ o @ ; 1 k ` ` X.X.O.O.O.#.@.{ ) M 8 - - - - - 3 N ( ` X.o.| | | ....[ { I w ; @ o @ :.:.:.:.:.:.:.:.:.",
":.:.:.:.:.:.:.:.:.@ @ o # - ; ) [ ` X.X.X.o.%.%.%.%.%.&.&.&.&.&.%.%. . .| | o...` [ { @.c 6 # o + @ @ :.:.:.:.:.:.:.:.:.",
":.:.:.:.:.:.:.:.:.@ @ @ o # - t ( [ [ ` X.O.o.o.o.%.%.%.%.*.%. . .| | | o.o...[ { { [ k 2 # o o @ @ :.:.:.:.:.:.:.:.:.:.",
":.:.:.:.:.:.:.:.:.:.@ @ @ o # ; 2 l ) { [ X.X.X.o.o.o.o. . . .| | o.o.o.....` { ] A r 1 6 o o @ @ :.:.:.:.:.:.:.:.:.:.:.",
":.:.:.:.:.:.:.:.:.:.:.@ @ @ o : ; ; r S ' [ [ ` X.X.X.o.o.o.o.o.......X.[ { { F y 2 6 > # o @ @ :.:.:.:.:.:.:.:.:.:.:.:.",
":.:.:.:.:.:.:.:.:.:.:.:.@ @ @ + # ; ; 1 y ) ] { { [ [ X.X...X.X.X.[ { { ] ' Q 2 1 ; * + o @ @ :.:.:.:.:.:.:.:.:.:.:.:.:.",
":.:.:.:.:.:.:.:.:.:.:.:.:.@ @ o o @ * ; ; 7 d A ) ' ] { { { { { ] ] ' D d r 2 6 * @ o o @ @ :.:.:.:.:.:.:.:.:.:.:.:.:.:.",
":.:.:.:.:.:.:.:.:.:.:.:.:.:.:.@ @ @ O o + # * ; ; ; ; 1 1 1 1 , ; ; ; ; * # @ o o @ @ @ @ :.:.:.:.:.:.:.:.:.:.:.:.:.:.:.",
":.:.:.:.:.:.:.:.:.:.:.:.:.:.:.:.@ @ @ @ + o + @ # # $ * - - - * * * # @ o o o @ @ @ @ :.:.:.:.:.:.:.:.:.:.:.:.:.:.:.:.:.",
":.:.:.:.:.:.:.:.:.:.:.:.:.:.:.:.:.@ @ @ @ @ o o o o + @ @ @ @ @ o o o o + @ @ @ @ @ :.:.:.:.:.:.:.:.:.:.:.:.:.:.:.:.:.:.",
":.:.:.:.:.:.:.:.:.:.:.:.:.:.:.:.:.:.:.:.@ @ @ @ @ @ @ o o o o o @ @ + @ @ @ @ :.:.:.:.:.:.:.:.:.:.:.:.:.:.:.:.:.:.:.:.:.",
":.:.:.:.:.:.:.:.:.:.:.:.:.:.:.:.:.:.:.:.:.:.@ @ @ @ @ @ @ @ @ @ @ @ @ @ @ :.:.:.:.:.:.:.:.:.:.:.:.:.:.:.:.:.:.:.:.:.:.:.",
":.:.:.:.:.:.:.:.:.:.:.:.:.:.:.:.:.:.:.:.:.:.:.:.:.:.:.@ @ @ @ @ :.:.:.:.:.:.:.:.:.:.:.:.:.:.:.:.:.:.:.:.:.:.:.:.:.:.:.:.",
":.:.:.:.:.:.:.:.:.:.:.:.:.:.:.:.:.:.:.:.:.:.:.:.:.:.:.:.:.:.:.:.:.:.:.:.:.:.:.:.:.:.:.:.:.:.:.:.:.:.:.:.:.:.:.:.:.:.:.:.",
":.:.:.:.:.:.:.:.:.:.:.:.:.:.:.:.:.:.:.:.:.:.:.:.:.:.:.:.:.:.:.:.:.:.:.:.:.:.:.:.:.:.:.:.:.:.:.:.:.:.:.:.:.:.:.:.:.:.:.:.",
":.:.:.:.:.:.:.:.:.:.:.:.:.:.:.:.:.:.:.:.:.:.:.:.:.:.:.:.:.:.:.:.:.:.:.:.:.:.:.:.:.:.:.:.:.:.:.:.:.:.:.:.:.:.:.:.:.:.:.:."
};
