/* XPM */
static char *result[] = {
/* columns rows colors chars-per-pixel */
"60 60 95 2 ",
"   c #401000",
".  c #501000",
"X  c #502000",
"o  c #503000",
"O  c #602000",
"+  c #603000",
"@  c #703000",
"#  c #703010",
"$  c #704000",
"%  c #705000",
"&  c #803000",
"*  c #804000",
"=  c #914000",
"-  c #805000",
";  c #915000",
":  c #915010",
">  c #A05000",
",  c #A05010",
"<  c #806000",
"1  c #916000",
"2  c #917000",
"3  c #A06000",
"4  c #B06000",
"5  c #A07000",
"6  c #B07000",
"7  c #C06000",
"8  c #D06000",
"9  c #C07000",
"0  c #D07000",
"q  c #E06000",
"w  c #E07000",
"e  c #A08000",
"r  c #B08000",
"t  c #B09100",
"y  c #B0A000",
"u  c #C08000",
"i  c #D08000",
"p  c #C09100",
"a  c #D09100",
"s  c #C08010",
"d  c #E08000",
"f  c #F08000",
"g  c #E09100",
"h  c #F09100",
"j  c #F09110",
"k  c #C0A000",
"l  c #D0A000",
"z  c #D0B000",
"x  c #D0B010",
"c  c #E0A000",
"v  c #F0A000",
"b  c #E0B000",
"n  c #F0B000",
"m  c #F0A010",
"M  c #E0B010",
"N  c #F0B010",
"B  c #E0A020",
"V  c #F0B020",
"C  c #F0B030",
"Z  c #D0C000",
"A  c #E0C000",
"S  c #F0C000",
"D  c #F0D000",
"F  c #E0C010",
"G  c #F0C010",
"H  c #E0D010",
"J  c #F0D010",
"K  c #F0E010",
"L  c #F0F010",
"P  c #F0C020",
"I  c #F0D020",
"U  c #F0C030",
"Y  c #F0D030",
"T  c #F0E020",
"R  c #F0F020",
"E  c #F0E030",
"W  c #F0F030",
"Q  c #F0B040",
"!  c #F0B050",
"~  c #F0B060",
"^  c #F0C040",
"/  c #F0D040",
"(  c #F0C050",
")  c #F0D050",
"_  c #F0E040",
"`  c #F0F040",
"'  c #F0E050",
"]  c #F0F050",
"[  c #F0C060",
"{  c #F0D060",
"}  c #F0C070",
"|  c #F0E060",
" . c #F0F060",
".. c #F0F091",
"X. c None",
/* pixels */
"X.X.X.X.X.X.X.X.X.X.X.X.X.X.X.X.X.X.X.X.X.X.X.X.X.X.X.X.X.X.X.X.X.X.X.X.X.X.X.X.X.X.X.X.X.X.X.X.X.X.X.X.X.X.X.X.X.X.X.X.",
"X.X.X.X.X.X.X.X.X.X.X.X.X.X.X.X.X.X.X.X.X.X.X.X.X.X.X.X.X.X.X.X.X.X.X.X.X.X.X.X.X.X.X.X.X.X.X.X.X.X.X.X.X.X.X.X.X.X.X.X.",
"X.X.X.X.X.X.X.X.X.X.X.X.X.X.X.X.X.X.X.X.X.X.X.X.X.X.X.X.X.X.X.X.X.X.X.X.X.X.X.X.X.X.X.X.X.X.X.X.X.X.X.X.X.X.X.X.X.X.X.X.",
"X.X.X.X.X.X.X.X.X.X.X.X.X.X.X.X.X.X.X.X.X.X.X.X.X.X.X.+ + + + + + X.X.X.X.X.X.X.X.X.X.X.X.X.X.X.X.X.X.X.X.X.X.X.X.X.X.X.",
"X.X.X.X.X.X.X.X.X.X.X.X.X.X.X.X.X.X.X.X.X.X.X.X.+ + + + + + + + + + + X.X.X.X.X.X.X.X.X.X.X.X.X.X.X.X.X.X.X.X.X.X.X.X.X.",
"X.X.X.X.X.X.X.X.X.X.X.X.X.X.X.X.X.X.X.X.X.+ + + + + X X . . X X X + + + + X.X.X.X.X.X.X.X.X.X.X.X.X.X.X.X.X.X.X.X.X.X.X.",
"X.X.X.X.X.X.X.X.X.X.X.X.X.X.X.X.X.X.X.X.X.+ + O X X X $ - - - - + X X + + + X.X.X.X.X.X.X.X.X.X.X.X.X.X.X.X.X.X.X.X.X.X.",
"X.X.X.X.X.X.X.X.X.X.X.X.X.X.X.X.X.X.X.X.+ + X . X $ r M P P P P B * X X O + + X.X.X.X.X.X.X.X.X.X.X.X.X.X.X.X.X.X.X.X.X.",
"X.X.X.X.X.X.X.X.X.X.X.X.X.X.X.X.X.X.+ + + X X 1 k J T E _ / / / / V s $ X X + + X.X.X.X.X.X.X.X.X.X.X.X.X.X.X.X.X.X.X.X.",
"X.X.X.X.X.X.X.X.X.X.X.X.X.X.X.X.X.+ + X X k K R E E E E E E Y / ^ [ [ ) C s + X + + X.X.X.X.X.X.X.X.X.X.X.X.X.X.X.X.X.X.",
"X.X.X.X.X.X.X.X.X.X.X.X.X.X.X.X.+ + X X 2 L K G n n n I T Y E Y ^ ! ~ } { ^ M . X + + X.X.X.X.X.X.X.X.X.X.X.X.X.X.X.X.X.",
"X.X.X.X.X.X.X.X.X.X.X.X.X.X.X.+ + X . 1 D n g 0 0 0 0 g v J E Y Y ^ ! ~ } } / <   O + + X.X.X.X.X.X.X.X.X.X.X.X.X.X.X.X.",
"X.X.X.X.X.X.X.X.X.X.X.X.X.X.X.+ O . - A D 0 9 6 6 6 6 9 0 d J E Y ^ ( ! [ } } F +   + + + X.X.X.X.X.X.X.X.X.X.X.X.X.X.X.",
"X.X.X.X.X.X.X.X.X.X.X.X.X.X.X.+ X + z D d 6 6 4 4 4 3 6 9 9 d S I Y ^ Q ! ~ [ E x + X + + X.X.X.X.X.X.X.X.X.X.X.X.X.X.X.",
"X.X.X.X.X.X.X.X.X.X.X.X.X.X.+ X X r S d 9 4 3 3 3 3 3 3 3 6 9 0 G Y ^ ^ Q ! [ ) R t X X + X.X.X.X.X.X.X.X.X.X.X.X.X.X.X.",
"X.X.X.X.X.X.X.X.X.X.X.X.X.+ + X r n 0 6 4 3 3 3 3 1 - O X O + ; 9 T Y U ^ Q ! [ { W y X X + X.X.X.X.X.X.X.X.X.X.X.X.X.X.",
"X.X.X.X.X.X.X.X.X.X.X.X.X.+ + $ l i 9 4 3 3 3 3 1 - + X O X X O 1 n Y U U Q ! [ [ _ K % . + X.X.X.X.X.X.X.X.X.X.X.X.X.X.",
"X.X.X.X.X.X.X.X.X.X.X.X.X.+ + ; a 9 6 3 3 3 3 3 - @ X + + + + X + g I Y U U Q [ [ ) R t X + + X.X.X.X.X.X.X.X.X.X.X.X.X.",
"X.X.X.X.X.X.X.X.X.X.X.X.+ + X u i 9 4 3 3 3 3 3 @ X X + + + + + X 9 S Y U U ^ ! [ ) ` K $ + + X.X.X.X.X.X.X.X.X.X.X.X.X.",
"X.X.X.X.X.X.X.X.X.X.X.X.+ + X a i 4 3 3 3 4 4 : O X + + X.X.+ + X ; g I U U U ! ( ( ' R t O + X.X.X.X.X.X.X.X.X.X.X.X.X.",
"X.X.X.X.X.X.X.X.X.X.X.X.+ + X i 0 4 3 3 3 4 3 @ X + + X.X.X.+ + + @ 9 S Y U U ! ( ) ' W Z X + + X.X.X.X.X.X.X.X.X.X.X.X.",
"X.X.X.X.X.X.X.X.X.X.X.+ + X @ v 9 4 4 4 4 4 @ X + + X.X.X.X.X.X.+ X @ a I U U ! ( ) ) ` L . O + X.X.X.X.X.X.X.X.X.X.X.X.",
"X.X.X.X.X.X.X.X.X.X.X.+ O X - v i 4 4 4 7 3 + X + + X.X.X.X.X.X.+ X + 9 J U U Q ( ) ) ` R + X + + X.X.X.X.X.X.X.X.X.X.X.",
"X.X.X.X.X.X.X.X.X.X.X.+ X X 1 S v 7 4 9 9 ; X O + X.X.X.X.X.X.X.+ X X > S I U ^ ( ( / ` W $ . + + X.X.X.X.X.X.X.X.X.X.X.",
"X.X.X.X.X.X.X.X.X.X.X.+ X X 3 G N d 8 9 9 * X + + X.X.X.X.X.X.X.X.O X * c I P ^ ^ ( _ ` W - . + + X.X.X.X.X.X.X.X.X.X.X.",
"X.X.X.X.X.X.X.X.X.X.+ + X O u N P E v q i @ X + + X.X.X.X.X.X.X.X.+ X @ a J P ^ ^ ^ _ ` W 2 . O + X.X.X.X.X.X.X.X.X.X.X.",
"X.X.X.X.X.X.X.X.X.X.+ + X @ a V Y W ] j 0 O X + + X.X.X.X.X.X.X.X.+ X O u J P ^ ^ / _ ` W t X X + X.X.X.X.X.X.X.X.X.X.X.",
"X.X.X.X.X.X.X.X.X.X.+ + X @ c V Y W ` W h X X + X.X.X.X.X.X.X.X.X.+ X + u J P U ^ / _ ` W t X X + X.X.X.X.X.X.X.X.X.X.X.",
"X.X.X.X.X.X.X.X.X.X.+ + X @ c C Y W W W J X X + X.X.X.X.X.X.X.X.X.+ X + 6 J P U ^ / _ W W p . X + X.X.X.X.X.X.X.X.X.X.X.",
"X.X.X.X.X.X.X.X.X.X.+ + X @ c U / W W W L X X + X.X.X.X.X.X.X.X.X.+ X X 3 S I U U / ` W W k O X + + X.X.X.X.X.X.X.X.X.X.",
"X.X.X.X.X.X.X.X.X.X.+ + X @ c U ^ ` W W L X X + X.X.X.X.X.X.X.X.X.+ X O 3 S P U U / W W W a O X + + X.X.X.X.X.X.X.X.X.X.",
"X.X.X.X.X.X.X.X.X.X.+ + X @ c U ^ _ ` W L X X + X.X.X.X.X.X.X.X.X.+ X + u J P U U Y W W W 9 . X + X.X.X.X.X.X.X.X.X.X.X.",
"X.X.X.X.X.X.X.X.X.X.+ + X @ c U ^ / ` W L X X + X.X.X.X.X.X.X.X.X.+ X + u J P U U E W W W 4 X X + X.X.X.X.X.X.X.X.X.X.X.",
"X.X.X.X.X.X.X.X.X.X.+ + X + l U ^ ( ) ` R X X + + X.X.X.X.X.X.X.X.+ X @ a J P U U E W W W > o X + X.X.X.X.X.X.X.X.X.X.X.",
"X.X.X.X.X.X.X.X.X.X.+ + X X u U Q ( ( ' W $ X + X.X.X.X.X.X.X.X.X.O X * g J P C U W W ` W * X O + X.X.X.X.X.X.X.X.X.X.X.",
"X.X.X.X.X.X.X.X.X.X.X.+ X . 3 U Q ! ( ) ` - . + + X.X.X.X.X.X.X.X.X X ; n J G V Y R W  .T @ X + + X.X.X.X.X.X.X.X.X.X.X.",
"X.X.X.X.X.X.X.X.X.X.X.+ O X ; U Q ! [ ( ` < . + + X.X.X.X.X.X.X.+ X O 6 S G N U E R  ...v $ X + + X.X.X.X.X.X.X.X.X.X.X.",
"X.X.X.X.X.X.X.X.X.X.X.+ O X * Y ^ ! ~ [ ' t . O + X.X.X.X.X.X.X.+ X @ a J G N U E R ..) w + X + + X.X.X.X.X.X.X.X.X.X.X.",
"X.X.X.X.X.X.X.X.X.X.X.+ + X O I U Q ~ [ { H + X + + X.X.X.X.X.+ + X ; n J N N Y T ` ` f 0 X X + X.X.X.X.X.X.X.X.X.X.X.X.",
"X.X.X.X.X.X.X.X.X.X.X.X.+ + X G Y ^ ! [ } ` F + . + + X.X.X.+ + O * c D G n N P m f w 0 9 X + + X.X.X.X.X.X.X.X.X.X.X.X.",
"X.X.X.X.X.X.X.X.X.X.X.X.+ + X l T ^ Q ~ } | R e   O + X.X.X.+ + X u S J n v N d 8 0 i 9 3 X + + X.X.X.X.X.X.X.X.X.X.X.X.",
"X.X.X.X.X.X.X.X.X.X.X.X.+ + X 6 J Y ^ ! [ [ ' K %   + + + + + X o n K G v v v 7 9 9 9 6 * + + X.X.X.X.X.X.X.X.X.X.X.X.X.",
"X.X.X.X.X.X.X.X.X.X.X.X.X.+ + @ b E ^ ( ( { { ` x +   + + + X   1 D J v h v d 7 9 9 9 3 + + + X.X.X.X.X.X.X.X.X.X.X.X.X.",
"X.X.X.X.X.X.X.X.X.X.X.X.X.+ + X 6 K Y ^ ( ) { { E x +   .     1 b J n d d i 7 4 7 9 9 ; X + X.X.X.X.X.X.X.X.X.X.X.X.X.X.",
"X.X.X.X.X.X.X.X.X.X.X.X.X.+ + X & n R Y ^ ) ' ' ' E F - - % 5 S J S d 0 9 9 4 4 4 9 4 @ X + X.X.X.X.X.X.X.X.X.X.X.X.X.X.",
"X.X.X.X.X.X.X.X.X.X.X.X.X.X.+ O X @ i T E E _ _ _ ` ` W R T T T J 0 9 6 4 4 4 4 6 , + X + X.X.X.X.X.X.X.X.X.X.X.X.X.X.X.",
"X.X.X.X.X.X.X.X.X.X.X.X.X.X.X.+ X X = g T E E E E W W W E T T J h 9 6 4 4 3 3 4 3 @ X + + X.X.X.X.X.X.X.X.X.X.X.X.X.X.X.",
"X.X.X.X.X.X.X.X.X.X.X.X.X.X.X.+ + X + > g E E E W W W T T T G h 0 6 4 4 3 3 4 3 @ X X + + X.X.X.X.X.X.X.X.X.X.X.X.X.X.X.",
"X.X.X.X.X.X.X.X.X.X.X.X.X.X.X.+ + + X @ 3 n I T E T T T J n d 9 9 4 3 3 3 4 4 * X X + + X.X.X.X.X.X.X.X.X.X.X.X.X.X.X.X.",
"X.X.X.X.X.X.X.X.X.X.X.X.X.X.X.X.+ + X X # 9 g n G G G v g 0 9 6 4 3 3 3 3 3 > + X + + X.X.X.X.X.X.X.X.X.X.X.X.X.X.X.X.X.",
"X.X.X.X.X.X.X.X.X.X.X.X.X.X.X.X.+ + + O X ; 4 9 0 i i 9 9 9 6 4 3 3 3 3 3 : @ X + + + X.X.X.X.X.X.X.X.X.X.X.X.X.X.X.X.X.",
"X.X.X.X.X.X.X.X.X.X.X.X.X.X.X.X.X.X.+ + + X O @ * ; 3 3 3 3 3 3 3 ; - @ O X + + + X.X.X.X.X.X.X.X.X.X.X.X.X.X.X.X.X.X.X.",
"X.X.X.X.X.X.X.X.X.X.X.X.X.X.X.X.X.X.X.+ + + X X O + @ - ; ; ; ; - @ + X X + + X.X.X.X.X.X.X.X.X.X.X.X.X.X.X.X.X.X.X.X.X.",
"X.X.X.X.X.X.X.X.X.X.X.X.X.X.X.X.X.X.X.X.X.+ + + X X X + + + + + + X X + + + + X.X.X.X.X.X.X.X.X.X.X.X.X.X.X.X.X.X.X.X.X.",
"X.X.X.X.X.X.X.X.X.X.X.X.X.X.X.X.X.X.X.X.X.+ + + + + + X X X X X X + + + + + X.X.X.X.X.X.X.X.X.X.X.X.X.X.X.X.X.X.X.X.X.X.",
"X.X.X.X.X.X.X.X.X.X.X.X.X.X.X.X.X.X.X.X.X.X.X.+ + + + + + + + + + + + + X.X.X.X.X.X.X.X.X.X.X.X.X.X.X.X.X.X.X.X.X.X.X.X.",
"X.X.X.X.X.X.X.X.X.X.X.X.X.X.X.X.X.X.X.X.X.X.X.X.X.X.X.+ + + + + + X.X.X.X.X.X.X.X.X.X.X.X.X.X.X.X.X.X.X.X.X.X.X.X.X.X.X.",
"X.X.X.X.X.X.X.X.X.X.X.X.X.X.X.X.X.X.X.X.X.X.X.X.X.X.X.X.X.X.X.X.X.X.X.X.X.X.X.X.X.X.X.X.X.X.X.X.X.X.X.X.X.X.X.X.X.X.X.X.",
"X.X.X.X.X.X.X.X.X.X.X.X.X.X.X.X.X.X.X.X.X.X.X.X.X.X.X.X.X.X.X.X.X.X.X.X.X.X.X.X.X.X.X.X.X.X.X.X.X.X.X.X.X.X.X.X.X.X.X.X.",
"X.X.X.X.X.X.X.X.X.X.X.X.X.X.X.X.X.X.X.X.X.X.X.X.X.X.X.X.X.X.X.X.X.X.X.X.X.X.X.X.X.X.X.X.X.X.X.X.X.X.X.X.X.X.X.X.X.X.X.X."
};
