/* XPM */
static char *result[] = {
/* columns rows colors chars-per-pixel */
"60 60 72 1 ",
"  c #501000",
". c #502000",
"X c #503000",
"o c #602000",
"O c #603000",
"+ c #703000",
"@ c #704000",
"# c #705000",
"$ c #803000",
"% c #804000",
"& c #805000",
"* c #915000",
"= c #A05000",
"- c #916000",
"; c #A06000",
": c #B06000",
"> c #A07000",
", c #B07000",
"< c #C06000",
"1 c #D06000",
"2 c #C07000",
"3 c #D07000",
"4 c #E07000",
"5 c #A08000",
"6 c #B09100",
"7 c #B0A000",
"8 c #C08000",
"9 c #D08000",
"0 c #E08000",
"q c #F08000",
"w c #E09100",
"e c #F09110",
"r c #C0A000",
"t c #C0A010",
"y c #F0A000",
"u c #E0B000",
"i c #F0B000",
"p c #F0B020",
"a c #D0C010",
"s c #F0C000",
"d c #E0D000",
"f c #F0D000",
"g c #E0C010",
"h c #F0C010",
"j c #F0D010",
"k c #F0E000",
"l c #F0E010",
"z c #F0C020",
"x c #F0C030",
"c c #F0D030",
"v c #F0E020",
"b c #F0F020",
"n c #F0E030",
"m c #F0F030",
"M c #F0B040",
"N c #F0B050",
"B c #F0C040",
"V c #F0D040",
"C c #F0C050",
"Z c #F0D050",
"A c #F0E040",
"S c #F0F040",
"D c #F0E050",
"F c #F0F050",
"G c #F0C060",
"H c #F0D060",
"J c #F0C070",
"K c #F0E060",
"L c #F0F060",
"P c #F0F080",
"I c #F0F0A0",
"U c None",
/* pixels */
"UUUUUUUUUUUUUUUUUUUUUUUUUUUUUUUUUUUUUUUUUUUUUUUUUUUUUUUUUUUU",
"UUUUUUUUUUUUUUUUUUUUUUUUUUUUUUUUUUUUUUUUUUUUUUUUUUUUUUUUUUUU",
"UUUUUUUUUUUUUUUUUUUUUUUUUUUUUUUUUUUUUUUUUUUUUUUUUUUUUUUUUUUU",
"UUUUUUUUUUUUUUUUUUUUUUUUUUUOOOOOUUUUUUUUUUUUUUUUUUUUUUUUUUUU",
"UUUUUUUUUUUUUUUUUUUUUUUUUOOOooOOOUUUUUUUUUUUUUUUUUUUUUUUUUUU",
"UUUUUUUUUUUUUUUUUUUUUUUUOOO... .oOUUUUUUUUUUUUUUUUUUUUUUUUUU",
"UUUUUUUUUUUUUUUUUUUUUUUUOO.@--@..OOUUUUUUUUUUUUUUUUUUUUUUUUU",
"UUUUUUUUUUUUUUUUUUUUUUUOO..gcczt#oOOUUUUUUUUUUUUUUUUUUUUUUUU",
"UUUUUUUUUUUUUUUUUUUUUUOO. -AKKDma OOOUUUUUUUUUUUUUUUUUUUUUUU",
"UUUUUUUUUUUUUUUUUUUUUOO.orbCHHHDS5..OUUUUUUUUUUUUUUUUUUUUUUU",
"UUUUUUUUUUUUUUUUUUUUUOO.@dmCGHHDF6..OUUUUUUUUUUUUUUUUUUUUUUU",
"UUUUUUUUUUUUUUUUUUUUUOO.%jmCGHGDF6..OUUUUUUUUUUUUUUUUUUUUUUU",
"UUUUUUUUUUUUUUUUUUUUUOO.%jmCGJGZF7..OUUUUUUUUUUUUUUUUUUUUUUU",
"UUUUUUUUUUUUUUUUUUUUUOO.%jmNGGGZFr..OOUUUUUUUUUUUUUUUUUUUUUU",
"UUUUUUUUUUUUUUUUUUUUUOO.%jmNGGGZFd@.OOUUUUUUUUUUUUUUUUUUUUUU",
"UUUUUUUUUUUUUUUUUUUUUOO.%jnNNGGZFk% OOUUUUUUUUUUUUUUUUUUUUUU",
"UUUUUUUUUUUUUUUUUUUUUUO.%fnNNGGZFk% OOUUUUUUUUUUUUUUUUUUUUUU",
"UUUUUUUUUUUUUUUUUUUUUOO.%snMNGGZFk% OOUUUUUUUUUUUUUUUUUUUUUU",
"UUUUUUUUUUUUUUUUUUUUUOO %jcMNGCZSk% OOUUUUUUUUUUUUUUUUUUUUUU",
"UUUUUUUUUUUUUUUUUUUUUOo.-jcMNGCZSk% OOUUUUUUUUUUUUUUUUUUUUUU",
"UUUUUUUUUUUUUUUUUUUUUO..>lcMNCCZSk% OOUUUUUUUUUUUUUUUUUUUUUU",
"UUUUUUUUUUUUUUUUUUUUUO..,lcMNCZDSk% OOUUUUUUUUUUUUUUUUUUUUUU",
"UUUUUUUUUUUUUUUUUUUUUO..,jxMNCZASk%.OOUUUUUUUUUUUUUUUUUUUUUU",
"UUUUUUUUUUUUUUUUUUUUUO..,jxMCCZASk%.OOUUUUUUUUUUUUUUUUUUUUUU",
"UUUUUUUUUUUUUUUUUUUUUO..>jxMCCVSSk%.OOUUUUUUUUUUUUUUUUUUUUUU",
"UUUUUUUUUUUUUUUUUUUUUO..>jxBBCVSSk%.OOUUUUUUUUUUUUUUUUUUUUUU",
"UUUUUUUUUUUUUUUUUUUUUO..>jxBBBASSf%.OOUUUUUUUUUUUUUUUUUUUUUU",
"UUUUUUUUUUUUUUUUUUUUUO..;jzxBVAmmf$.OOUUUUUUUUUUUUUUUUUUUUUU",
"UUUUUUUUUUUUUUUUUUUUUO..;hzxBVSmmf$.OOUUUUUUUUUUUUUUUUUUUUUU",
"UUUUUUUUUUUUUUUUUUUUUO..;hzxBVSmmf$.OOUUUUUUUUUUUUUUUUUUUUUU",
"UUUUUUUUUUUUUUUUUUUUUO..*hzxxVmmms$.OOUUUUUUUUUUUUUUUUUUUUUU",
"UUUUUUUUUUUUUUUUUUUUUO..*izxxcmmms$.OOUUUUUUUUUUUUUUUUUUUUUU",
"UUUUUUUUUUUUUUUUUUUUUO..*ihxxnmmmu+.OOUUUUUUUUUUUUUUUUUUUUUU",
"UUUUUUUUUUUUUUUUUUUUUO..*whpxnmmmw+.OOUUUUUUUUUUUUUUUUUUUUUU",
"UUUUUUUUUUUUUUUUUUUUUOo.*9izcmmSS4@.OOUUUUUUUUUUUUUUUUUUUUUU",
"UUUUUUUUUUUUUUUUUUUUUOo.*3yzcbmFS1%.OOUUUUUUUUUUUUUUUUUUUUUU",
"UUUUUUUUUUUUUUUUUUUUUOo.*2wzcbmPL3@.OOUUUUUUUUUUUUUUUUUUUUUU",
"UUUUUUUUUUUUUUUUUUUUUOo.*23hcbmID9@.OOUUUUUUUUUUUUUUUUUUUUUU",
"UUUUUUUUUUUUUUUUUUUUUOoX&22yzvSFe9@.OOUUUUUUUUUUUUUUUUUUUUUU",
"UUUUUUUUUUUUUUUUUUUUUOoX&,222<4qq2%.OOUUUUUUUUUUUUUUUUUUUUUU",
"UUUUUUUUUUUUUUUUUUUUUOo.@:2,223008@.OOUUUUUUUUUUUUUUUUUUUUUU",
"UUUUUUUUUUUUUUUUUUUUUOO.O;,::<2332@.OOUUUUUUUUUUUUUUUUUUUUUU",
"UUUUUUUUUUUUUUUUUUUUUOO.+;,:::<232@.OOUUUUUUUUUUUUUUUUUUUUUU",
"UUUUUUUUUUUUUUUUUUUUUUO.+;,::::222@.OOUUUUUUUUUUUUUUUUUUUUUU",
"UUUUUUUUUUUUUUUUUUUUUOO.+;:;:::,22@.OOUUUUUUUUUUUUUUUUUUUUUU",
"UUUUUUUUUUUUUUUUUUUUUOO.O*:;;;::22@.OOUUUUUUUUUUUUUUUUUUUUUU",
"UUUUUUUUUUUUUUUUUUUUUOO.O*:;;:::3,@.OOUUUUUUUUUUUUUUUUUUUUUU",
"UUUUUUUUUUUUUUUUUUUUUOO.O*:;;;::3;o.OOUUUUUUUUUUUUUUUUUUUUUU",
"UUUUUUUUUUUUUUUUUUUUUOO.O*:;;;::3=o.OUUUUUUUUUUUUUUUUUUUUUUU",
"UUUUUUUUUUUUUUUUUUUUUOO.O&;;;::<3*o.OUUUUUUUUUUUUUUUUUUUUUUU",
"UUUUUUUUUUUUUUUUUUUUUOOOo@-;;::<2*.oOUUUUUUUUUUUUUUUUUUUUUUU",
"UUUUUUUUUUUUUUUUUUUUUUOOO.+;;:::;.oOOUUUUUUUUUUUUUUUUUUUUUUU",
"UUUUUUUUUUUUUUUUUUUUUUUOOoo%*-*&@.OOUUUUUUUUUUUUUUUUUUUUUUUU",
"UUUUUUUUUUUUUUUUUUUUUUUOOOooO+OO.OOOUUUUUUUUUUUUUUUUUUUUUUUU",
"UUUUUUUUUUUUUUUUUUUUUUUUOOO.....oOOUUUUUUUUUUUUUUUUUUUUUUUUU",
"UUUUUUUUUUUUUUUUUUUUUUUUUOOOOOOOOOUUUUUUUUUUUUUUUUUUUUUUUUUU",
"UUUUUUUUUUUUUUUUUUUUUUUUUUUOOOOOOUUUUUUUUUUUUUUUUUUUUUUUUUUU",
"UUUUUUUUUUUUUUUUUUUUUUUUUUUUUUUUUUUUUUUUUUUUUUUUUUUUUUUUUUUU",
"UUUUUUUUUUUUUUUUUUUUUUUUUUUUUUUUUUUUUUUUUUUUUUUUUUUUUUUUUUUU",
"UUUUUUUUUUUUUUUUUUUUUUUUUUUUUUUUUUUUUUUUUUUUUUUUUUUUUUUUUUUU"
};
