/* XPM */
static char *result[] = {
/* columns rows colors chars-per-pixel */
"60 60 99 2 ",
"   c #400000",
".  c #401000",
"X  c #501000",
"o  c #502000",
"O  c #503000",
"+  c #602000",
"@  c #603000",
"#  c #703000",
"$  c #704000",
"%  c #705000",
"&  c #803000",
"*  c #804000",
"=  c #914000",
"-  c #805000",
";  c #915000",
":  c #A04000",
">  c #A05000",
",  c #B05000",
"<  c #806000",
"1  c #916000",
"2  c #917000",
"3  c #A06000",
"4  c #B06000",
"5  c #A07000",
"6  c #B07000",
"7  c #B07010",
"8  c #C05000",
"9  c #C06000",
"0  c #D06000",
"q  c #C07000",
"w  c #D07000",
"e  c #E07000",
"r  c #F07000",
"t  c #A08000",
"y  c #B08000",
"u  c #A09100",
"i  c #B09100",
"p  c #D08000",
"a  c #D09100",
"s  c #E08000",
"d  c #F08000",
"f  c #E09100",
"g  c #F09100",
"h  c #F09110",
"j  c #C0A000",
"k  c #D0A000",
"l  c #C0B000",
"z  c #D0B000",
"x  c #D0B010",
"c  c #E0A000",
"v  c #F0A000",
"b  c #F0B000",
"n  c #F0A010",
"m  c #F0B010",
"M  c #F0A020",
"N  c #F0B020",
"B  c #F0B030",
"V  c #D0C000",
"C  c #D0D000",
"Z  c #E0C000",
"A  c #F0C000",
"S  c #F0D000",
"D  c #F0C010",
"F  c #E0D010",
"G  c #F0D010",
"H  c #F0F000",
"J  c #E0E010",
"K  c #F0E010",
"L  c #F0F010",
"P  c #F0C020",
"I  c #F0D020",
"U  c #F0C030",
"Y  c #F0D030",
"T  c #F0E020",
"R  c #F0F020",
"E  c #F0E030",
"W  c #F0F030",
"Q  c #F0B040",
"!  c #F0B050",
"~  c #F0B060",
"^  c #F0C040",
"/  c #F0D040",
"(  c #F0C050",
")  c #F0D050",
"_  c #F0E040",
"`  c #F0F040",
"'  c #F0E050",
"]  c #F0F050",
"[  c #F0C060",
"{  c #F0D060",
"}  c #F0C070",
"|  c #F0D070",
" . c #F0E060",
".. c #F0F060",
"X. c #F0F070",
"o. c #F0F080",
"O. c #F0F091",
"+. c #F0F0A0",
"@. c None",
/* pixels */
"@.@.@.@.@.@.@.@.@.@.@.@.@.@.@.@.@.@.@.@.@.@.@.@.@.@.@.@.@.@.@.@.@.@.@.@.@.@.@.@.@.@.@.@.@.@.@.@.@.@.@.@.@.@.@.@.@.@.@.@.",
"@.@.@.@.@.@.@.@.@.@.@.@.@.@.@.@.@.@.@.@.@.@.@.@.@.@.@.@.@.@.@.@.@.@.@.@.@.@.@.@.@.@.@.@.@.@.@.@.@.@.@.@.@.@.@.@.@.@.@.@.",
"@.@.@.@.@.@.@.@.@.@.@.@.@.@.@.@.@.@.@.@.@.@.@.@.@.@.@.@.@.@.@.@.@.@.@.@.@.@.@.@.@.@.@.@.@.@.@.@.@.@.@.@.@.@.@.@.@.@.@.@.",
"@.@.@.@.@.@.@.@.@.@.@.@.@.@.@.@.@.@.@.@.@.@.@.@.@.@.@.@ @ @ @ @ @ @.@.@.@.@.@.@.@.@.@.@.@.@.@.@.@.@.@.@.@.@.@.@.@.@.@.@.",
"@.@.@.@.@.@.@.@.@.@.@.@.@.@.@.@.@.@.@.@.@.@.@.@.@ @ @ @ @ @ @ @ @ @ @ @ @.@.@.@.@.@.@.@.@.@.@.@.@.@.@.@.@.@.@.@.@.@.@.@.",
"@.@.@.@.@.@.@.@.@.@.@.@.@.@.@.@.@.@.@.@.@.@.@ @ @ @ o o X X X X o + @ @ @ @ @.@.@.@.@.@.@.@.@.@.@.@.@.@.@.@.@.@.@.@.@.@.",
"@.@.@.@.@.@.@.@.@.@.@.@.@.@.@.@.@.@.@.@.@.@ @ @ + o o $ - - - - $ X X o @ @ @ @.@.@.@.@.@.@.@.@.@.@.@.@.@.@.@.@.@.@.@.@.",
"@.@.@.@.@.@.@.@.@.@.@.@.@.@.@.@.@.@.@.@.@.@ @ o o $ 7 N I I T T F 5 $ o X + @ @ @.@.@.@.@.@.@.@.@.@.@.@.@.@.@.@.@.@.@.@.",
"@.@.@.@.@.@.@.@.@.@.@.@.@.@.@.@.@.@.@.@.@ + . O 3 N ^ ' ' ] ` ` W R G i $ X o @ @ @.@.@.@.@.@.@.@.@.@.@.@.@.@.@.@.@.@.@.",
"@.@.@.@.@.@.@.@.@.@.@.@.@.@.@.@.@.@ @ @ o 1 N ^ { { { ] ` W W W R W W R L H j X @ @ @ @.@.@.@.@.@.@.@.@.@.@.@.@.@.@.@.@.",
"@.@.@.@.@.@.@.@.@.@.@.@.@.@.@.@.@ @ @ o o N ( | { [ ) ` W W R W W T E E W R L @ o @ @ @ @.@.@.@.@.@.@.@.@.@.@.@.@.@.@.@.",
"@.@.@.@.@.@.@.@.@.@.@.@.@.@.@.@.@ @ o @ y ( } [ [ ) ` W W W W P n g g g n I R j o o @ @ @.@.@.@.@.@.@.@.@.@.@.@.@.@.@.@.",
"@.@.@.@.@.@.@.@.@.@.@.@.@.@.@.@ @ o X i I } [ [ ( _ ` R W T h d g g g g d d h L 2 . o @ @ @.@.@.@.@.@.@.@.@.@.@.@.@.@.@.",
"@.@.@.@.@.@.@.@.@.@.@.@.@.@.@.@ o X 2 D ( [ [ ( ) ` W W I g g v g p p p p s d K L - X @ @ @.@.@.@.@.@.@.@.@.@.@.@.@.@.@.",
"@.@.@.@.@.@.@.@.@.@.@.@.@.@.@.+ o - D ^ ~ [ ( ) ` ` W P d v g p w q q w w w p d K C @ o @ @.@.@.@.@.@.@.@.@.@.@.@.@.@.@.",
"@.@.@.@.@.@.@.@.@.@.@.@.@.@.@ o < G ^ ! ~ ( ) ` W W W g q # + o + - 3 4 4 9 9 w e b V @ o @ @.@.@.@.@.@.@.@.@.@.@.@.@.@.",
"@.@.@.@.@.@.@.@.@.@.@.@.@.@ @ o j I ! ! ~ ( _ ` W W P 6 @ o o o o @ - 3 3 4 9 q p r A t X @ @ @.@.@.@.@.@.@.@.@.@.@.@.@.",
"@.@.@.@.@.@.@.@.@.@.@.@.@.@ @ % D ^ ! ! ~ ) ` W W R g @ o + @ @ @ o @ - 3 3 4 4 q e b J $ @ @ @.@.@.@.@.@.@.@.@.@.@.@.@.",
"@.@.@.@.@.@.@.@.@.@.@.@.@ @ o i I ^ ! ~ ( _ ` W W D s o + @ @ @ @ @ o # 1 3 3 4 4 s d K u + @ @.@.@.@.@.@.@.@.@.@.@.@.@.",
"@.@.@.@.@.@.@.@.@.@.@.@.@ @ o Z Y Q ! ! ( ` W W R g 4 o @ @ @.@.@ @ o + * 3 3 4 4 p r b V o @ @ @.@.@.@.@.@.@.@.@.@.@.@.",
"@.@.@.@.@.@.@.@.@.@.@.@.@ + o G ^ Q ! ( ( ` W W G e # @ @ @ @.@.@.@ @ o @ ; 3 3 4 q r v K X @ @ @.@.@.@.@.@.@.@.@.@.@.@.",
"@.@.@.@.@.@.@.@.@.@.@.@ @ o @ I ^ Q ! ( / W W R g * o @ @.@.@.@.@.@.@ @ o # ; 3 3 8 B ..L + o @ @.@.@.@.@.@.@.@.@.@.@.@.",
"@.@.@.@.@.@.@.@.@.@.@.@ @ X $ U ^ Q ( ( _ W W K 0 + o @ @.@.@.@.@.@.@ @ o @ ; 3 4 8 P o.R $ o @ @ @.@.@.@.@.@.@.@.@.@.@.",
"@.@.@.@.@.@.@.@.@.@.@.@ + o 1 U U Q ( / _ W W D , o o @ @.@.@.@.@.@.@ @ + o * 4 4 , m O.W - X @ @ @.@.@.@.@.@.@.@.@.@.@.",
"@.@.@.@.@.@.@.@.@.@.@.@ o o y U U ^ ( / ` W R n = o + @.@.@.@.@.@.@.@.@ + o $ 4 4 8 I ] W 5 o o @ @.@.@.@.@.@.@.@.@.@.@.",
"@.@.@.@.@.@.@.@.@.@.@.@ o o y U U ^ ^ / ` W R g # o @ @.@.@.@.@.@.@.@.@ @ o # 4 9 n W W W i o o @ @.@.@.@.@.@.@.@.@.@.@.",
"@.@.@.@.@.@.@.@.@.@.@.@ o o y U U ^ ^ _ W W L p # o @ @.@.@.@.@.@.@.@.@ @ o @ 4 s I W W W i o o @ @.@.@.@.@.@.@.@.@.@.@.",
"@.@.@.@.@.@.@.@.@.@.@ @ o @ c P U ^ / ` W W K , o o @ @.@.@.@.@.@.@.@.@.@ o o p D U Y W W z + o @ @ @.@.@.@.@.@.@.@.@.@.",
"@.@.@.@.@.@.@.@.@.@.@ @ o # c P U ^ / ` W W K 4 o o @ @.@.@.@.@.@.@.@.@.@ o o v D B Y W W Z $ o @ @ @.@.@.@.@.@.@.@.@.@.",
"@.@.@.@.@.@.@.@.@.@.@ @ o # c P U ^ / ` W W K 4 o o @ @.@.@.@.@.@.@.@.@.@ o o D P U U _ W S * o @ @ @.@.@.@.@.@.@.@.@.@.",
"@.@.@.@.@.@.@.@.@.@.@ @ o @ a P U U / W W W K 4 o o @ @.@.@.@.@.@.@.@.@.@ o o D P U ^ _ ` S * o @ @ @.@.@.@.@.@.@.@.@.@.",
"@.@.@.@.@.@.@.@.@.@.@ @ o @ a P U U Y W W W G 4 o o @ @.@.@.@.@.@.@.@.@.@ o o G U U ^ _ ` Z $ o @ @ @.@.@.@.@.@.@.@.@.@.",
"@.@.@.@.@.@.@.@.@.@.@ @ o @ 6 P U U E W W W G 4 o o @ @.@.@.@.@.@.@.@.@.@ o o G U ^ ^ / ` z + o @ @ @.@.@.@.@.@.@.@.@.@.",
"@.@.@.@.@.@.@.@.@.@.@.@ o o = D P U E W W W R f # o @ @.@.@.@.@.@.@.@.@ @ o $ Y Q ! ( _ ` y X o @ @.@.@.@.@.@.@.@.@.@.@.",
"@.@.@.@.@.@.@.@.@.@.@.@ o o * b P U E W W W R v & o @ @.@.@.@.@.@.@.@.@ @ X - Y Q ! ( ' ` y X o @ @.@.@.@.@.@.@.@.@.@.@.",
"@.@.@.@.@.@.@.@.@.@.@.@ + o * v D Y W W W W R m = o + @.@.@.@.@.@.@.@.@ o o t ^ Q ! ( ' W 3 o + @ @.@.@.@.@.@.@.@.@.@.@.",
"@.@.@.@.@.@.@.@.@.@.@.@ @ o $ p m I E W W R R D 4 o o @ @.@.@.@.@.@.@ @ o o j ( ! ~ ( ' W * o @ @ @.@.@.@.@.@.@.@.@.@.@.",
"@.@.@.@.@.@.@.@.@.@.@.@ @ o @ 9 f P E R ` W R K w @ o @ @.@.@.@.@.@.@ @ o $ G ! ~ [ ( ` R # o @ @ @.@.@.@.@.@.@.@.@.@.@.",
"@.@.@.@.@.@.@.@.@.@.@.@ @ o @ 6 9 g Y R ` W R R b ; o @ @.@.@.@.@.@.@ + X t R ~ ~ [ ) ` R + o @ @.@.@.@.@.@.@.@.@.@.@.@.",
"@.@.@.@.@.@.@.@.@.@.@.@.@ @ o 3 6 4 9 n R X.R W R g $ @ @ @.@.@.@.@ + . 5 R ) } [ ( ` W S o @ @ @.@.@.@.@.@.@.@.@.@.@.@.",
"@.@.@.@.@.@.@.@.@.@.@.@.@ @ o ; 4 4 4 8 v +.W R R m 4 o @ @ @.@.@ @ . $ G _ [ [ [ ' ` R k o @ @ @.@.@.@.@.@.@.@.@.@.@.@.",
"@.@.@.@.@.@.@.@.@.@.@.@.@ @ + $ 3 4 4 9 0 ..] R W T b . @ @ @ @ @ X + z W { [ [ ) ` W L 3 + @ @.@.@.@.@.@.@.@.@.@.@.@.@.",
"@.@.@.@.@.@.@.@.@.@.@.@.@.@ @ @ ; 3 4 4 9 g P E E R L @ X @ @ @ @ + l W  .{ { ) ` ` R A & @ @ @.@.@.@.@.@.@.@.@.@.@.@.@.",
"@.@.@.@.@.@.@.@.@.@.@.@.@.@ @ o * 3 3 4 4 w d h M W R j @   X X   x W ' {  . .` ` W L q + @ @ @.@.@.@.@.@.@.@.@.@.@.@.@.",
"@.@.@.@.@.@.@.@.@.@.@.@.@.@.@ o # ; 3 3 4 q s d d P W L z - - - 1 W ] ] ] ] ] ` W R A & o @ @.@.@.@.@.@.@.@.@.@.@.@.@.@.",
"@.@.@.@.@.@.@.@.@.@.@.@.@.@.@ @ o @ ; 3 3 4 6 w s d d W R R R R W ` ` ` ` ` ` W R d & o @ @ @.@.@.@.@.@.@.@.@.@.@.@.@.@.",
"@.@.@.@.@.@.@.@.@.@.@.@.@.@.@.@ @ o # ; 3 4 4 4 q p g I W W W W W W W W W W W R v : o o @ @.@.@.@.@.@.@.@.@.@.@.@.@.@.@.",
"@.@.@.@.@.@.@.@.@.@.@.@.@.@.@.@ @ o o $ ; 3 4 4 4 q s d n E W R R W W W W R W g 8 + o @ @ @.@.@.@.@.@.@.@.@.@.@.@.@.@.@.",
"@.@.@.@.@.@.@.@.@.@.@.@.@.@.@.@ @ @ o + $ 3 3 4 4 6 q d d h E W W W W W W W I 9 # o @ @ @ @.@.@.@.@.@.@.@.@.@.@.@.@.@.@.",
"@.@.@.@.@.@.@.@.@.@.@.@.@.@.@.@.@ @ @ o + ; 3 4 4 4 q w s g g n N T I T P g d # o + @ @ @.@.@.@.@.@.@.@.@.@.@.@.@.@.@.@.",
"@.@.@.@.@.@.@.@.@.@.@.@.@.@.@.@.@.@ @ @ o # - 3 4 4 4 q w s s d d g g g d f q o o @ @ @.@.@.@.@.@.@.@.@.@.@.@.@.@.@.@.@.",
"@.@.@.@.@.@.@.@.@.@.@.@.@.@.@.@.@.@.@.@ @ @ o + # - ; 4 9 q q q w q 4 ; # o o @ @ @.@.@.@.@.@.@.@.@.@.@.@.@.@.@.@.@.@.@.",
"@.@.@.@.@.@.@.@.@.@.@.@.@.@.@.@.@.@.@.@.@ @ @ o o @ # ; ; ; > > > * # + o o @ @ @.@.@.@.@.@.@.@.@.@.@.@.@.@.@.@.@.@.@.@.",
"@.@.@.@.@.@.@.@.@.@.@.@.@.@.@.@.@.@.@.@.@.@ @ @ @ o o @ @ @ @ @ @ o o o @ @ @ @.@.@.@.@.@.@.@.@.@.@.@.@.@.@.@.@.@.@.@.@.",
"@.@.@.@.@.@.@.@.@.@.@.@.@.@.@.@.@.@.@.@.@.@.@ @ @ @ @ o o o o o o + + @ @ @ @ @.@.@.@.@.@.@.@.@.@.@.@.@.@.@.@.@.@.@.@.@.",
"@.@.@.@.@.@.@.@.@.@.@.@.@.@.@.@.@.@.@.@.@.@.@.@.@ @ @ @ @ @ @ @ @ @ @ @ @ @.@.@.@.@.@.@.@.@.@.@.@.@.@.@.@.@.@.@.@.@.@.@.",
"@.@.@.@.@.@.@.@.@.@.@.@.@.@.@.@.@.@.@.@.@.@.@.@.@.@.@.@ @ @ @ @ @ @.@.@.@.@.@.@.@.@.@.@.@.@.@.@.@.@.@.@.@.@.@.@.@.@.@.@.",
"@.@.@.@.@.@.@.@.@.@.@.@.@.@.@.@.@.@.@.@.@.@.@.@.@.@.@.@.@.@.@.@.@.@.@.@.@.@.@.@.@.@.@.@.@.@.@.@.@.@.@.@.@.@.@.@.@.@.@.@.",
"@.@.@.@.@.@.@.@.@.@.@.@.@.@.@.@.@.@.@.@.@.@.@.@.@.@.@.@.@.@.@.@.@.@.@.@.@.@.@.@.@.@.@.@.@.@.@.@.@.@.@.@.@.@.@.@.@.@.@.@.",
"@.@.@.@.@.@.@.@.@.@.@.@.@.@.@.@.@.@.@.@.@.@.@.@.@.@.@.@.@.@.@.@.@.@.@.@.@.@.@.@.@.@.@.@.@.@.@.@.@.@.@.@.@.@.@.@.@.@.@.@."
};
