/* XPM */
static char *result[] = {
/* columns rows colors chars-per-pixel */
"60 60 215 2 ",
"   c #8E7D1C",
".  c #907E15",
"X  c #8B7C28",
"o  c #8D7A20",
"O  c #917D26",
"+  c #947E28",
"@  c #897D39",
"#  c #9B7B42",
"$  c #97891C",
"%  c #9B971F",
"&  c #A48C1C",
"*  c #AF8E1D",
"=  c #B68E1F",
"-  c #AC9519",
";  c #A7961E",
":  c #B79F17",
">  c #BA961D",
",  c #B5981B",
"<  c #BAA219",
"1  c #9D892E",
"2  c #9B8829",
"3  c #9A8533",
"4  c #A48326",
"5  c #A98E25",
"6  c #A58C2C",
"7  c #A88525",
"8  c #B28F23",
"9  c #B28C2C",
"0  c #BB8E28",
"q  c #AB9425",
"w  c #A4932C",
"e  c #AA9525",
"r  c #B49122",
"t  c #BC9325",
"y  c #B59B24",
"u  c #BC9B24",
"i  c #B39C2B",
"p  c #BC9A2B",
"a  c #B7942C",
"s  c #A88733",
"d  c #AE943C",
"f  c #AE9537",
"g  c #B39D33",
"h  c #B89636",
"j  c #BFA725",
"k  c #BCA52B",
"l  c #B5A521",
"z  c #BDA13A",
"x  c #B3A33A",
"c  c #C99C1E",
"v  c #C49B18",
"b  c #CEA319",
"n  c #C2A817",
"m  c #D7AC1C",
"M  c #D3B51D",
"N  c #DCBB1B",
"B  c #DEB61F",
"V  c #C29A26",
"C  c #CB9D26",
"Z  c #C39B2C",
"A  c #CD9D2C",
"S  c #C39527",
"D  c #C39E33",
"F  c #C99B33",
"G  c #C5A224",
"H  c #CCA523",
"J  c #C4AB25",
"K  c #CCA32D",
"L  c #CEAC2B",
"P  c #C4A72D",
"I  c #D3AB24",
"U  c #D2AD2C",
"Y  c #D6A828",
"T  c #CEB325",
"R  c #CEB128",
"E  c #D4B425",
"W  c #DBB323",
"Q  c #DDBB23",
"!  c #D2B32B",
"~  c #DBB42B",
"^  c #D5B92F",
"/  c #DCBB2B",
"(  c #D6B926",
")  c #C3AA33",
"_  c #C5A33A",
"`  c #CEAF3C",
"'  c #D1AE33",
"]  c #C8B138",
"[  c #DBB532",
"{  c #DEBB32",
"}  c #D4BE3E",
"|  c #DBBC3A",
" . c #D6B636",
".. c #E3BD26",
"X. c #E2B52C",
"o. c #E3BC2B",
"O. c #E2BC32",
"+. c #E1BA3D",
"@. c #E3C71C",
"#. c #EED11D",
"$. c #EDD117",
"%. c #DFC322",
"&. c #DEC12A",
"*. c #DFC838",
"=. c #E6C524",
"-. c #E4C924",
";. c #ECCB24",
":. c #E3C42B",
">. c #E9C52B",
",. c #E5CB2C",
"<. c #EBCC2B",
"1. c #E9C522",
"2. c #F1CD24",
"3. c #F1CE2E",
"4. c #EED12F",
"5. c #EFD421",
"6. c #FBDA25",
"7. c #F4D52D",
"8. c #F8D62A",
"9. c #F9D82A",
"0. c #E3C435",
"q. c #E6CB33",
"w. c #EDCA34",
"e. c #E4C33A",
"r. c #E6CC3C",
"t. c #ECCD3C",
"y. c #EDC53F",
"u. c #F1CC39",
"i. c #F0CC33",
"p. c #EBD333",
"a. c #E7D03C",
"s. c #EAD13B",
"d. c #ECDD3C",
"f. c #E7D034",
"g. c #F4DC32",
"h. c #F4D43A",
"j. c #F2D93C",
"k. c #F7D935",
"l. c #F6E42D",
"z. c #EFE035",
"x. c #FCE333",
"c. c #FCEB35",
"v. c #F7E439",
"b. c #FCF63F",
"n. c #9C8B48",
"m. c #908551",
"M. c #AA8F48",
"N. c #A59343",
"B. c #AE9A43",
"V. c #AB9948",
"C. c #B09E53",
"Z. c #B7A14B",
"A. c #B7A553",
"S. c #BBAD69",
"D. c #C7AA48",
"F. c #CDB54D",
"G. c #C6B442",
"H. c #D3BA4D",
"J. c #DEBC43",
"K. c #C3AA51",
"L. c #C6A654",
"P. c #CAB756",
"I. c #E6B94F",
"U. c #CDA361",
"Y. c #C5B862",
"T. c #D3B766",
"R. c #DAC646",
"E. c #CDC358",
"W. c #D7C654",
"Q. c #D8D25C",
"!. c #ECCE42",
"~. c #E3C845",
"^. c #E2D14E",
"/. c #E9D34B",
"(. c #EDDE4B",
"). c #E8D944",
"_. c #F2DD43",
"`. c #F4D748",
"'. c #FADD47",
"]. c #E3CC57",
"[. c #E9CC53",
"{. c #E4D35C",
"}. c #EBD851",
"|. c #F0DC5F",
" X c #F3E54B",
".X c #F7E845",
"XX c #FDF746",
"oX c #EDE35B",
"OX c #ECE052",
"+X c #FAEE59",
"@X c #D1C661",
"#X c #DCD66D",
"$X c #C8C17C",
"%X c #DED27F",
"&X c #E7D662",
"*X c #F2DD67",
"=X c #E8DB77",
"-X c #F6EE67",
";X c #F7EB6B",
":X c #ECEB7B",
">X c #F6E774",
",X c #F9F179",
"<X c #D4C789",
"1X c #CCC995",
"2X c #D4CC94",
"3X c #ECD987",
"4X c #ECE482",
"5X c #ECE18B",
"6X c #F0E989",
"7X c #F6F38A",
"8X c #EDE395",
"9X c #F5E995",
"0X c #F8F2A7",
"qX c #FBF6B7",
"wX c None",
/* pixels */
"wXwXwXwXwXwXwXwXwXwXwXwXwXwXwXwXwXwXwXwXwXwXwXwXwXwXwXwXwXwXwXwXwXwXwXwXwXwXwXwXwXwXwXwXwXwXwXwXwXwXwXwXwXwXwXwXwXwXwXwX",
"wXwXwXwXwXwXwXwXwXwXwXwXwXwXwXwXwXwXwXwXwXwXwXwXwXwXwXwXwXwXwXwXwXwXwXwXwXwXwXwXwXwXwXwXwXwXwXwXwXwXwXwXwXwXwXwXwXwXwXwX",
"wXwXwXwXwXwXwXwXwXwXwXwXwXwXwXwXwXwXwXwXwXwXwXwXwXwXwXwXwXwXwXwXwXwXwXwXwXwXwXwXwXwXwXwXwXwXwXwXwXwXwXwXwXwXwXwXwXwXwXwX",
"wXwXwXwXwXwXwXwXwXwXwXwXwXwXwXwXwXwXwXwXwXwXwXwXwXwXwXwXwXwXwXwXwXwXwXwXwXwXwXwXwXwXwXwXwXwXwXwXwXwXwXwXwXwXwXwXwXwXwXwX",
"wXwXwXwXwXwXwXwXwXwXwXwXwXwXwXwXwXwXwXwXwXwXwXwXwXwXwXwXwXwXwXwXwXwXwXwXwXwXwXwXwXwXwXwXwXwXwXwXwXwXwXwXwXwXwXwXwXwXwXwX",
"wXwXwXwXwXwXwXwXwXwXwXwXwXwXwXwXwXwXwXwXwXwXwXwXwXwXwXwXwXwXwXwXwXwXwXwXwXwXwXwXwXwXwXwXwXwXwXwXwXwXwXwXwXwXwXwXwXwXwXwX",
"wXwXwXwXwXwXwXwXwXwXwXwXwXwXwXwXwXwXwXwXwXwXwXwXwXwXwXwXwXwXwXwXwXwXwXwXwXwXwXwXwXwXwXwXwXwXwXwXwXwXwXwXwXwXwXwXwXwXwXwX",
"wXwXwXwXwXwXwXwXwXwXwXwXwXwXwXwXwXwXwXwXwXwXwXwXwXwXwXwXwXwXwXwXwXwXwXwXwXwXwXwXwXwXwXwXwXwXwXwXwXwXwXwXwXwXwXwXwXwXwXwX",
"wXwXwXwXwXwXwXwXwXwXwXwXwXwXwXwXwXwXwXwXwXwXwXwXwXwXwXwXwXwXwXwXwXwXwXwXwXwXwXwXwXwXwXwXwXwXwXwXwXwXwXwXwXwXwXwXwXwXwXwX",
"wXwXwXwXwXwXwXwXwXwXwXwXwXwXwXwXwXwXwXwXwXwXwXwXwXwXwXwXwXwXwXwXwXwXwXwXwXwXwXwXwXwXwXwXwXwXwXwXwXwXwXwXwXwXwXwXwXwXwXwX",
"wXwXwXwXwXwXwXwXwXwXwXwXwXwXwXwXwXwXwXwXwXwXwXwXwXwXwXwXwXwXwXwXwXwXwXwXwXwXwXwXwXwXwXwXwXwXwXwXwXwXwXwXwXwXwXwXwXwXwXwX",
"wXwXwXwXwXwXwXwXwXwXwXwXwXwXwXwXwXwXwXwXwXwXwXwXwXwXwXwXwXwXwXwXwXwXwXwXwXwXwXwXwXwXwXwXwXwXwXwXwXwXwXwXwXwXwXwXwXwXwXwX",
"wXwXwXwXwXwXwXwXwXwXwXwXwXwXwXwXwXwXwXwXwXwXwXwXwXwXwXwXwXwXwXwXwXwXwXwXwXwXwXwXwXwXwXwXwXwXwXwXwXwXwXwXwXwXwXwXwXwXwXwX",
"wXwXwXwXwXwXwXwXwXwXwXwXwXwXwXwXwXwXwXwXwXwXwXwXwXwXwXwXwXwXwXwXwXwXwXwXwXwXwXwXwXwXwXwXwXwXwXwXwXwXwXwXwXwXwXwXwXwXwXwX",
"wXwXwXwXwXwXwXwXwXwXwXwXwXwXwXwXwXwXwXwXwXwXwXwXwXn.3 X O O O O X @ m.wXwXwXwXwXwXwXwXwXwXwXwXwXwXwXwXwXwXwXwXwXwXwXwXwX",
"wXwXwXwXwXwXwXwXwXwXwXwXwXwXwXwXwXwXwXwXwXwXwX# 1 ; * y > p D p y r $ . $ wXwXwXwXwXwXwXwXwXwXwXwXwXwXwXwXwXwXwXwXwXwXwX",
"wXwXwXwXwXwXwXwXwXwXwXwXwXwXwXwXwXwXwXwXwX2 & r g ] } *.a.f.,.-.&.E L p a 2   wXwXwXwXwXwXwXwXwXwXwXwXwXwXwXwXwXwXwXwXwX",
"wXwXwXwXwXwXwXwXwXwXwXwXwXwXwXwXwXwXwXwX6 ; l E.4X,X>X|./.a.f.r.!.!.t.q.M n : q wXwXwXwXwXwXwXwXwXwXwXwXwXwXwXwXwXwXwXwX",
"wXwXwXwXwXwXwXwXwXwXwXwXwXwXwXwXwXwXwXq > H.8XqX4X).r.r.0.0.e.*.0.&.*.:.4.,.E L ) wXwXwXwXwXwXwXwXwXwXwXwXwXwXwXwXwXwXwX",
"wXwXwXwXwXwXwXwXwXwXwXwXwXwXwXwXwXwX9 i @X0X9X{.r.0.{ ^ ! L L T ^ [ O.O.&.-.w.../ R.wXwXwXwXwXwXwXwXwXwXwXwXwXwXwXwXwXwX",
"wXwXwXwXwXwXwXwXwXwXwXwXwXwXwXwXwX6 > Q.0X8X/.q.0.] y e f Z.A.A.Z.j E [ J.o.O.u.1.f.W.wXwXwXwXwXwXwXwXwXwXwXwXwXwXwXwXwX",
"wXwXwXwXwXwXwXwXwXwXwXwXwXwXwXwX6 V W.0X:XR.y.X.p M.wXwXwXwXwXwXwXwXK.k ~ Q / O.w.-.(.E.wXwXwXwXwXwXwXwXwXwXwXwXwXwXwXwX",
"wXwXwXwXwXwXwXwXwXwXwXwXwXwXwXwXp ` 9X6X^.,.M h wXwXwXwXwXwXwXwXwXwXwXwXL.R / X.{ u.,.oXwXwXwXwXwXwXwXwXwXwXwXwXwXwXwXwX",
"wXwXwXwXwXwXwXwXwXwXwXwXwXwXwXi ) {.7X/.t./ i wXwXwXwXwXwXwXwXwXwXwXwXwXwXL.' ~ / o.p._.Q.wXwXwXwXwXwXwXwXwXwXwXwXwXwXwX",
"wXwXwXwXwXwXwXwXwXwXwXwXwXwXwX< ^ -XOXf.o.z wXwXwXwXwXwXwXwXwXwXwXwXwXwXwXwXD.X.[ o.4.p.oXwXwXwXwXwXwXwXwXwXwXwXwXwXwXwX",
"wXwXwXwXwXwXwXwXwXwXwXwXwXwXz T ).+Xs.r.' L.wXwXwXwXwXwXwXwXwXwXwXwXwXwXwXwXwXG.[ [ >.4. XR.wXwXwXwXwXwXwXwXwXwXwXwXwXwX",
"wXwXwXwXwXwXwXwXwXwXwXwXwXwX) :._._.a.0._ wXwXwXwXwXwXwXwXwXwXwXwXwXwXwXwXwXwXF.~ ~ / 7.v.z.wXwXwXwXwXwXwXwXwXwXwXwXwXwX",
"wXwXwXwXwXwXwXwXwXwXwXwXwXwX! <..Xd.s.{ z wXwXwXwXwXwXwXwXwXwXwXwXwXwXwXwXwXwXT.~ W *.5.l.c.wXwXwXwXwXwXwXwXwXwXwXwXwXwX",
"wXwXwXwXwXwXwXwXwXwXwXwXwXwX1.8.k.j.h.[ wXwXwXwXwXwXwXwXwXwXwXwXwXwXwXwXwXwXwXwXJ.W >.#.x.c.~.wXwXwXwXwXwXwXwXwXwXwXwXwX",
"wXwXwXwXwXwXwXwXwXwXwXwXwXwX8.6.x.v.j.e.wXwXwXwXwXwXwXwXwXwXwXwXwXwXwXwXwXwXwXwXI.X.i.$.k.x./.wXwXwXwXwXwXwXwXwXwXwXwXwX",
"wXwXwXwXwXwXwXwXwXwXwXwXwXwX2.8.x.c.XXu.wXwXwXwXwXwXwXwXwXwXwXwXwXwXwXwXwXwXwXwXt.2.k.#.8.6.[.wXwXwXwXwXwXwXwXwXwXwXwXwX",
"wXwXwXwXwXwXwXwXwXwXwXwXwXwXQ 3.6.c.XXh.wXwXwXwXwXwXwXwXwXwXwXwXwXwXwXwXwXwXwXwXq.;.'.#.@.1.G.wXwXwXwXwXwXwXwXwXwXwXwXwX",
"wXwXwXwXwXwXwXwXwXwXwXwXwXwXL :.8.c.b.p.wXwXwXwXwXwXwXwXwXwXwXwXwXwXwXwXwXwXwXwX( e.'.;.Q b wXwXwXwXwXwXwXwXwXwXwXwXwXwX",
"wXwXwXwXwXwXwXwXwXwXwXwXwXwX_ / 3.c.XX(.H.wXwXwXwXwXwXwXwXwXwXwXwXwXwXwXwXwXwXF.G ].`.1.Y K wXwXwXwXwXwXwXwXwXwXwXwXwXwX",
"wXwXwXwXwXwXwXwXwXwXwXwXwXwXh ! >.g..X-XH.wXwXwXwXwXwXwXwXwXwXwXwXwXwXwXwXwXwXx D *Xr.N H 9 wXwXwXwXwXwXwXwXwXwXwXwXwXwX",
"wXwXwXwXwXwXwXwXwXwXwXwXwXwXB.L | j.z.,XW.K.wXwXwXwXwXwXwXwXwXwXwXwXwXwXwXwXL.5 P.;X>.m C f wXwXwXwXwXwXwXwXwXwXwXwXwXwX",
"wXwXwXwXwXwXwXwXwXwXwXwXwXwXwXy U >.g.}.;XG.wXwXwXwXwXwXwXwXwXwXwXwXwXwXwXwX& g 4Xy.X.b t wXwXwXwXwXwXwXwXwXwXwXwXwXwXwX",
"wXwXwXwXwXwXwXwXwXwXwXwXwXwXwXd G Q w.p.(.(.k wXwXwXwXwXwXwXwXwXwXwXwXwX1X2 % #X*XO.Y c = wXwXwXwXwXwXwXwXwXwXwXwXwXwXwX",
"wXwXwXwXwXwXwXwXwXwXwXwXwXwXwXwXi I X.7.-._.*.g A.wXwXwXwXwXwXwXwXwXwX<X3 s <X=X0.W C a wXwXwXwXwXwXwXwXwXwXwXwXwXwXwXwX",
"wXwXwXwXwXwXwXwXwXwXwXwXwXwXwXwXwXp I =.4.&.0.^ i B.S.wXwXwXwXwX2X$XN.2 B.%X3XI.~ G V wXwXwXwXwXwXwXwXwXwXwXwXwXwXwXwXwX",
"wXwXwXwXwXwXwXwXwXwXwXwXwXwXwXwXwXwXG Y O.i.N T J : - w V.C.V.N.2 2 w Y.8X#X/ X.F u r wXwXwXwXwXwXwXwXwXwXwXwXwXwXwXwXwX",
"wXwXwXwXwXwXwXwXwXwXwXwXwXwXwXwXwXwXwXC Y W ;.%.T J , - & & & 6 g E.5X=X} / ~ H V 9 wXwXwXwXwXwXwXwXwXwXwXwXwXwXwXwXwXwX",
"wXwXwXwXwXwXwXwXwXwXwXwXwXwXwXwXwXwXwXwXS K Y +.0.{ T T ! | ~.].{.W.H.+.N Y C > wXwXwXwXwXwXwXwXwXwXwXwXwXwXwXwXwXwXwXwX",
"wXwXwXwXwXwXwXwXwXwXwXwXwXwXwXwXwXwXwXwXwX8 Z K I B o.O.O./ { { / Q m H A S t wXwXwXwXwXwXwXwXwXwXwXwXwXwXwXwXwXwXwXwXwX",
"wXwXwXwXwXwXwXwXwXwXwXwXwXwXwXwXwXwXwXwXwXwX; , V A H H H L I H K A c v > = wXwXwXwXwXwXwXwXwXwXwXwXwXwXwXwXwXwXwXwXwXwX",
"wXwXwXwXwXwXwXwXwXwXwXwXwXwXwXwXwXwXwXwXwXwXwXwXs s = t V V V V t 0 0 wXwXwXwXwXwXwXwXwXwXwXwXwXwXwXwXwXwXwXwXwXwXwXwXwX",
"wXwXwXwXwXwXwXwXwXwXwXwXwXwXwXwXwXwXwXwXwXwXwXwXwXwXwXwX4 4 7 wXwXwXwXwXwXwXwXwXwXwXwXwXwXwXwXwXwXwXwXwXwXwXwXwXwXwXwXwX",
"wXwXwXwXwXwXwXwXwXwXwXwXwXwXwXwXwXwXwXwXwXwXwXwXwXwXwXwXwXwXwXwXwXwXwXwXwXwXwXwXwXwXwXwXwXwXwXwXwXwXwXwXwXwXwXwXwXwXwXwX",
"wXwXwXwXwXwXwXwXwXwXwXwXwXwXwXwXwXwXwXwXwXwXwXwXwXwXwXwXwXwXwXwXwXwXwXwXwXwXwXwXwXwXwXwXwXwXwXwXwXwXwXwXwXwXwXwXwXwXwXwX",
"wXwXwXwXwXwXwXwXwXwXwXwXwXwXwXwXwXwXwXwXwXwXwXwXwXwXwXwXwXwXwXwXwXwXwXwXwXwXwXwXwXwXwXwXwXwXwXwXwXwXwXwXwXwXwXwXwXwXwXwX",
"wXwXwXwXwXwXwXwXwXwXwXwXwXwXwXwXwXwXwXwXwXwXwXwXwXwXwXwXwXwXwXwXwXwXwXwXwXwXwXwXwXwXwXwXwXwXwXwXwXwXwXwXwXwXwXwXwXwXwXwX",
"wXwXwXwXwXwXwXwXwXwXwXwXwXwXwXwXwXwXwXwXwXwXwXwXwXwXwXwXwXwXwXwXwXwXwXwXwXwXwXwXwXwXwXwXwXwXwXwXwXwXwXwXwXwXwXwXwXwXwXwX",
"wXwXwXwXwXwXwXwXwXwXwXwXwXwXwXwXwXwXwXwXwXwXwXwXwXwXwXwXwXwXwXwXwXwXwXwXwXwXwXwXwXwXwXwXwXwXwXwXwXwXwXwXwXwXwXwXwXwXwXwX",
"wXwXwXwXwXwXwXwXwXwXwXwXwXwXwXwXwXwXwXwXwXwXwXwXwXwXwXwXwXwXwXwXwXwXwXwXwXwXwXwXwXwXwXwXwXwXwXwXwXwXwXwXwXwXwXwXwXwXwXwX",
"wXwXwXwXwXwXwXwXwXwXwXwXwXwXwXwXwXwXwXwXwXwXwXwXwXwXwXwXwXwXwXwXwXwXwXwXwXwXwXwXwXwXwXwXwXwXwXwXwXwXwXwXwXwXwXwXwXwXwXwX",
"wXwXwXwXwXwXwXwXwXwXwXwXwXwXwXwXwXwXwXwXwXwXwXwXwXwXwXwXwXwXwXwXwXwXwXwXwXwXwXwXwXwXwXwXwXwXwXwXwXwXwXwXwXwXwXwXwXwXwXwX",
"wXwXwXwXwXwXwXwXwXwXwXwXwXwXwXwXwXwXwXwXwXwXwXwXwXwXwXwXwXwXwXwXwXwXwXwXwXwXwXwXwXwXwXwXwXwXwXwXwXwXwXwXwXwXwXwXwXwXwXwX",
"wXwXwXwXwXwXwXwXwXwXwXwXwXwXwXwXwXwXwXwXwXwXwXwXwXwXwXwXwXwXwXwXwXwXwXwXwXwXwXwXwXwXwXwXwXwXwXwXwXwXwXwXwXwXwXwXwXwXwXwX",
"wXwXwXwXwXwXwXwXwXwXwXwXwXwXwXwXwXwXwXwXwXwXwXwXwXwXwXwXwXwXwXwXwXwXwXwXwXwXwXwXwXwXwXwXwXwXwXwXwXwXwXwXwXwXwXwXwXwXwXwX",
"wXwXwXwXwXwXwXwXwXwXwXwXwXwXwXwXwXwXwXwXwXwXwXwXwXwXwXwXwXwXwXwXwXwXwXwXwXwXwXwXwXwXwXwXwXwXwXwXwXwXwXwXwXwXwXwXwXwXwXwX"
};
