/* XPM */
static char *result[] = {
/* columns rows colors chars-per-pixel */
"60 60 236 2 ",
"   c #0E1518",
".  c #141717",
"X  c #0E100F",
"o  c #161D22",
"O  c #1D2227",
"+  c #26272A",
"@  c #292D35",
"#  c #2F3235",
"$  c #353533",
"%  c #413B28",
"&  c #775C11",
"*  c #795E13",
"=  c #775E1A",
"-  c #725B14",
";  c #76620D",
":  c #7B630E",
">  c #7C6A0E",
",  c #756412",
"<  c #7B6212",
"1  c #73651B",
"2  c #7C611C",
"3  c #7B6914",
"4  c #6D601B",
"5  c #574A23",
"6  c #4B4226",
"7  c #655623",
"8  c #7A5E39",
"9  c #736629",
"0  c #7A6724",
"q  c #6D683E",
"w  c #726A3C",
"e  c #776937",
"r  c #7B723B",
"t  c #7B7236",
"y  c #75692E",
"u  c #393C46",
"i  c #3E4043",
"p  c #414348",
"a  c #454A56",
"s  c #765D46",
"d  c #6C6943",
"f  c #6F6F4C",
"g  c #726D4B",
"h  c #726B42",
"j  c #75714C",
"k  c #797243",
"l  c #76765C",
"z  c #515769",
"x  c #5A6474",
"c  c #767569",
"v  c #7E7A74",
"b  c #6B6C6E",
"n  c #82650E",
"m  c #856A0E",
"M  c #8B6C0E",
"N  c #94730F",
"B  c #816513",
"V  c #856B12",
"C  c #8B6D12",
"Z  c #81641B",
"A  c #846B1D",
"S  c #896E1D",
"D  c #8D7214",
"F  c #8D7419",
"G  c #8F791A",
"H  c #937413",
"J  c #957915",
"K  c #9B7B14",
"L  c #957B1A",
"P  c #997917",
"I  c #8E6F0F",
"U  c #A17F13",
"Y  c #A07F1A",
"T  c #896C23",
"R  c #83672D",
"E  c #836626",
"W  c #8A7827",
"Q  c #927B26",
"!  c #866936",
"~  c #8C7D34",
"^  c #847938",
"/  c #947833",
"(  c #867B44",
")  c #80765C",
"_  c #827E77",
"`  c #7F837D",
"'  c #9C8116",
"]  c #9E8219",
"[  c #AD8A0D",
"{  c #AA860E",
"}  c #B18E0C",
"|  c #B5920C",
" . c #B9960C",
".. c #BD9A0D",
"X. c #A58314",
"o. c #A98613",
"O. c #AC8A13",
"+. c #A2831B",
"@. c #AB8A1B",
"#. c #A7881A",
"$. c #B18E11",
"%. c #B28E1A",
"&. c #B59212",
"*. c #B99612",
"=. c #BD9B13",
"-. c #B4921B",
";. c #BD9A1B",
":. c #BA961C",
">. c #AF9018",
",. c #9B862B",
"<. c #948233",
"1. c #9A8532",
"2. c #9C8738",
"3. c #8F8136",
"4. c #A48422",
"5. c #A78927",
"6. c #B1962E",
"7. c #BB9B2D",
"8. c #B79A2F",
"9. c #A48D31",
"0. c #A38C3B",
"q. c #A88F37",
"w. c #AC9232",
"e. c #AB933C",
"r. c #B29632",
"t. c #BB9C32",
"y. c #BB9D3C",
"u. c #B49839",
"i. c #AE922E",
"p. c #BFA038",
"a. c #C39D0E",
"s. c #C29E14",
"d. c #C19F1C",
"f. c #CBA314",
"g. c #CBA41A",
"h. c #C6A119",
"j. c #D2AA1C",
"k. c #C29E24",
"l. c #C09F35",
"z. c #C3A12D",
"x. c #CAA529",
"c. c #D5AD28",
"v. c #CEA934",
"b. c #C7A437",
"n. c #D4AD38",
"m. c #DCB333",
"M. c #DAB33B",
"N. c #D7B13D",
"B. c #E9BD35",
"V. c #E4BA38",
"C. c #F6C936",
"Z. c #F6C939",
"A. c #FCD439",
"S. c #FCDC3C",
"D. c #FCD337",
"F. c #EDC13B",
"G. c #FCE33E",
"H. c #FBE93F",
"J. c #988844",
"K. c #8D8147",
"L. c #A99243",
"P. c #BB9E43",
"I. c #B29842",
"U. c #A59255",
"Y. c #BDA044",
"T. c #BDA351",
"R. c #918D72",
"E. c #B6A76A",
"W. c #C3A342",
"Q. c #CAA944",
"!. c #D1AD42",
"~. c #DBB444",
"^. c #D8B64A",
"/. c #DAB653",
"(. c #CDB247",
"). c #E4BC4E",
"_. c #E5BB45",
"`. c #E5BE54",
"'. c #CCB56D",
"]. c #D7C847",
"[. c #D5CB59",
"{. c #ECC34D",
"}. c #EFC347",
"|. c #F5CA4B",
" X c #F6C946",
".X c #FEDC42",
"XX c #FBD44A",
"oX c #FDDB4B",
"OX c #FCD343",
"+X c #EAC253",
"@X c #F4CB56",
"#X c #FCD852",
"$X c #FDE443",
"%X c #FDED44",
"&X c #FDE44A",
"*X c #FCEB4A",
"=X c #FDF345",
"-X c #FDF349",
";X c #FEFB4B",
":X c #FEF946",
">X c #FFFB57",
",X c #FFFD64",
"<X c #FEF278",
"1X c #D6CF66",
"2X c #7B7E84",
"3X c #6F7592",
"4X c #5F6681",
"5X c #7889A6",
"6X c #83858B",
"7X c #88888A",
"8X c #878B96",
"9X c #949598",
"0X c #BCB48D",
"qX c #8695AE",
"wX c #AEB0B6",
"eX c #9BA5AF",
"rX c #FBF58B",
"tX c #D4CDB0",
"yX c #FEFAB7",
"uX c #F6E7B4",
"iX c #E3CD8E",
"pX c #97ABD0",
"aX c #AFB8CB",
"sX c #849CC2",
"dX c #B4C6EA",
"fX c #D6D6D0",
"gX c #FFFFC8",
"hX c #FDF7D1",
"jX c #CFD9EF",
"kX c #D5E1F5",
"lX c #E5E7E9",
"zX c #FFFFFF",
"xX c #FAFAF6",
"cX c #ECF4F7",
"vX c #E3DDC7",
"bX c None",
/* pixels */
"bXbXbXbXbXbXbXbXbXbXbXbXbXbXbXbXbXbXbXbXbXbXbXbXbXbXbXbXbXbXbXbXbXbXbXbXbXbXbXbXbXbXbXbXbXbXbXbXbXbXbXbXbXbXbXbXbXbXbXbX",
"bXbXbXbXbXbXbXbXbXbXbXbXbXbXbXbXbXbXbXbXbXbXbXbXbXbXbXbXbXbXbXbXbXbXbXbXbXbXbXbXbXbXbXbXbXbXbXbXbXbXbXbXbXbXbXbXbXbXbXbX",
"bXbXbXbXbXbXbXbXbXbXbXbXbXbXbXbXbXbXbXbXbXbXbXbXbXbXbXbXbXbXbXbXbXbXbXbXbXbXbXbXbXbXbXbXbXbXbXbXbXbXbXbXbXbXbXbXbXbXbXbX",
"bXbXbXbXbXbXbXbXbXbXbXbXbXbXbXbXbXbXbXbXbXbXbXbXbXbXbXbXbXbXbXbXbXbXbXbXbXbXbXbXbXbXbXbXbXbXbXbXbXbXbXbXbXbXbXbXbXbXbXbX",
"bXbXbXbXbXbXbXbXbXbXbXbXbXbXbXbXbXbXbXbXbXbXbXbXbXbXbXbXbXbXbXbXbXbXbXbXbXbXbXbXbXbXbXbXbXbXbXbXbXbXbXbXbXbXbXbXbXbXbXbX",
"bXbXbXbXbXbXbXbXbXbXbXbXbXbXbXbXbXbXbXbXbXbXbXbXbXbXbX).).T./.).(.bXbXbXbXbXbXbXbXbXbXbXbXbXbXbXbXbXbXbXbXbXbXbXbXbXbXbX",
"bXbXbXbXbXbXbXbXbXbXbXbXbXbXbXbXbXbXbXbXbXbXbX|.|. X X XV.Y.^. XN.n.W.Y.Y.bXbXbXbXbXbXbXbXbXbXbXbXbXbXbXbXbXbXbXbXbXbXbX",
"bXbXbXbXbXbXbXbXbXbXbXbXbXbXbXbXbXbXbXbXbX#XoX.XA.A.Z.Z.m.u.~.C.m.b.b.p.y.Y.Y.bXbXbXbXbXbXbXbXbXbXbXbXbXbXbXbXbXbXbXbXbX",
"bXbXbXbXbXbXbXbXbXbXbXbXbXbXbXbXbXbXbXoX&X$XS.S.A.A.D.C.m.t.~.S.V.v.z.p.8.e.e.e.L.bXbXbXbXbXbXbXbXbXbXbXbXbXbXbXbXbXbXbX",
"bXbXbXbXbXbXbXbXbXbXbXbXbXbXbXbXbX#X&X$X$X$XG.G.G.S.S.C.m.t.].S.C.n.z.z.8.6.w.q.0.L.L.bXbXbXbXbXbXbXbXbXbXbXbXbXbXbXbXbX",
"bXbXbXbXbXbXbXbXbXbXbXbXbXbXbXbX#X*X%XH.%XH.=X%X%XG.S.Z.V.7.].G.C.m.v.z.8.6.w.9.9.2.J.J.bXbXbXbXbXbXbXbXbXbXbXbXbXbXbXbX",
"bXbXbXbXbXbXbXbXbXbXbXbXbXbXbXoX&X*X=X=X=X=X=X=X%XH.G.C.m.7.].H.A.V.x.z.l.6.w.9.1.2.2.2.J.bXbXbXbXbXbXbXbXbXbXbXbXbXbXbX",
"bXbXbXbXbXbXbXbXbXbXbXbXbXbX#X&X*X=X=X:X;X;X;X;X=XH.G.C.m.7.].H.D.m.x.z.7.6.i.9.9.1.3.3.3.K.bXbXbXbXbXbXbXbXbXbXbXbXbXbX",
"bXbXbXbXbXbXbXbXbXbXbXbXbX#X&X&X*X=X:X;X;X,X,X,X;X=XS.C.m.7.[.=XD.B.x.z.7.6.9.9.,.1.<.3.3.3.K.bXbXbXbXbXbXbXbXbXbXbXbXbX",
"bXbXbXbXbXbXbXbXbXbXbXbX#XoX&X*X-X-X;X;X<XgXgXrX>X*XS.C.m.7.[.-XD.B.x.z.7.6.i.9.,.<.<.3.^ ^ 3.K.bXbXbXbXbXbXbXbXbXbXbXbX",
"bXbXbXbXbXbXbXbXbXbXbX@X#XoX&X*X=X;X;X,XyXzXzXyX,X-XS.F.m.t.1X-XS.F.v.z.8.6.9.9.,.,.<.3.3.^ r K.( bXbXbXbXbXbXbXbXbXbXbX",
"bXbXbXbXbXbXbXbXbXbXbX|.XXoX&X*X-X-X;X>XrXzXzXyX,X$XS.F.v.8.[.*XZ.B.v.l.6.6.9.,.,.Q W ~ W t t ( k bXbXbXbXbXbXbXbXbXbXbX",
"bXbXbXbXbXbXbXbXbXbX@X#XXXoX&X*X*X-XrXyXhXzXxXrX&X.XA.F.v.6.[.$XZ.V.v.l.6.5.E.tXvXvX0XK.3.t t ^ ( j bXbXbXbXbXbXbXbXbXbX",
"bXbXbXbXbXbXbXbXbXbX@XXXXXOXoX$X*XyXzXzXzXzXcXjX'.S.Z.V.v.r.^.G.Z.V.b.u.9.tXzXzXxXxXzXkXR.t r t k f bXbXbXbXbXbXbXbXbXbX",
"bXbXbXbXbXbXbXbXbX+X@X}.XXoXXXS.yXzXxXwX7X8XdXkXaX/.Z.M.b.w.(..XZ.M.b.5.0XzXzXfX9X5XeXkXdXR.t r h f f bXbXbXbXbXbXbXbXbX",
"bXbXbXbXbXbXbXbXbX`.@X{.|.XXOX<XzXcX6Xa a 3Xu pXaXR.B.M.b.e.(.OXB.~.l.0.fXzXfXx $ z z x dX5Xt w d d f bXbXbXbXbXbXbXbXbX",
"bXbXbXbXbXbXbXbXbX+X+X{.|.|.OXuXxXwXu u a 3XO a pX7XN.!.P.0.(.Z._.!.l.L.cXzXb u # z 4Xo 5XsXl w q d j bXbXbXbXbXbXbXbXbX",
"bXbXbXbXbXbXbXbX/.`.`.{.|. X XhXzX2X@ # + O o @ 5X5Xb.Q.P.q.W.}.~.b.l.( lXcXp # # + o   z 5Xv w d d j j bXbXbXbXbXbXbXbX",
"bXbXbXbXbXbXbXbX/.`.).).`.}.}.uXcX8Xo O O .   # 8Xl l.Q.u.J.W.}.~.Q.P.( fXlXp o O o o   x qXc q d f j j bXbXbXbXbXbXbXbX",
"bXbXbXbXbXbXbXbX/./.).).).`.}.iXjXaX$ . . X   b 8Xf W.W.I.0.P.).(.W.I./ 9XkX2X. . . X # 5X7Xf q d d g j bXbXbXbXbXbXbXbX",
"bXbXbXbXbXbXbXbX!././.^.).).).`.wXaX8Xu + $ x 8Xc k Y.P.L.2.P.~.Q.Y.I.0.^ eXaXb $ + p 2X9X` q q d h k j bXbXbXbXbXbXbXbX",
"bXbXbXbXbXbXbXbX!.(.^.^.).)._.).'.9X8X7X7X7X5Xl h J.Y.P.L.0.I.~.W.P.e.q./ g 6X9X7X2X7X7XR.q y q e e h k bXbXbXbXbXbXbXbX",
"bXbXbXbXbXbXbXbXn.Q.!.!.~.~.~.~.V.U._ _ _ c f t ( J.l.I.0./ e.!.b.y.e.2.9.T 7 b _ _ _ l 9 4 9 9 9 9 e w bXbXbXbXbXbXbXbX",
"bXbXbXbXbXbXbXbXv.v.v.n.n.n.n.m.M.M.q.! t 0 3.3.~ w.7.w.9.Q w.n.l.6.q.,.' <.D 4 7 7 9 , 4 1 9 9 9 0 9 t bXbXbXbXbXbXbXbX",
"bXbXbXbXbXbXbXbXv.z.x.v.c.c.c.c.c.c.c.l.,.Q ' W 5.x.:.@.Y L i.k.7.6.9.,.G G ' F : ; , , 1 1 , 4 1 1 0 t bXbXbXbXbXbXbXbX",
"bXbXbXbXbXbXbXbXx.x.x.x.x.g.j.j.j.j.j.j.f.;.>.*.h.=.-.#.K P 5.x.;.>.,.' ' G G D m , ; , , 4 , 1 , 1 0 0 bXbXbXbXbXbXbXbX",
"bXbXbXbXbXbXbXbXx.x.h.g.g.g.j.j.f.f.j.f.f.f.h.s.=.*.&.#.] H @.s.*.>.] ' ' F G D V , , , , , , , 1 , 3 0 bXbXbXbXbXbXbXbX",
"bXbXbXbXbXbXbXbXx.k.h.h.h.h.h.f.a.a.f.f.a.a.a.| a.| [ Y K D #.h.| O.] ' J J D I > > , , , , , , , , 3 0 bXbXbXbXbXbXbXbX",
"bXbXbXbXbXbXbXbXx.d.;.h.h.h.f.a.a.a.a.a.a.a.| a.} } %.U J F X.h.| >.] ' J D D m > > ; , , , ; , , , 1 T bXbXbXbXbXbXbXbX",
"bXbXbXbXbXbXbXbXz.;.d.s.s.a.....a. .a.a.a.| | | } } o.Y L F X.s.| O.] ] J G D m > ; , , , , , ; , , , A bXbXbXbXbXbXbXbX",
"bXbXbXbXbXbXbXbXk.=.=.=.s.a.a...a.a.| a.| | } [ $.} #.K G F X. .$.>.] L J G D m > ; ; , ; ; , ; , , , A bXbXbXbXbXbXbXbX",
"bXbXbXbXbXbXbXbXk.;.=.*.*... . .a.| a.} } | } $.O.O.+.K F S X. .$.#.' J G F F m ; ; ; ; ; ; ; ; ; , < A bXbXbXbXbXbXbXbX",
"bXbXbXbXbXbXbXbXd.*.*.*. . . . .| | } } [ | U %.O.#.+.J F C U  .O.O.' J F F D n > ; ; ; ; ; ; ; , , , A bXbXbXbXbXbXbXbX",
"bXbXbXbXbXbXbXbX7.&.*.| *. .| | a.} } a.U $.%.Y #.@.K J F V U  .O.#.' J H F V n ; ; ; ; ; ; ; ; ; < < A bXbXbXbXbXbXbXbX",
"bXbXbXbXbXbXbXbX;.&.*.&.&.| | } U a.U U %.U Y i.4.4.P H C V K | O.#.' D F D V : ; ; ; ; ; ; ; ; < : < A bXbXbXbXbXbXbXbX",
"bXbXbXbXbXbXbXbX:.&.&.&.} &.} } [ [ [ [ U Y Y / 5.+.K D C V K } @.X.J H F C V , ; ; ; ; ; & : : * : : A bXbXbXbXbXbXbXbX",
"bXbXbXbXbXbXbXbX:.>.$.&.} } [ [ [ } { U Y 5.Y Y 4.K H D C n K $.#.+.K H C C V < ; ; < : : : * : : * B S bXbXbXbXbXbXbXbX",
"bXbXbXbXbXbXbXbX-.$.$.$.$.} [ { U U U U Y T Y Y P K H D V n P } @.+.K D C C B < , : : * : : : * : B * S bXbXbXbXbXbXbXbX",
"bXbXbXbXbXbXbXbX-.$.O.O.O.[ { { U % 7 % 5 5 7 5 P P H C m < H $.4.K J D C V < < , , < : : * * : * < B T bXbXbXbXbXbXbXbX",
"bXbXbXbXbXbXbXbX%.$.$.o.o.[ o.{ C % % = 7 5 % % A P I C n : N $.4.K J F C m < * 2 < * * * : < < * B < T bXbXbXbXbXbXbXbX",
"bXbXbXbXbXbXbXbX%.o.O.$.o.{ X.X.U 7 I P C C 5 = H H I V n * H %.@.K H M C m < = 2 Z * B < * B < B * Z S bXbXbXbXbXbXbXbX",
"bXbXbXbXbXbXbXbX%.X.Y o.o.o.X.U U U U P N I H H N N C M n & N @.+.K H C V n * Z 0 B * * * B B B < Z Z T bXbXbXbXbXbXbXbX",
"bXbXbXbXbXbXbXbX%.T bXbXo.O.U U U U N N I M M M N H C M C * H @.+.N H C n B & = E = Z * Z Z Z 0 E < Z T bXbXbXbXbXbXbXbX",
"bXbXbXbXbXbXbXbX@.! bXbXbXo.U U K N N N M M M M I C C B n & H 5.Y P I C C * & = R 2 2 B bXbXbXbXe Z E T bXbXbXbXbXbXbXbX",
"bXbXbXbXbXbXbXbX5.8 bXbXbXY o.U U N N M n M M I bXbXbXbXbXbXbX4.Y P M C n * & Z R E Z 2 bXbXbXbXs R E T bXbXbXbXbXbXbXbX",
"bXbXbXbXbXbXbXbX/ s bXbXbXbXU K N N N M n M M B bXbXbXbXbXbXbXbXK K I M n * & = R R E bXbXbXbXbXbX! ! T bXbXbXbXbXbXbXbX",
"bXbXbXbXbXbXbXbXbXbXbXbXbXbXK U K N M M n M B bXbXbXbXbXbXbXbXbXbXN I M n & * * R ! bXbXbXbXbXbXbXs ! bXbXbXbXbXbXbXbXbX",
"bXbXbXbXbXbXbXbXbXbXbXbXbXbXbXY P H M n n * bXbXbXbXbXbXbXbXbXbXbXbXM m n & & & R ! bXbXbXbXbXbXbXbXbXbXbXbXbXbXbXbXbXbX",
"bXbXbXbXbXbXbXbXbXbXbXbXbXbXbXbXP C M M n bXbXbXbXbXbXbXbXbXbXbXbXbXbXM n & & B E bXbXbXbXbXbXbXbXbXbXbXbXbXbXbXbXbXbXbX",
"bXbXbXbXbXbXbXbXbXbXbXbXbXbXbXbXbXbXbXbXbXbXbXbXbXbXbXbXbXbXbXbXbXbXbXZ B & & bXbXbXbXbXbXbXbXbXbXbXbXbXbXbXbXbXbXbXbXbX",
"bXbXbXbXbXbXbXbXbXbXbXbXbXbXbXbXbXbXbXbXbXbXbXbXbXbXbXbXbXbXbXbXbXbXbXbXbXbXbXbXbXbXbXbXbXbXbXbXbXbXbXbXbXbXbXbXbXbXbXbX",
"bXbXbXbXbXbXbXbXbXbXbXbXbXbXbXbXbXbXbXbXbXbXbXbXbXbXbXbXbXbXbXbXbXbXbXbXbXbXbXbXbXbXbXbXbXbXbXbXbXbXbXbXbXbXbXbXbXbXbXbX",
"bXbXbXbXbXbXbXbXbXbXbXbXbXbXbXbXbXbXbXbXbXbXbXbXbXbXbXbXbXbXbXbXbXbXbXbXbXbXbXbXbXbXbXbXbXbXbXbXbXbXbXbXbXbXbXbXbXbXbXbX",
"bXbXbXbXbXbXbXbXbXbXbXbXbXbXbXbXbXbXbXbXbXbXbXbXbXbXbXbXbXbXbXbXbXbXbXbXbXbXbXbXbXbXbXbXbXbXbXbXbXbXbXbXbXbXbXbXbXbXbXbX",
"bXbXbXbXbXbXbXbXbXbXbXbXbXbXbXbXbXbXbXbXbXbXbXbXbXbXbXbXbXbXbXbXbXbXbXbXbXbXbXbXbXbXbXbXbXbXbXbXbXbXbXbXbXbXbXbXbXbXbXbX"
};
