/* XPM */
static char *result[] = {
/* columns rows colors chars-per-pixel */
"60 60 219 2 ",
"   c #191B1C",
".  c #171A1C",
"X  c #1A1E23",
"o  c #1D2126",
"O  c #232529",
"+  c #292D35",
"@  c #2F343C",
"#  c #343437",
"$  c #4B432D",
"%  c #564C2E",
"&  c #5C502E",
"*  c #685A2D",
"=  c #745E25",
"-  c #765F29",
";  c #6C6128",
":  c #756325",
">  c #7A6426",
",  c #7C6A26",
"<  c #73642A",
"1  c #7A642B",
"2  c #7E6B29",
"3  c #776927",
"4  c #6F6635",
"5  c #726632",
"6  c #7C6533",
"7  c #7C6E3A",
"8  c #77683A",
"9  c #7F7037",
"0  c #3A3D44",
"q  c #2F3441",
"w  c #3E4045",
"e  c #45464B",
"r  c #484B55",
"t  c #6D6946",
"y  c #6D6A4B",
"u  c #696246",
"i  c #736C44",
"p  c #736D4B",
"a  c #7A6547",
"s  c #7B7343",
"d  c #7A754E",
"f  c #726F51",
"g  c #777456",
"h  c #6F7052",
"j  c #505868",
"k  c #576172",
"l  c #64656B",
"z  c #736F64",
"x  c #7A766B",
"c  c #646978",
"v  c #6F7179",
"b  c #836B26",
"n  c #896F27",
"m  c #846D29",
"M  c #866C28",
"N  c #85712A",
"B  c #8B732B",
"V  c #8E792E",
"C  c #91762C",
"Z  c #947B2D",
"A  c #9A7E2D",
"S  c #826B36",
"D  c #857238",
"F  c #8B733B",
"G  c #887839",
"H  c #937C32",
"J  c #997E32",
"K  c #917F3A",
"L  c #836C43",
"P  c #847A43",
"I  c #8B7D42",
"U  c #827947",
"Y  c #847E55",
"T  c #827D6B",
"R  c #9D802F",
"E  c #8F813F",
"W  c #958132",
"Q  c #9C8333",
"!  c #94833E",
"~  c #9E853A",
"^  c #A2852F",
"/  c #A28533",
"(  c #A58A34",
")  c #AA8D33",
"_  c #A1863A",
"`  c #A58C38",
"'  c #AE9134",
"]  c #AB923C",
"[  c #B29535",
"{  c #B69935",
"}  c #BB9D36",
"|  c #B29639",
" . c #B6993B",
".. c #BA9D3A",
"X. c #BDA03A",
"o. c #BEA037",
"O. c #C3A33A",
"+. c #CAA93E",
"@. c #C4A338",
"#. c #8D8147",
"$. c #958442",
"%. c #9C8A42",
"&. c #9C8B4C",
"*. c #938549",
"=. c #948756",
"-. c #A28E43",
";. c #A28E4B",
":. c #AA9444",
">. c #A6914C",
",. c #AB954C",
"<. c #AC9647",
"1. c #B39B45",
"2. c #B99E45",
"3. c #B49C4B",
"4. c #B99E4D",
"5. c #A89553",
"6. c #B59D51",
"7. c #B99F53",
"8. c #BEA141",
"9. c #BBA14B",
"0. c #B6A14E",
"q. c #BCA253",
"w. c #B6A059",
"e. c #8F886B",
"r. c #A99E73",
"t. c #B5A770",
"y. c #C4A544",
"u. c #CCAB44",
"i. c #C2A549",
"p. c #C6A94D",
"a. c #CCAD4D",
"s. c #D3B24E",
"d. c #C3A653",
"f. c #C6A953",
"g. c #CAAD54",
"h. c #C8AD59",
"j. c #CEB15A",
"k. c #D3B354",
"l. c #D3B45C",
"z. c #DBBA5D",
"x. c #DCB954",
"c. c #D0AF49",
"v. c #E2BE56",
"b. c #D4B661",
"n. c #DBBC62",
"m. c #D9BB67",
"M. c #E0BF62",
"N. c #EBC556",
"B. c #EEC956",
"V. c #ECC95D",
"C. c #E6C25A",
"Z. c #F1CA57",
"A. c #F4CD5A",
"S. c #F9D45C",
"D. c #FBDC5E",
"F. c #F7D25E",
"G. c #ECD25D",
"H. c #E4C263",
"J. c #EAC966",
"K. c #F1CD63",
"L. c #F2CE68",
"P. c #ECDB65",
"I. c #F9D665",
"U. c #FBDD64",
"Y. c #FBDA6A",
"T. c #F6D269",
"R. c #F3D477",
"E. c #EEE368",
"W. c #FBE363",
"Q. c #FCEB65",
"!. c #FCED69",
"~. c #FCE668",
"^. c #FDF36A",
"/. c #FEFA6C",
"(. c #FDF166",
"). c #EFE674",
"_. c #FDEB79",
"`. c #FFFC73",
"'. c #FFFB79",
"]. c #717688",
"[. c #807F80",
"{. c #7B879C",
"}. c #7E8385",
"|. c #848486",
" X c #84868C",
".X c #888A8C",
"XX c #888B92",
"oX c #899196",
"OX c #A59E87",
"+X c #8D98AE",
"@X c #A9ACB5",
"#X c #AFB1B7",
"$X c #BDBDB8",
"%X c #A5A8AC",
"&X c #B5AE90",
"*X c #C6BB91",
"=X c #DECA82",
"-X c #F5D782",
";X c #FEF885",
":X c #FFFD9A",
">X c #C4C2B6",
",X c #FEFBA8",
"<X c #9CA6C0",
"1X c #B8BDC8",
"2X c #AAB8D7",
"3X c #DCDDDA",
"4X c #CACCCE",
"5X c #E1DED0",
"6X c #FEFAC5",
"7X c #FEFAD8",
"8X c #D2DCF6",
"9X c #CBD4E3",
"0X c #EAEAEA",
"qX c #FEFEED",
"wX c #FFFCE6",
"eX c #FEFEFE",
"rX c #F8F9F5",
"tX c #E8EDF3",
"yX c None",
/* pixels */
"yXyXyXyXyXyXyXyXyXyXyXyXyXyXyXyXyXyXyXyXyXyXyXyXyXyXyXyXyXyXyXyXyXyXyXyXyXyXyXyXyXyXyXyXyXyXyXyXyXyXyXyXyXyXyXyXyXyXyXyX",
"yXyXyXyXyXyXyXyXyXyXyXyXyXyXyXyXyXyXyXyXyXyXyXyXyXyXyXyXyXyXyXyXyXyXyXyXyXyXyXyXyXyXyXyXyXyXyXyXyXyXyXyXyXyXyXyXyXyXyXyX",
"yXyXyXyXyXyXyXyXyXyXyXyXyXyXyXyXyXyXyXyXyXyXyXyXyXyXyXyXyXyXyXyXyXyXyXyXyXyXyXyXyXyXyXyXyXyXyXyXyXyXyXyXyXyXyXyXyXyXyXyX",
"yXyXyXyXyXyXyXyXyXyXyXyXyXyXyXyXyXyXyXyXyXyXyXyXyXyXyXyXyXyXyXyXyXyXyXyXyXyXyXyXyXyXyXyXyXyXyXyXyXyXyXyXyXyXyXyXyXyXyXyX",
"yXyXyXyXyXyXyXyXyXyXyXyXyXyXyXyXyXyXyXyXyXyXyXyXyXyXyXyXyXyXyXyXyXyXyXyXyXyXyXyXyXyXyXyXyXyXyXyXyXyXyXyXyXyXyXyXyXyXyXyX",
"yXyXyXyXyXyXyXyXyXyXyXyXyXyXyXyXyXyXyXyXyXyXyXyXyXyXyXm.n.h.m.b.yXyXyXyXyXyXyXyXyXyXyXyXyXyXyXyXyXyXyXyXyXyXyXyXyXyXyXyX",
"yXyXyXyXyXyXyXyXyXyXyXyXyXyXyXyXyXyXyXyXyXyXyXL.K.V.N.C.k.6.H.x.f.9.0.w.w.yXyXyXyXyXyXyXyXyXyXyXyXyXyXyXyXyXyXyXyXyXyXyX",
"yXyXyXyXyXyXyXyXyXyXyXyXyXyXyXyXyXyXyXyXyXY.I.S.S.S.A.C.s.4.V.N.s.i.9.3.3.,.5.yXyXyXyXyXyXyXyXyXyXyXyXyXyXyXyXyXyXyXyXyX",
"yXyXyXyXyXyXyXyXyXyXyXyXyXyXyXyXyXyXyXU.U.D.U.D.D.S.S.N.s.2.G.A.x.y.9.9.<.:.>.>.5.yXyXyXyXyXyXyXyXyXyXyXyXyXyXyXyXyXyXyX",
"yXyXyXyXyXyXyXyXyXyXyXyXyXyXyXyXyXY.U.W.W.Q.Q.Q.W.W.D.Z.s.9.P.S.C.y.8.9.1.:.-.-.&.&.yXyXyXyXyXyXyXyXyXyXyXyXyXyXyXyXyXyX",
"yXyXyXyXyXyXyXyXyXyXyXyXyXyXyXyXY.~.Q.Q.(.(.(.(.Q.Q.D.Z.s.9.P.D.N.a.9.0.1.:.-.%.%.*.*.&.yXyXyXyXyXyXyXyXyXyXyXyXyXyXyXyX",
"yXyXyXyXyXyXyXyXyXyXyXyXyXyXyXY.Y.~.(.^.^./././.(.Q.D.Z.s.9.E.D.B.s.8.8.1.:.-.%.%.$.*.*.=.yXyXyXyXyXyXyXyXyXyXyXyXyXyXyX",
"yXyXyXyXyXyXyXyXyXyXyXyXyXyXT.Y.~.!.^./././.`.`./.(.W.N.s.9.E.W.A.c.y.8.<.:.-.-.$.E #.#.#.yXyXyXyXyXyXyXyXyXyXyXyXyXyXyX",
"yXyXyXyXyXyXyXyXyXyXyXyXyXT.Y.~.!.^././.`.:X,X;X`.(.D.N.s.9.E.W.A.s.y.9.1.:.] %.! $.E E #.#.yXyXyXyXyXyXyXyXyXyXyXyXyXyX",
"yXyXyXyXyXyXyXyXyXyXyXyXR.I.Y.~.(.^./.`.:XwXqX,X'.!.D.N.a.0.).Q.Z.s.9.8.<.] -.! $.E G P P U #.yXyXyXyXyXyXyXyXyXyXyXyXyX",
"yXyXyXyXyXyXyXyXyXyXyXyXT.I.W.~.(.^./.'.,XqXeX7X;X!.D.N.a.0.).D.G.s.8.0.<.:.-.%.E E #.G P U d Y yXyXyXyXyXyXyXyXyXyXyXyX",
"yXyXyXyXyXyXyXyXyXyXyXJ.T.I.U.~.!.!._.:X6XqXqX,X_.W.F.C.y.3.E.D.N.s.9.1.:.>.t.*X*Xr.*.P 9 d s d yXyXyXyXyXyXyXyXyXyXyXyX",
"yXyXyXyXyXyXyXyXyXyXyXJ.K.I.Y.W.!.;X7XrXeXeXrX3X=XI.F.x.p.3.P.F.N.s.9.<.r.5XrXrXeXtX4Xe.s s s h h yXyXyXyXyXyXyXyXyXyXyX",
"yXyXyXyXyXyXyXyXyXyXJ.J.K.I.U.Y.-X7XeX3X@X%X9X8X1Xm.C.k.9.<.J.F.C.g.2.>.5XeXrX4X%X1X8X1XY s s y y yXyXyXyXyXyXyXyXyXyXyX",
"yXyXyXyXyXyXyXyXyXyXH.H.J.I.I.Y.6XeX$Xv e ].j <X2Xr.z.k.9.,.V.V.x.g.,.&XeX0X.Xr r k ].2XoXs i t y g yXyXyXyXyXyXyXyXyXyX",
"yXyXyXyXyXyXyXyXyXyXm.J.J.K.I.Y.wX0Xl e 0 ].q j <X.Xk.g.0.>.M.C.k.d.<.>XeX#Xe w r c + {.{.z t t y g yXyXyXyXyXyXyXyXyXyX",
"yXyXyXyXyXyXyXyXyXm.m.M.H.J.V.-XwX4Xe @ + o X @ {.}.p.f.6.>.z.C.l.q.>.$XeX X# + + o o k {.x t t y h yXyXyXyXyXyXyXyXyXyX",
"yXyXyXyXyXyXyXyXyXb.m.m.H.H.H.R.0X4Xw O X X . 0 {.x q.q.,.;.l.z.h.7.&.OXtX XO O X . X c oXg y y p f yXyXyXyXyXyXyXyXyXyX",
"yXyXyXyXyXyXyXyXyXb.b.n.n.H.H.H.4X4Xv O X . o c }.h q.q.5.;.j.l.h.6.5.=.1X@X0   . . 0 }.}.h t y p f g yXyXyXyXyXyXyXyXyX",
"yXyXyXyXyXyXyXyXyXl.b.b.b.n.H.H.*X#X+Xl # # l  Xv U q.6.>.&.h.j.q.0.5.#.e.@X Xe # r }.XXx y t y p p g yXyXyXyXyXyXyXyXyX",
"yXyXyXyXyXyXyXyXyXg.h.l.l.z.z.z.M.r..X.X.X|.|.z i =.w.3.>.*.d.g.q.5.;.$.s v .X Xe.|.|.T 4 8 8 4 i p d yXyXyXyXyXyXyXyXyX",
"yXyXyXyXyXyXyXyXyXp.g.g.j.k.l.l.z.h.e.x x g y s #.&.0.,.-.I d.d.0.<.-.! E 8 u z x x d 4 4 4 4 4 5 8 s yXyXyXyXyXyXyXyXyX",
"yXyXyXyXyXyXyXyXyXp.p.p.a.s.s.s.s.x.p.&.I G G E E 1.1.] _ K 2.i.1.<.-.! W H 2 ; ; ; < ; < 5 ; 4 5 8 7 yXyXyXyXyXyXyXyXyX",
"yXyXyXyXyXyXyXyXyXi.y.y.u.u.u.u.u.u.c.u. .~ W ! ] X.| ` ~ H 1.y. .] ! W W W W , 5 < < < < < < < 5 5 9 yXyXyXyXyXyXyXyXyX",
"yXyXyXyXyXyXyXyXyXy.y.y.y.y.u.+.+.+.+.+.O.O.X.X...X.' ` Q V  ...[ ) Q W N W N , 3 ; < < ; < : < 3 5 7 yXyXyXyXyXyXyXyXyX",
"yXyXyXyXyXyXyXyXyX8.2.y.@.O.@.O.@.@.@.+.o.o.o.{ { [ ] Q H V | ..' ) W W W , B N 3 ; ; 3 : < : < < 3 7 yXyXyXyXyXyXyXyXyX",
"yXyXyXyXyXyXyXyXyX8.X.X.X.O.@.@.o.@.@.@.o.o.{ { { ' ) Q Z V [ } ' ) W W N W N , 3 3 : : ; : : < < 3 D yXyXyXyXyXyXyXyXyX",
"yXyXyXyXyXyXyXyXyX2.....o.o.o.o.} } @.} { { [ [ [ [ A A H N [ { ' _ Q Z V B N , 3 : : : : : : : < 3 D yXyXyXyXyXyXyXyXyX",
"yXyXyXyXyXyXyXyXyX..........o...} } } { [ [ [ [ A [ ) A Z N [ | ) _ W Z V B N 3 : : : : : : 3 ; : < 9 yXyXyXyXyXyXyXyXyX",
"yXyXyXyXyXyXyXyXyX . .{ { { { { { { { { [ [ A [ ) ) A A C D ' [ ) ( W V V N b , : 3 ; : : : ; 3 < > D yXyXyXyXyXyXyXyXyX",
"yXyXyXyXyXyXyXyXyX . .{ { { { { [ [ [ [ A [ [ A ( ( A A C N ) ' ) Q Z V V B 2 : : ; : : ; : : 3 : < D yXyXyXyXyXyXyXyXyX",
"yXyXyXyXyXyXyXyXyX| | [ { | { ' [ [ ' { ( ) ( ` ( J J B B M ) [ ` Q Z V B N 2 : : : : : : : : : : > D yXyXyXyXyXyXyXyXyX",
"yXyXyXyXyXyXyXyXyX| | [ ' { ' ' ' ) ) A J ) J _ J ` J C m m ` ' ( Q Z B N N , : : : : : : : : : < > D yXyXyXyXyXyXyXyXyX",
"yXyXyXyXyXyXyXyXyX' ' ' ' ' ' ' ) ) ) ' ( J -.J -.J J B N m / ) ( W Z B B m 3 : : : : : : : : : > > D yXyXyXyXyXyXyXyXyX",
"yXyXyXyXyXyXyXyXyX' ' ' ' ' ) ) ) ' A J ) J J J J J J C m m / ) Q Q V B N m > : : : : : : : : : : > F yXyXyXyXyXyXyXyXyX",
"yXyXyXyXyXyXyXyXyX] ) ' ) ) ) ( ( A J Z J S S J J J V N b b / ) _ A C N m b > - : : = > : : > > > > F yXyXyXyXyXyXyXyXyX",
"yXyXyXyXyXyXyXyXyX` ) ) ) ) ( ^ ^ * $ & & % & & N Z B n b > / ` Q A B n m 1 > < : = > : > = = > > b F yXyXyXyXyXyXyXyXyX",
"yXyXyXyXyXyXyXyXyX) ) ( ) ( ^ ^ J * $ b * * $ $ m C B m , > R ( Q Z B N m > - > : = > > : > > > 1 1 F yXyXyXyXyXyXyXyXyX",
"yXyXyXyXyXyXyXyXyX` / ) ^ ( ^ / A b M A B M * b C B n M > > ^ ` ~ Z B m m > < 1 > > > = = > = > 1 1 F yXyXyXyXyXyXyXyXyX",
"yXyXyXyXyXyXyXyXyX/ H _ ( ^ / A A A A C B n B B B n M b > > J _ A C N M 1 > - 6 1 - > > b > 1 > b 1 F yXyXyXyXyXyXyXyXyX",
"yXyXyXyXyXyXyXyXyX/ a yXyX( ^ J A A C C n n n B B B m b > > J _ J C N M b = - 6 1 1 > 1 yXyXa 1 - 1 F yXyXyXyXyXyXyXyXyX",
"yXyXyXyXyXyXyXyXyXJ a yXyXyXJ A A C C n n M M M B yXyXyXyXyX~ _ A B n b > = - 6 6 1 S yXyXyXyX8 6 S I yXyXyXyXyXyXyXyXyX",
"yXyXyXyXyXyXyXyXyXF L yXyXyX/ A A C C n b b M N yXyXyXyXyXyXyX_ Z C m b > = - 6 6 6 yXyXyXyXyXa 6 S F yXyXyXyXyXyXyXyXyX",
"yXyXyXyXyXyXyXyXyXL yXyXyXyXyXA J C B M b b b yXyXyXyXyXyXyXyXyXZ B b b = = = 6 S S yXyXyXyXyXyXa S yXyXyXyXyXyXyXyXyXyX",
"yXyXyXyXyXyXyXyXyXyXyXyXyXyXyXJ Z C M b b - yXyXyXyXyXyXyXyXyXyXyXB b b > = = 6 S yXyXyXyXyXyXyXyXyXyXyXyXyXyXyXyXyXyXyX",
"yXyXyXyXyXyXyXyXyXyXyXyXyXyXyXyXC C M b > S yXyXyXyXyXyXyXyXyXyXyXyXM > = = = - L yXyXyXyXyXyXyXyXyXyXyXyXyXyXyXyXyXyXyX",
"yXyXyXyXyXyXyXyXyXyXyXyXyXyXyXyXyXyXyXm 1 yXyXyXyXyXyXyXyXyXyXyXyXyXyX> - - 1 6 yXyXyXyXyXyXyXyXyXyXyXyXyXyXyXyXyXyXyXyX",
"yXyXyXyXyXyXyXyXyXyXyXyXyXyXyXyXyXyXyXyXyXyXyXyXyXyXyXyXyXyXyXyXyXyXyXyXyXyXyXyXyXyXyXyXyXyXyXyXyXyXyXyXyXyXyXyXyXyXyXyX",
"yXyXyXyXyXyXyXyXyXyXyXyXyXyXyXyXyXyXyXyXyXyXyXyXyXyXyXyXyXyXyXyXyXyXyXyXyXyXyXyXyXyXyXyXyXyXyXyXyXyXyXyXyXyXyXyXyXyXyXyX",
"yXyXyXyXyXyXyXyXyXyXyXyXyXyXyXyXyXyXyXyXyXyXyXyXyXyXyXyXyXyXyXyXyXyXyXyXyXyXyXyXyXyXyXyXyXyXyXyXyXyXyXyXyXyXyXyXyXyXyXyX",
"yXyXyXyXyXyXyXyXyXyXyXyXyXyXyXyXyXyXyXyXyXyXyXyXyXyXyXyXyXyXyXyXyXyXyXyXyXyXyXyXyXyXyXyXyXyXyXyXyXyXyXyXyXyXyXyXyXyXyXyX",
"yXyXyXyXyXyXyXyXyXyXyXyXyXyXyXyXyXyXyXyXyXyXyXyXyXyXyXyXyXyXyXyXyXyXyXyXyXyXyXyXyXyXyXyXyXyXyXyXyXyXyXyXyXyXyXyXyXyXyXyX",
"yXyXyXyXyXyXyXyXyXyXyXyXyXyXyXyXyXyXyXyXyXyXyXyXyXyXyXyXyXyXyXyXyXyXyXyXyXyXyXyXyXyXyXyXyXyXyXyXyXyXyXyXyXyXyXyXyXyXyXyX",
"yXyXyXyXyXyXyXyXyXyXyXyXyXyXyXyXyXyXyXyXyXyXyXyXyXyXyXyXyXyXyXyXyXyXyXyXyXyXyXyXyXyXyXyXyXyXyXyXyXyXyXyXyXyXyXyXyXyXyXyX",
"yXyXyXyXyXyXyXyXyXyXyXyXyXyXyXyXyXyXyXyXyXyXyXyXyXyXyXyXyXyXyXyXyXyXyXyXyXyXyXyXyXyXyXyXyXyXyXyXyXyXyXyXyXyXyXyXyXyXyXyX"
};
