/* XPM */
static char *result[] = {
/* columns rows colors chars-per-pixel */
"60 60 226 2 ",
"   c #05060D",
".  c #0B060D",
"X  c #0A0B0E",
"o  c #04090C",
"O  c #050511",
"+  c #0A0511",
"@  c #060A14",
"#  c #0C0B13",
"$  c #0D0B19",
"%  c #1B0711",
"&  c #110913",
"*  c #130D1B",
"=  c #1A0813",
"-  c #0D1419",
";  c #0D1617",
":  c #14121B",
">  c #19121F",
",  c #131A1C",
"<  c #1A1B1E",
"1  c #121317",
"2  c #1C0E0D",
"3  c #3C0F14",
"4  c #29191E",
"5  c #330D0F",
"6  c #20211F",
"7  c #180E21",
"8  c #170D20",
"9  c #161522",
"0  c #1B1422",
"q  c #161C22",
"w  c #1C1B23",
"e  c #1E1C2A",
"r  c #201623",
"t  c #231A26",
"y  c #221B29",
"u  c #331621",
"i  c #1F2025",
"p  c #232225",
"a  c #22232A",
"s  c #2B292A",
"d  c #382126",
"f  c #2C2C33",
"g  c #2A2B38",
"h  c #352B35",
"j  c #2D3237",
"k  c #333439",
"l  c #3A373A",
"z  c #531312",
"x  c #631B15",
"c  c #631D1B",
"v  c #691A16",
"b  c #721C14",
"n  c #651A0F",
"m  c #46281D",
"M  c #672017",
"N  c #542F2C",
"B  c #69382E",
"V  c #683436",
"C  c #783A39",
"Z  c #652221",
"A  c #58403C",
"S  c #6D463D",
"D  c #7C463F",
"F  c #724939",
"G  c #75452D",
"H  c #3B3947",
"J  c #4A3347",
"K  c #6D3A43",
"L  c #44494D",
"P  c #464959",
"I  c #555857",
"U  c #4F5550",
"Y  c #784947",
"T  c #6A5853",
"R  c #6C5848",
"E  c #5A6354",
"W  c #5E664D",
"Q  c #66725E",
"!  c #736252",
"~  c #565866",
"^  c #694A64",
"/  c #58676B",
"(  c #626763",
")  c #6C7B65",
"_  c #6A7466",
"`  c #717C6C",
"'  c #7F7169",
"]  c #757E71",
"[  c #943D33",
"{  c #AC3D2B",
"}  c #A1382F",
"|  c #BB3D26",
" . c #BE3F29",
".. c #B73A31",
"X. c #A83E33",
"o. c #834337",
"O. c #99493A",
"+. c #965539",
"@. c #AE422D",
"#. c #A44226",
"$. c #BB442D",
"%. c #BA4B2D",
"&. c #B3432B",
"*. c #AB4636",
"=. c #BB4431",
"-. c #BD4B35",
";. c #BC4C3B",
":. c #B44636",
">. c #B4553A",
",. c #A8513C",
"<. c #C2452C",
"1. c #CC4429",
"2. c #C44A2D",
"3. c #CB4A2D",
"4. c #C54926",
"5. c #D8492F",
"6. c #C44533",
"7. c #CA4534",
"8. c #C14B34",
"9. c #CA4B35",
"0. c #C44C3A",
"q. c #CB4D3B",
"w. c #D34C3B",
"e. c #D84B38",
"r. c #C6523C",
"t. c #CD533D",
"y. c #CA5538",
"u. c #D3553D",
"i. c #D8553C",
"p. c #CD693D",
"a. c #854A48",
"s. c #974B47",
"d. c #895748",
"f. c #97544A",
"g. c #8D5C59",
"h. c #BC4D4C",
"j. c #A95949",
"k. c #B95647",
"l. c #AF524E",
"z. c #896B5D",
"x. c #856756",
"c. c #8D766E",
"v. c #C84B41",
"b. c #DA4C43",
"n. c #C45343",
"m. c #CC5442",
"M. c #CD5943",
"N. c #CB5C45",
"B. c #D45543",
"V. c #DB5345",
"C. c #D45A43",
"Z. c #D95946",
"A. c #D45B49",
"S. c #DA5C4B",
"D. c #D7554C",
"F. c #C15756",
"G. c #DA5952",
"H. c #E55646",
"J. c #E04846",
"K. c #CD6848",
"L. c #D5614C",
"P. c #DB634C",
"I. c #D96246",
"U. c #C76156",
"Y. c #D56451",
"T. c #D86455",
"R. c #E1624A",
"E. c #E46756",
"W. c #D37B72",
"Q. c #E1706D",
"!. c #6B8469",
"~. c #798473",
"^. c #7A8777",
"/. c #848D7C",
"(. c #83877A",
"). c #86927F",
"_. c #968374",
"`. c #B18070",
"'. c #C1957C",
"]. c #DD8771",
"[. c #868E82",
"{. c #8B9485",
"}. c #8A9885",
"|. c #939B8C",
" X c #909A88",
".X c #959C91",
"XX c #B79E87",
"oX c #8CA48D",
"OX c #94A18B",
"+X c #99A38F",
"@X c #9BA593",
"#X c #9BAA97",
"$X c #9EB79A",
"%X c #A4AD9C",
"&X c #ABAE9D",
"*X c #A7AC96",
"=X c #A6B19D",
"-X c #ACB39E",
";X c #ADB99E",
":X c #A6B99A",
">X c #B1B39B",
",X c #BEA696",
"<X c #A6B2A1",
"1X c #ACB5A3",
"2X c #A6BDA4",
"3X c #AEB9A3",
"4X c #AEB5A9",
"5X c #B2B6A4",
"6X c #B2B9A4",
"7X c #B3BBAB",
"8X c #B6B4A6",
"9X c #B5BDB1",
"0X c #CA9B8B",
"qX c #D49887",
"wX c #9BC0A2",
"eX c #B5C0AC",
"rX c #B9C2AD",
"tX c #B6C1B1",
"yX c #BBC3B2",
"uX c #BEC9BA",
"iX c #C4CBBB",
"pX c #C0C9B7",
"aX c #C6D0BE",
"sX c #CCD3C4",
"dX c #D2D6C9",
"fX c None",
/* pixels */
"fXfXfXfXfXfXfXfXfXfXfXfXfXfXfXfXfXfXfXfXfXfXfXfXfXfXfXfXfXfXfXfXfXfXfXfXfXfXfXfXfXfXfXfXfXfXfXfXfXfXfXfXfXfXfXfXfXfXfXfX",
"fXfXfXfXfXfXfXfXfXfXfXfXfXfXfXfXfXfXfXfXfXfXfXfXfXfXfXfXfXfXfXfXfXfXfXfXfXfXfXfXfXfXfXfXfXfXfXfXfXfXfXfXfXfXfXfXfXfXfXfX",
"fXfXfXfXfXfXfXfXfXfXfXfXfXfXfXfXfXfXfXfXfXfXfXfXfXfXfXfXfXfXfXfXfXfXfXfXfXfXfXfXfXfXfXfXfXfXfXfXfXfXfXfXfXfXfXfXfXfXfXfX",
"fXfXfXfXfXfXfXfXfXfXfXfXfXfXfXfXfXfXfXfXfXfXfXfXfXfXfXfXfXfXfXfXfXfXfXfXfXfXfXfXfXfXfXfXfXfXfXfXfXfXfXfXfXfXfXfXfXfXfXfX",
"fXfXfXfXfXfXfXfXfXfXfXfXfXfXfXfXfXfXfXfXfXfXfXfXfXfXfXfXfXfXfXfXfXfXfXfXfXfXfXfXfXfXfXfXfXfXfXfXfXfXfXfXfXfXfXfXfXfXfXfX",
"fXfXfXfXfXfXfXfXfXfXfXfXfXfXfXfXfXfXfXfXfXfXfXfXfXfXfXfXfXfXfXfXfXfXfXfXfXfXfXfXfXfXfXfXfXfXfXfXfXfXfXfXfXfXfXfXfXfXfXfX",
"fXfXfXfXfXfXfXfXfXfXfXfXfXfXfXfXfXfXfXfXfXfXfXfXfXfXfXfXfXfXfXfXfXfXfXfXfXfXfXfXfXfXfXfXfXfXfXfXfXfXfXfXfXfXfXfXfXfXfXfX",
"fXfXfXfXfXfXfXfXfXfXfXfXfXfXfXfXfXfXfXfXfXfXfXfXfXfXfXfXfXfXfXfXfXfXfXfXfXfXfXfXfXfXfXfXfXfXfXfXfXfXfXfXfXfXfXfXfXfXfXfX",
"fXfXfXfXfXfXfXfXfXfXfXfXfXfXfXfXfXfXfXfXfXfXfXfXfXfXfX7XyX9X7X7X7XrX<XfXfXfXfXfXfXfXfXfXfXfXfXfXfXfXfXfXfXfXfXfXfXfXfXfX",
"fXfXfXfXfXfXfXfXfXfXfXfXfXfXfXfXfXfXfXfXfXeX7X1XyXyX_ 7X9X7X6X5X1X4X9X[.^.tX9XfXfXfXfXfXfXfXfXfXfXfXfXfXfXfXfXfXfXfXfXfX",
"fXfXfXfXfXfXfXfXfXfXfXfXfXfXfXfXsXsXpX` ).pX7X7X6X1X` =X1X6X6X6X3X1X1X}.~.7XeXrXpX X|.fXfXfXfXfXfXfXfXfXfXfXfXfXfXfXfXfX",
"fXfXfXfXfXfXfXfXfXfXfXfXfXfXfXiX6X6X6X}.Q 3X6X1X3X1X` =X6X>X4X4X3X=X<X~.^.7X3X3X%X` 7XyXyXfXfXfXfXfXfXfXfXfXfXfXfXfXfXfX",
"fXfXfXfXfXfXfXfXfXfXfXfXfXfXfX7X;X6X5X#XE $X2X;X3X>X!.;X;X>X;X;X3X-X+X_  X6X3X1X^.^.3X3X3X7XfXfXfXfXfXfXfXfXfXfXfXfXfXfX",
"fXfXfXfXfXfXfXfXfXfXfXfXfXfXfX3X3X2X>X:X_ }.8X2X2X*X_.`.`.qX0X'.,X>XoX) +XwX3X#X_ |.;X6X4X1XfXfXfXfXfXfXfXfXfXfXfXfXfXfX",
"fXfXfXfXfXfXfXfXfXfXfXfXfXfXfX3X3X8X5X6XoX) XXW.T.k.V.2.*.e.=.5.Z.].c.I #X=X<X}.).-X3X3X1X%XfXfXfXfXfXfXfXfXfXfXfXfXfXfX",
"fXfXfXfXfXfXfXfXfXfXfXfXfXfXfX3X1XwX5X*X0XQ.;.k.%.<.a.0...R %.5.C.r.G X X p f I <X6X1X7X6X@XfXfXfXfXfXfXfXfXfXfXfXfXfXfX",
"fXfXfXfXfXfXfXfXfXfXfXfXfXfXfX_ ).+X-Xx.J.N.;.O.>.6.G.<.{ D.%.h.a.1.v + @ . O X I >X5X=XOX).fXfXfXfXfXfXfXfXfXfXfXfXfXfX",
"fXfXfXfXfXfXfXfXfXfXfXfXfXfXfXeXOX}.(.F w.f.%.m.v.-.C.6.{ Z.<.>.O.7.n X O . O   < ` @X4XpX<XfXfXfXfXfXfXfXfXfXfXfXfXfXfX",
"fXfXfXfXfXfXfXfXfXfXfXfXfXfXfXaX7X3X%XO.V.F.8.m.u.<.q.:.} k.6.u.B.6.x X +   O     [.aXpXyXyXfXfXfXfXfXfXfXfXfXfXfXfXfXfX",
"fXfXfXfXfXfXfXfXfXfXfXfXfXfXfXuX4X5X$Xf.p.e.2.j.Y T I ~ ~ H %.V.w.9.x X +   O O   ^.6X5X3X7XfXfXfXfXfXfXfXfXfXfXfXfXfXfX",
"fXfXfXfXfXfXfXfXfXfXfXfXfXfXfXuX3X6X>Xf.K.3.8.s.H H j L h h <.B.q.7.v + +   + . . (.1X6X3X1XfXfXfXfXfXfXfXfXfXfXfXfXfXfX",
"fXfXfXfXfXfXfXfXfXfXfXfXfXfXfXyX6X3X>Xg.H.i.>.D 9 H w H q s <.M.m.0.c & + . + @ + (.5X5X3X%XfXfXfXfXfXfXfXfXfXfXfXfXfXfX",
"fXfXfXfXfXfXfXfXfXfXfXfXfXfXfXeX4X2X<X' n.C.-.a.: k w k < a | m.m.q.x = O . + X # [.5X5X6X=XfXfXfXfXfXfXfXfXfXfXfXfXfXfX",
"fXfXfXfXfXfXfXfXfXfXfXfXfXfXfXeX6X2X5X/ C S.-.Y : g w k < p | C.q.n.x % O X + # : [.;X8X3X%XfXfXfXfXfXfXfXfXfXfXfXfXfXfX",
"fXfXfXfXfXfXfXfXfXfXfXfXfXfXfX3X4X6X;X~ V R.-.D 9 f w f w p | M.w.v.x % @ X + + 1 [.5X5X6X@XfXfXfXfXfXfXfXfXfXfXfXfXfXfX",
"fXfXfXfXfXfXfXfXfXfXfXfXfXfXfX3X5X6X:XP V R.:.a.0 g e g y p $.t.m.y.x % @ + # + 1 {.6X5X;X+XfXfXfXfXfXfXfXfXfXfXfXfXfXfX",
"fXfXfXfXfXfXfXfXfXfXfXfXfXfXfX3X6X3X1XL V H.:.o.6 i s d d m 8.t.u.r.x 5 @ $ $ # < {.5X5X6X*XfXfXfXfXfXfXfXfXfXfXfXfXfXfX",
"fXfXfXfXfXfXfXfXfXfXfXfXfXfXfXeX6X3X5XT *.e.>.m.} X.;.} v.C.8.u.i.9.M 3 & $ & + < {.;X5X5X-XfXfXfXfXfXfXfXfXfXfXfXfXfXfX",
"fXfXfXfXfXfXfXfXfXfXfXfXfXfXfX6X6X6X6Xx.w.V.>.B.3.y.u.{ u.u.$.C.Z.9.b 3 & $ & 1 < {.6X8X8X=XfXfXfXfXfXfXfXfXfXfXfXfXfXfX",
"fXfXfXfXfXfXfXfXfXfXfXfXfXfXfX6X6X;X4Xg.w.E.#.u.q.8.B.{ b.B.8.y.A.8.b 3 # - # # w  X5X6X6X&XfXfXfXfXfXfXfXfXfXfXfXfXfXfX",
"fXfXfXfXfXfXfXfXfXfXfXfXfXfXfX8X6X6X;Xx.r.i...m.u.r.A.{ V.u.8.f.O.k.n z @ = $ $ w  X;X6X6X*XfXfXfXfXfXfXfXfXfXfXfXfXfXfX",
"fXfXfXfXfXfXfXfXfXfXfXfXfXfXfX6X6X6X;Xz.I.w.;.B.4.m.A.@.V.t.2.^ J #.n 5 - * & $ w  X5X6X5X&XfXfXfXfXfXfXfXfXfXfXfXfXfXfX",
"fXfXfXfXfXfXfXfXfXfXfXfXfXfXfX6X6X7X6Xz.R.9.n.m.1.m.L.@.V.y.9.Y a.,.v 2 $ * * : w |.;X6X5X&XfXfXfXfXfXfXfXfXfXfXfXfXfXfX",
"fXfXfXfXfXfXfXfXfXfXfXfXfXfXfX6X6X6X;Xz.P.i.;.M.1.m.E.&.V.t.-.S [ O.v ; * - * $ i |.;X6X>X&XfXfXfXfXfXfXfXfXfXfXfXfXfXfX",
"fXfXfXfXfXfXfXfXfXfXfXfXfXfXfX6X6X6X6Xz.P.Z.%.t.6.A.T.-.Z.B.-.K [ :.x 1 8 - * * a .X1X5X3X%XfXfXfXfXfXfXfXfXfXfXfXfXfXfX",
"fXfXfXfXfXfXfXfXfXfXfXfXfXfXfX7X6X8X7Xz.Y.A.$.u.6.m.Y.=.V.B.m.N N l.M : 7 - * : i .X6X6X3X<XfXfXfXfXfXfXfXfXfXfXfXfXfXfX",
"fXfXfXfXfXfXfXfXfXfXfXfXfXfXfX6X6X8X6Xz.Y.C.6.u.9.r.Y.=.S.u.M.B d O.c - 9 - 9 * a .X6X6X3X<XfXfXfXfXfXfXfXfXfXfXfXfXfXfX",
"fXfXfXfXfXfXfXfXfXfXfXfXfXfXfX7X6X6X7Xz.A.Z.2.u.7.t.Y.=.V.t.3.e.m.A.c : 7 - * * a .X3X6X3X<XfXfXfXfXfXfXfXfXfXfXfXfXfXfX",
"fXfXfXfXfXfXfXfXfXfXfXfXfXfXfX6X;X6X7Xx.Y.S.8.C.7.B.L.=.C.u.=.C.y.C.c : > - : 9 a .X6X3X3X<XfXfXfXfXfXfXfXfXfXfXfXfXfXfX",
"fXfXfXfXfXfXfXfXfXfXfXfXfXfXfX5X6X2X6Xx.S.C.-.u.3.u.A.-.C.w.A.B.u.u.c : > , > 9 a  X3X3X3XfXfXfXfXfXfXfXfXfXfXfXfXfXfXfX",
"fXfXfXfXfXfXfXfXfXfXfXfXfXfXfX4X3X>X:Xx.H.A.-.A.9.t.A.=.A.q.A.u.u.t.Z : 0 - : 9 a |.3X3X3XfXfXfXfXfXfXfXfXfXfXfXfXfXfXfX",
"fXfXfXfXfXfXfXfXfXfXfXfXfXfXfX|.oXOXoX( U.u.-.A.3.q.A.$.C.w.n.u.u.t.Z 9 0 , 0 9 y ] OX|.{.fXfXfXfXfXfXfXfXfXfXfXfXfXfXfX",
"fXfXfXfXfXfXfXfXfXfXfXfXfXfXiX9X%X+XOX/ Y C.-.S.2.9.A.=.t.u.r.A.C.t.Z 9 0 - > 0 g #X%X-X4X4XfXfXfXfXfXfXfXfXfXfXfXfXfXfX",
"fXfXfXfXfXfXfXfXfXfXfXfXfXfXdX6X5X3X1X~ Y Z.-.S.m.0.t.&.u.C.r.A.A.t.c w 9 , r , k 7X7X6X>X1XfXfXfXfXfXfXfXfXfXfXfXfXfXfX",
"fXfXfXfXfXfXfXfXfXfXfXfXfXfX1X6X4X>X-XU S t.r.A.B.0.y.=.t.L.r.A.B.0.x 0 0 q r w f @X6X2X6X*XfXfXfXfXfXfXfXfXfXfXfXfXfXfX",
"fXfXfXfXfXfXfXfXfXfXfXfXfXfX%X=X1X5X&XL B u.r.A.m.8.m.$.y.P.%.L.m.-.x 4 w q w 0 f |.-X:X=X@XfXfXfXfXfXfXfXfXfXfXfXfXfXfX",
"fXfXfXfXfXfXfXfXfXfXfXfXfXfX@X~.^.{./.l o.e.n.P.S.=.A.8.u.P.&.P.B.-.v 4 r < r w a ` /.~.` fXfXfXfXfXfXfXfXfXfXfXfXfXfXfX",
"fXfXfXfXfXfXfXfXfXfXfXfX7XdXrX7XrXpX6X! k.V.n.S.K.$.T.0.9.L.&.P.D.%.n 4 e < w e l =X#X<XsXpXiX9XfXfXfXfXfXfXfXfXfXfXfXfX",
"fXfXfXfXfXfXfXfXfXfXfXfX%X7X5X5X5X5X2X_.v.+.k.U.S.| A.r.4.G.&.I.V.0.n u w t t y I 6X7XtX7X4X4X<XfXfXfXfXfXfXfXfXfXfXfXfX",
"fXfXfXfXfXfXfXfXfXfXfXfX%X5X5X7X6X4X4X).s.*.h.a.h...d.h.7.! | U.j.-.n u y t y e I -X6X6X3X3X1X#XfXfXfXfXfXfXfXfXfXfXfXfX",
"fXfXfXfXfXfXfXfXfXfXfXfX%X5X8X8X6X8X>Xc.R ! E R x.[ V.e.1.F.$.k.G 3.Z l U I U U ( 1X6X5X5X-X:X<XfXfXfXfXfXfXfXfXfXfXfXfX",
"fXfXfXfXfXfXfXfXfXfXfXfXfX%X%X%X%X%X#X^.!.~.^.^.^.^.] !.) g.! k.j.f.A / ^.] ] ` _ &X4X1X;X1X<X%XfXfXfXfXfXfXfXfXfXfXfXfX",
"fXfXfXfXfXfXfXfXfXfXfXfXfXfXfXfXfXfXfXfXfXfXfXfXfXfXfXfXfXfXfXfXfXfXfXfXfXfXfXfXfXfXfXfXfXfXfXfXfXfXfXfXfXfXfXfXfXfXfXfX",
"fXfXfXfXfXfXfXfXfXfXfXfXfXfXfXfXfXfXfXfXfXfXfXfXfXfXfXfXfXfXfXfXfXfXfXfXfXfXfXfXfXfXfXfXfXfXfXfXfXfXfXfXfXfXfXfXfXfXfXfX",
"fXfXfXfXfXfXfXfXfXfXfXfXfXfXfXfXfXfXfXfXfXfXfXfXfXfXfXfXfXfXfXfXfXfXfXfXfXfXfXfXfXfXfXfXfXfXfXfXfXfXfXfXfXfXfXfXfXfXfXfX",
"fXfXfXfXfXfXfXfXfXfXfXfXfXfXfXfXfXfXfXfXfXfXfXfXfXfXfXfXfXfXfXfXfXfXfXfXfXfXfXfXfXfXfXfXfXfXfXfXfXfXfXfXfXfXfXfXfXfXfXfX",
"fXfXfXfXfXfXfXfXfXfXfXfXfXfXfXfXfXfXfXfXfXfXfXfXfXfXfXfXfXfXfXfXfXfXfXfXfXfXfXfXfXfXfXfXfXfXfXfXfXfXfXfXfXfXfXfXfXfXfXfX",
"fXfXfXfXfXfXfXfXfXfXfXfXfXfXfXfXfXfXfXfXfXfXfXfXfXfXfXfXfXfXfXfXfXfXfXfXfXfXfXfXfXfXfXfXfXfXfXfXfXfXfXfXfXfXfXfXfXfXfXfX",
"fXfXfXfXfXfXfXfXfXfXfXfXfXfXfXfXfXfXfXfXfXfXfXfXfXfXfXfXfXfXfXfXfXfXfXfXfXfXfXfXfXfXfXfXfXfXfXfXfXfXfXfXfXfXfXfXfXfXfXfX",
"fXfXfXfXfXfXfXfXfXfXfXfXfXfXfXfXfXfXfXfXfXfXfXfXfXfXfXfXfXfXfXfXfXfXfXfXfXfXfXfXfXfXfXfXfXfXfXfXfXfXfXfXfXfXfXfXfXfXfXfX"
};
