/* XPM */
static char *result[] = {
/* columns rows colors chars-per-pixel */
"60 60 219 2 ",
"   c #05040D",
".  c #09060F",
"X  c #07060D",
"o  c #050610",
"O  c #0A0611",
"+  c #0C0B14",
"@  c #0D0C18",
"#  c #050912",
"$  c #140611",
"%  c #120A14",
"&  c #130E1C",
"*  c #0F1119",
"=  c #0C1415",
"-  c #14131C",
";  c #18131E",
":  c #1A1B1D",
">  c #13151A",
",  c #230A0E",
"<  c #310C10",
"1  c #22161E",
"2  c #331014",
"3  c #161421",
"4  c #1B1622",
"5  c #1B1B23",
"6  c #1F1D28",
"7  c #261925",
"8  c #1D222D",
"9  c #28282A",
"0  c #39272A",
"q  c #2C2C32",
"w  c #262934",
"e  c #2F3132",
"r  c #313336",
"t  c #37383B",
"y  c #393A3E",
"u  c #32323B",
"i  c #5D160E",
"p  c #5B1A15",
"a  c #561D1C",
"s  c #581B17",
"d  c #6D1C12",
"f  c #621A15",
"g  c #701A14",
"h  c #5A201D",
"j  c #432A2B",
"k  c #4C2829",
"l  c #582523",
"z  c #523235",
"x  c #682B24",
"c  c #73372D",
"v  c #763B35",
"b  c #62322F",
"n  c #4A403E",
"m  c #76443D",
"M  c #333645",
"N  c #2F3840",
"B  c #543442",
"V  c #3D4556",
"C  c #3F4144",
"Z  c #444848",
"A  c #555859",
"S  c #515352",
"D  c #744641",
"F  c #7C4844",
"G  c #7A4C53",
"H  c #6E5552",
"J  c #596358",
"K  c #796658",
"L  c #67674D",
"P  c #514F61",
"I  c #586368",
"U  c #676563",
"Y  c #6B7866",
"T  c #727A6D",
"R  c #767C73",
"E  c #7C6E67",
"W  c #913C31",
"Q  c #AC3D2D",
"!  c #A43B2C",
"~  c #B63D29",
"^  c #A33C31",
"/  c #AB3B38",
"(  c #B13C3B",
")  c #C23F33",
"_  c #8A453B",
"`  c #964939",
"'  c #AD462E",
"]  c #B4452D",
"[  c #BB432D",
"{  c #A94634",
"}  c #B54532",
"|  c #BC4533",
" . c #BC4B34",
".. c #BC4A3A",
"X. c #BA4539",
"o. c #AB573F",
"O. c #C5482E",
"+. c #C24634",
"@. c #C24A35",
"#. c #CB4D34",
"$. c #C44D3A",
"%. c #CB4E3B",
"&. c #D54D3A",
"*. c #CC5136",
"=. c #C4513B",
"-. c #CC523C",
";. c #CC5A3F",
":. c #D2543D",
">. c #D6573B",
",. c #9A4B42",
"<. c #9A564A",
"1. c #965C53",
"2. c #A74C43",
"3. c #B94E44",
"4. c #AB5343",
"5. c #A75747",
"6. c #B75549",
"7. c #8C6A5B",
"8. c #95655A",
"9. c #8D715E",
"0. c #B4624F",
"q. c #917162",
"w. c #8A7362",
"e. c #A97565",
"r. c #C45242",
"t. c #CE5442",
"y. c #CD5945",
"u. c #CD5949",
"i. c #D25642",
"p. c #DB5545",
"a. c #D45A43",
"s. c #DA5B44",
"d. c #D35B49",
"f. c #DA5D4A",
"g. c #D65649",
"h. c #D65C52",
"j. c #CA4F41",
"k. c #E25742",
"l. c #DD624C",
"z. c #D8624C",
"x. c #C86A5B",
"c. c #DA6456",
"v. c #C6674D",
"b. c #E2614C",
"n. c #CC7E6E",
"m. c #73816D",
"M. c #7C8375",
"N. c #7B8677",
"B. c #7C9479",
"V. c #858A7C",
"C. c #86927E",
"Z. c #968E76",
"A. c #A8867B",
"S. c #BB8872",
"D. c #C8877A",
"F. c #D68A76",
"G. c #C5816F",
"H. c #848A81",
"J. c #869281",
"K. c #8C9986",
"L. c #8C9988",
"P. c #929B8B",
"I. c #979887",
"U. c #979D93",
"Y. c #B3968A",
"T. c #95A18D",
"R. c #9AA48F",
"E. c #9BA493",
"W. c #9CAA95",
"Q. c #9EA59A",
"!. c #99A898",
"~. c #9DB498",
"^. c #A5AD95",
"/. c #A2AA9B",
"(. c #A6AB99",
"). c #A6B39D",
"_. c #ABB49E",
"`. c #ACB89E",
"'. c #B3B59F",
"]. c #B6B69D",
"[. c #A4AEA2",
"{. c #ACAEA0",
"}. c #A5B3A3",
"|. c #ADB5A2",
" X c #ADB9A3",
".X c #AEB9AB",
"XX c #AAB9A9",
"oX c #B2B6A3",
"OX c #B2BAA4",
"+X c #B3BCAB",
"@X c #BABDAE",
"#X c #B3BBB1",
"$X c #B9BDB6",
"%X c #C59F8B",
"&X c #B4C1AB",
"*X c #BAC1AE",
"=X c #B7C3B2",
"-X c #BCC3B2",
";X c #BEC5BA",
":X c #BEC9BA",
">X c #A1C0A5",
",X c #C2C9B7",
"<X c #C3CBBC",
"1X c #C5CABB",
"2X c #C4D0BF",
"3X c #C6CCC1",
"4X c #CACEC2",
"5X c #C8CBC8",
"6X c #CCD2C4",
"7X c #CBD1C7",
"8X c #D2D6CA",
"9X c #D4DBCB",
"0X c #D6DACB",
"qX c #D5DCD2",
"wX c #DADED4",
"eX c #DCE4D6",
"rX c #E4E7DF",
"tX c #E6EFE0",
"yX c None",
/* pixels */
"yXyXyXyXyXyXyXyXyXyXyXyXyXyXyXyXyXyXyXyXyXyXyXyXyXyXyXyXyXyXyXyXyXyXyXyXyXyXyXyXyXyXyXyXyXyXyXyXyXyXyXyXyXyXyXyXyXyXyXyX",
"yXyXyXyXyXyXyXyXyXyXyXyXyXyXyXyXyXyXyXyXyXyXyXyXyXyXyXyXyXyXyXyXyXyXyXyXyXyXyXyXyXyXyXyXyXyXyXyXyXyXyXyXyXyXyXyXyXyXyXyX",
"yXyXyXyXyXyXyXyXyXyXyXyXyXyXyXyXyXyXyXyXyXyXyXyXyXyXyXyXyXyXyXyXyXyXyXyXyXyXyXyXyXyXyXyXyXyXyXyXyXyXyXyXyXyXyXyXyXyXyXyX",
"yXyXyXyXyXyXyXyXyXyXyXyXyXyXyXyXyXyXyXyXyXyXyXyXyXyXyXyXyXyXyXyXyXyXyXyXyXyXyXyXyXyXyXyXyXyXyXyXyXyXyXyXyXyXyXyXyXyXyXyX",
"yXyXyXyXyXyXyXyXyXyXyXyXyXyXyXyXyXyXyXyXyXyXyXyXyXyXyXyXyXyXyXyXyXyXyXyXyXyXyXyXyXyXyXyXyXyXyXyXyXyXyXyXyXyXyXyXyXyXyXyX",
"yXyXyXyXyXyXyXyXyXyXyXyXyXyXyXyXyXyXyXyXyXyXyXyXyXyXyXyXyXyXyXyXyXyXyXyXyXyXyXyXyXyXyXyXyXyXyXyXyXyXyXyXyXyXyXyXyXyXyXyX",
"yXyXyXyXyXyXyXyXyXyXyXyXyXyXyXyXyXyXyXyXyXyXyXyXyXyXyXyXyXyXyXyXyXyXyXyXyXyXyXyXyXyXyXyXyXyXyXyXyXyXyXyXyXyXyXyXyXyXyXyX",
"yXyXyXyXyXyXyXyXyXyXyXyXyXyXyXyXyXyXyXyXyXyXyXyXyXyXyXyXyXyXyXyXyXyXyXyXyXyXyXyXyXyXyXyXyXyXyXyXyXyXyXyXyXyXyXyXyXyXyXyX",
"yXyXyXyXyXyXyXyXyXyXyXyXyXyXyXyXyXyXyXyXyXyXyXyXyXyXyX3XrXwXwXwX7X9X;XyXyXyXyXyXyXyXyXyXyXyXyXyXyXyXyXyXyXyXyXyXyXyXyXyX",
"yXyXyXyXyXyXyXyXyXyXyXyXyXyXyXyXqX$X#X/.+XtXeX9X6X&XP. X+X+XOXOX X&X+X!.|.eX6X$X#XqXyXyXyXyXyXyXyXyXyXyXyXyXyXyXyXyXyXyX",
"yXyXyXyXyXyXyXyXyXyXyXyXyXyXyXwXwX6X7XC.C.-X+X+X+X/.T /.oXoXoXOX|.|. XN.L.+X+X:X<XU.+X4XyXyXyXyXyXyXyXyXyXyXyXyXyXyXyXyX",
"yXyXyXyXyXyXyXyXyXyXyXyXyXyXyX0XOXOX XC.Y  X X`.OXW.m.^.OXoX X.X|.|./.m.R.XX X XP.Y -X<X=X5XyXyXyXyXyXyXyXyXyXyXyXyXyXyX",
"yXyXyXyXyXyXyXyXyXyXyXyXyXyXyX,X`. XOXT.Y /.+X X`.W.m./.].`.`. XOX).R.Y T.|. X).Y J. X`.OX7XyXyXyXyXyXyXyXyXyXyXyXyXyXyX",
"yXyXyXyXyXyXyXyXyXyXyXyXyXyX2X+XOXOXOX).N.L.OXOX].A.e.S.n.F.D.n.%X].K.m.~.&X&XC.Y /. X|. X3XyXyXyXyXyXyXyXyXyXyXyXyXyXyX",
"yXyXyXyXyXyXyXyXyXyXyXyXyXyX8X_. X`.'.&XJ.Z.S.F.x. .f.[ =.*.) &.z.F.K A J.E.Q.N.P.|.OX X|.:XyXyXyXyXyXyXyXyXyXyXyXyXyXyX",
"yXyXyXyXyXyXyXyXyXyXyXyXyXyX7X X XXX`.^.%Xc.3.2. .Q ,.Q 3.` ' #.t.;.x = 5 q q T +XOX XOX).4XyXyXyXyXyXyXyXyXyXyXyXyXyXyX",
"yXyXyXyXyXyXyXyXyXyXyXyXyXyX+XC.C.T.W.9.h.y...,.r.| u.Q ..r.| 4.{ [ p X       > R '.)./.R./.yXyXyXyXyXyXyXyXyXyXyXyXyXyX",
"yXyXyXyXyXyXyXyXyXyXyXyXyXyXqX=X).K.R m 3.4.@.=.u.[ k.~ $.p.O.{ { +.p o         : N.).-X9XyXyXyXyXyXyXyXyXyXyXyXyXyXyXyX",
"yXyXyXyXyXyXyXyXyXyXyXyXyXyXeX=X X.XR.` k.c.@.t.-.| u.Q ` 6.[ %.p.+.p o   X X   + [.,X&X,X3XyXyXyXyXyXyXyXyXyXyXyXyXyXyX",
"yXyXyXyXyXyXyXyXyXyXyXyXyXyXeX+X X|.W.<.>.&.O.5.G H A P P B [ #.&.| s .     o o = U.OXoX*X<XyXyXyXyXyXyXyXyXyXyXyXyXyXyX",
"yXyXyXyXyXyXyXyXyXyXyXyXyXyXqX.X X+X^.1.;.&.@.F M V t V N z ] %.&.+.p @ O   O O > U.OXoXOX<XyXyXyXyXyXyXyXyXyXyXyXyXyXyX",
"yXyXyXyXyXyXyXyXyXyXyXyXyXyXqX X X X(.8.p.>. .D * N 5 u - j ] *.i.X.s $ .   O . ; E.OXoX X6XyXyXyXyXyXyXyXyXyXyXyXyXyXyX",
"yXyXyXyXyXyXyXyXyXyXyXyXyXyX0X|. XXX}.E o.s.$.D 3 u 8 r > j ~ %.g.| p $ o . O o 1 E.OXoX`.4XyXyXyXyXyXyXyXyXyXyXyXyXyXyX",
"yXyXyXyXyXyXyXyXyXyXyXyXyXyX0X).OXXX_.I m b.%.m - q 7 r > 0 [ -.g.| p $ o . O   9 E.OXoX`.4XyXyXyXyXyXyXyXyXyXyXyXyXyXyX",
"yXyXyXyXyXyXyXyXyXyXyXyXyXyX7X_.oXOX}.P m b.$.D - q 6 q > 0 ] -.g. .p $ o . +   9 E.OXoX).<XyXyXyXyXyXyXyXyXyXyXyXyXyXyX",
"yXyXyXyXyXyXyXyXyXyXyXyXyXyX<X|.OX X}.Z m l.+.D 3 w 7 w 5 2 [ -.p. .p $ # + + o 9 E.OXoX^.4XyXyXyXyXyXyXyXyXyXyXyXyXyXyX",
"yXyXyXyXyXyXyXyXyXyXyXyXyXyX;XOXOXOX/.Z c b.| _ 9 0 j j k x =.:.s.| f , @ O @ O 9 E.OXOX_.wXyXyXyXyXyXyXyXyXyXyXyXyXyXyX",
"yXyXyXyXyXyXyXyXyXyXyXyXyXyX,X|.OX X[.K Q g...r.^ ! ( ^ ..%.@.i.s.| d < + @ $ O q /.'.'.'.8XyXyXyXyXyXyXyXyXyXyXyXyXyXyX",
"yXyXyXyXyXyXyXyXyXyXyXyXyXyX;XOX+XOX{.7.&.b...%.-.*.>.+.-.#.O.a.f.@.d < % + + . e /. XoX'.4XyXyXyXyXyXyXyXyXyXyXyXyXyXyX",
"yXyXyXyXyXyXyXyXyXyXyXyXyXyX-XOXOX`.).8.k.b.] %.-.@.:.( j.%.+.>.f. .d < = + + + r /.OXoX'.4XyXyXyXyXyXyXyXyXyXyXyXyXyXyX",
"yXyXyXyXyXyXyXyXyXyXyXyXyXyX,XoXOX X).7.&.>.} t.>.=.y.| -.*...<._ ' d < + & & + r E.`.oX`.6XyXyXyXyXyXyXyXyXyXyXyXyXyXyX",
"yXyXyXyXyXyXyXyXyXyXyXyXyXyX@X@X+XOX).7.:.:...-.-.r.d. .%.#. .G z ' d , @ % % + r (.OXoX'.6XyXyXyXyXyXyXyXyXyXyXyXyXyXyX",
"yXyXyXyXyXyXyXyXyXyXyXyXyXyXyX*X@XoX_.q.:.>...-.%.%.d...%.*.+.<.,.{ i % @ & @ @ t /.`.OXoX4XyXyXyXyXyXyXyXyXyXyXyXyXyXyX",
"yXyXyXyXyXyXyXyXyXyXyXyXyXyXyX*XOXOX_.q.:.b...-.#.t.z.$.%.-...,._ { p = & @ > @ r /.OXoX].2XyXyXyXyXyXyXyXyXyXyXyXyXyXyX",
"yXyXyXyXyXyXyXyXyXyXyXyXyXyXyX,XOXOX|.q.:.l.@.-.*.u.z.$.%.a. .,.,.{ p > & - - @ t /.oXOXOX;XyXyXyXyXyXyXyXyXyXyXyXyXyXyX",
"yXyXyXyXyXyXyXyXyXyXyXyXyXyXyX@XoX+X{.q.t.g.@.:.-.=.d...i.g.$.b j { f - & - & @ t /.OXoX&XyXyXyXyXyXyXyXyXyXyXyXyXyXyXyX",
"yXyXyXyXyXyXyXyXyXyXyXyXyXyXyX,XOXOX|.q.-.f.%.:.%.r.d. .a.i.%.W c { h ; ; & & & y [.OXOX&XyXyXyXyXyXyXyXyXyXyXyXyXyXyXyX",
"yXyXyXyXyXyXyXyXyXyXyXyXyXyXyX*XoXOX|.q.t.f.#.:.%.t.u.+.i.-.O.p.u.$.a & & * & & y /.OXOX&XyXyXyXyXyXyXyXyXyXyXyXyXyXyXyX",
"yXyXyXyXyXyXyXyXyXyXyXyXyXyXyX-X XOX|.w.&.f.@.:.%.i.u.+.a.a.@.a.i.@.a & & > 3 & y /. X X*XyXyXyXyXyXyXyXyXyXyXyXyXyXyXyX",
"yXyXyXyXyXyXyXyXyXyXyXyXyXyXyX-X XOX).9.&.z.=.t.*.a.i.$.d.>.i.i.s.%.a - ; > - & M Q. X X*XyXyXyXyXyXyXyXyXyXyXyXyXyXyXyX",
"yXyXyXyXyXyXyXyXyXyXyXyXyXyXyX-X_.OX~.7.i.f.=.y.#.i.i.@.a.:.t.-.>.$.a 3 ; 3 3 & y /.OX X-XyXyXyXyXyXyXyXyXyXyXyXyXyXyXyX",
"yXyXyXyXyXyXyXyXyXyXyXyXyXyXyX[.K.P.B.U 5.z.=.a.-.%.u.+.:.%.t.>.>.%.l 3 ; > 4 3 q M.C.C.Q.yXyXyXyXyXyXyXyXyXyXyXyXyXyXyX",
"yXyXyXyXyXyXyXyXyXyXyXyXyXyXqX-X).!.U.I ,.z. .d.:.+.i.+.-.%.=.z.a.$.l 3 3 : ; - A @X+X&X-X3XyXyXyXyXyXyXyXyXyXyXyXyXyXyX",
"yXyXyXyXyXyXyXyXyXyXyXyXyXyX8X+XoX X}.A v c.$.d.d.[ ;. .t.i...z.f.+.a 3 3 > 4 ; A |.+X`.`.@XyXyXyXyXyXyXyXyXyXyXyXyXyXyX",
"yXyXyXyXyXyXyXyXyXyXyXyXyXyX1XOXoXOX{.Z v l.=.y.y.[ i.| ;.a. .a.f.| s 4 3 5 7 : Z /.&X&X'.-XyXyXyXyXyXyXyXyXyXyXyXyXyXyX",
"yXyXyXyXyXyXyXyXyXyXyXyXyXyX6XE.E.E.U.Z x b.=.z.i.| s. .y.a.] d.g.} f ; 4 5 3 ; Z K.T.T.P.<XyXyXyXyXyXyXyXyXyXyXyXyXyXyX",
"yXyXyXyXyXyXyXyXyXyXyXyX5X<X.XK.P._.P.z W b.=.z.y.+.z.@.a.i.] g.s. .i 1 5 5 7 : C C.C.J.E.;X$X5XyXyXyXyXyXyXyXyXyXyXyXyX",
"yXyXyXyXyXyXyXyXyXyXyXyX;X6X,X,X-X=X>Xw...c. .c.y.+.c.+.-.i.] g.g.[ i 7 5 : 5 ; U &X.X:X<X#X4X#XyXyXyXyXyXyXyXyXyXyXyXyX",
"yXyXyXyXyXyXyXyXyXyXyXyX+XoX@XoXoXoXOXA._ 0.$.0.u.] v.| =.u.} g.k.X.f 2 6 7 6 & H.OX X X|.|..XXXyXyXyXyXyXyXyXyXyXyXyXyX",
"yXyXyXyXyXyXyXyXyXyXyXyX$XoXoXoXoXoX+XV.c 4./ F 3.^ 5.( 3.<.~ 6.5.] f 1 7 7 8 & M.OXoXoXOX|.}..XyXyXyXyXyXyXyXyXyXyXyXyX",
"yXyXyXyXyXyXyXyXyXyXyXyX$X|.|.|.{. X(.M.J K L K q.<.0.4.o.5.{ o.` ! l Z J A A Z M.oX.XoXoX|. X#XyXyXyXyXyXyXyXyXyXyXyXyX",
"yXyXyXyXyXyXyXyXyXyXyXyX7X4X<X;X;X=X=X+X|.}.XX[.Q.[.{./.^.Y.I.Y.%XA.V.U.[.Q.[.Q.#X;X<X:X<X2X6X7XyXyXyXyXyXyXyXyXyXyXyXyX",
"yXyXyXyXyXyXyXyXyXyXyXyXyXyXyXyXyXyXyXyXyXyXyXyXyXyXyXyXyXyXyXyXyXyXyXyXyXyXyXyXyXyXyXyXyXyXyXyXyXyXyXyXyXyXyXyXyXyXyXyX",
"yXyXyXyXyXyXyXyXyXyXyXyXyXyXyXyXyXyXyXyXyXyXyXyXyXyXyXyXyXyXyXyXyXyXyXyXyXyXyXyXyXyXyXyXyXyXyXyXyXyXyXyXyXyXyXyXyXyXyXyX",
"yXyXyXyXyXyXyXyXyXyXyXyXyXyXyXyXyXyXyXyXyXyXyXyXyXyXyXyXyXyXyXyXyXyXyXyXyXyXyXyXyXyXyXyXyXyXyXyXyXyXyXyXyXyXyXyXyXyXyXyX",
"yXyXyXyXyXyXyXyXyXyXyXyXyXyXyXyXyXyXyXyXyXyXyXyXyXyXyXyXyXyXyXyXyXyXyXyXyXyXyXyXyXyXyXyXyXyXyXyXyXyXyXyXyXyXyXyXyXyXyXyX",
"yXyXyXyXyXyXyXyXyXyXyXyXyXyXyXyXyXyXyXyXyXyXyXyXyXyXyXyXyXyXyXyXyXyXyXyXyXyXyXyXyXyXyXyXyXyXyXyXyXyXyXyXyXyXyXyXyXyXyXyX",
"yXyXyXyXyXyXyXyXyXyXyXyXyXyXyXyXyXyXyXyXyXyXyXyXyXyXyXyXyXyXyXyXyXyXyXyXyXyXyXyXyXyXyXyXyXyXyXyXyXyXyXyXyXyXyXyXyXyXyXyX",
"yXyXyXyXyXyXyXyXyXyXyXyXyXyXyXyXyXyXyXyXyXyXyXyXyXyXyXyXyXyXyXyXyXyXyXyXyXyXyXyXyXyXyXyXyXyXyXyXyXyXyXyXyXyXyXyXyXyXyXyX",
"yXyXyXyXyXyXyXyXyXyXyXyXyXyXyXyXyXyXyXyXyXyXyXyXyXyXyXyXyXyXyXyXyXyXyXyXyXyXyXyXyXyXyXyXyXyXyXyXyXyXyXyXyXyXyXyXyXyXyXyX"
};
