/* XPM */
static char *result[] = {
/* columns rows colors chars-per-pixel */
"60 60 224 2 ",
"   c #000000",
".  c #090606",
"X  c #0C0906",
"o  c #0C0B09",
"O  c #110B05",
"+  c #120D0B",
"@  c #1E0F08",
"#  c #14110B",
"$  c #16130A",
"%  c #1D1B12",
"&  c #181613",
"*  c #2D160A",
"=  c #21160A",
"-  c #221D15",
";  c #2A1A11",
":  c #361B0E",
">  c #2C2414",
",  c #2B261B",
"<  c #352E1C",
"1  c #372317",
"2  c #38331C",
"3  c #29250E",
"4  c #2A2C2B",
"5  c #242425",
"6  c #322B23",
"7  c #3C3626",
"8  c #333427",
"9  c #2F3332",
"0  c #333634",
"q  c #35393B",
"w  c #3C3D3C",
"e  c #363938",
"r  c #523516",
"t  c #71370F",
"y  c #693B1E",
"u  c #6B3311",
"i  c #753511",
"p  c #473B27",
"a  c #643D2A",
"s  c #3C403D",
"d  c #53441A",
"f  c #735F1D",
"g  c #6E541A",
"h  c #7B600D",
"j  c #7C6216",
"k  c #44412C",
"l  c #4E4628",
"z  c #544A28",
"x  c #5E562A",
"c  c #4A4934",
"v  c #584A34",
"b  c #565237",
"n  c #79492D",
"m  c #675C38",
"M  c #7D5F36",
"N  c #6C502F",
"B  c #76662B",
"V  c #6B6334",
"C  c #7F6E3B",
"Z  c #746736",
"A  c #787032",
"S  c #7C792E",
"D  c #3D3F40",
"F  c #3F4143",
"G  c #444547",
"H  c #4E5145",
"J  c #505342",
"K  c #6F6340",
"L  c #75704F",
"P  c #855114",
"I  c #B74E11",
"U  c #936E00",
"Y  c #9B6B01",
"T  c #967100",
"R  c #9B7401",
"E  c #9E7901",
"W  c #9B740A",
"Q  c #8F7113",
"!  c #9D7E17",
"~  c #96781B",
"^  c #8A6B0C",
"/  c #A26B01",
"(  c #AB6A01",
")  c #B36A01",
"_  c #BC6B01",
"`  c #B96B06",
"'  c #A07601",
"]  c #A37C00",
"[  c #A87F01",
"{  c #A57C0A",
"}  c #BD7204",
"|  c #A87C12",
" . c #884D2F",
".. c #8F542C",
"X. c #99502D",
"o. c #825031",
"O. c #925332",
"+. c #A95328",
"@. c #B35324",
"#. c #846B25",
"$. c #887825",
"%. c #8B793E",
"&. c #9B7E25",
"*. c #D25210",
"=. c #CD520B",
"-. c #E75A09",
";. c #F65C06",
":. c #FE5C01",
">. c #F35C09",
",. c #E25F14",
"<. c #CA6B02",
"1. c #C76804",
"2. c #DB6503",
"3. c #DD6804",
"4. c #D46802",
"5. c #EC6502",
"6. c #E86508",
"7. c #F46101",
"8. c #FC6102",
"9. c #F86605",
"0. c #C36025",
"q. c #A68101",
"w. c #AB8401",
"e. c #AE8801",
"r. c #AA840C",
"t. c #A3800E",
"y. c #B38C01",
"u. c #B88F01",
"i. c #B18B09",
"p. c #B69003",
"a. c #BB9201",
"s. c #B5910B",
"d. c #BB9508",
"f. c #A48214",
"g. c #A38318",
"h. c #BA961B",
"j. c #B59514",
"k. c #A5941F",
"l. c #AFA41E",
"z. c #B9A91A",
"x. c #948032",
"c. c #9A8B25",
"v. c #A68A28",
"b. c #AF9C21",
"n. c #A68B35",
"m. c #B7972D",
"M. c #C09701",
"N. c #C49A01",
"B. c #C99E01",
"V. c #C79E0E",
"C. c #C29B12",
"Z. c #CDA202",
"A. c #CEA50B",
"S. c #D1A602",
"D. c #D5AA01",
"F. c #DAAE01",
"G. c #D9AE0B",
"H. c #D3A90B",
"J. c #DEB202",
"K. c #DBB20D",
"L. c #C4B215",
"P. c #D9B314",
"I. c #CFA91C",
"U. c #E2B501",
"Y. c #E6B903",
"T. c #EBBC02",
"R. c #E3B709",
"E. c #E3BA0A",
"W. c #EABD0E",
"Q. c #E1B611",
"!. c #E7BB18",
"~. c #C09D29",
"^. c #D0B92E",
"/. c #C6AD27",
"(. c #EDC00C",
"). c #EDC806",
"_. c #F2C302",
"`. c #F7C801",
"'. c #F9CC02",
"]. c #F4C40E",
"[. c #FBD301",
"{. c #FADB03",
"}. c #F8D407",
"|. c #F5C917",
" X c #EFD11A",
".X c #FBD31B",
"XX c #FCD918",
"oX c #F7E109",
"OX c #EEE510",
"+X c #FBE619",
"@X c #ECC127",
"#X c #F3C625",
"$X c #FBD72B",
"%X c #EFC533",
"&X c #F5CB3D",
"*X c #F7CC38",
"=X c #FBD438",
"-X c #EDE131",
";X c #FEE53C",
":X c #EEE326",
">X c #8F8C47",
",X c #A3A05F",
"<X c #B9B457",
"1X c #C6BB4B",
"2X c #F6CE45",
"3X c #F7DA46",
"4X c #FAD955",
"5X c #FCE254",
"6X c #FEF05C",
"7X c #FBDE66",
"8X c #EDE26D",
"9X c #FCE66E",
"0X c #FCE874",
"qX c #FAF47A",
"wX c #A6A783",
"eX c #CBCB94",
"rX c #EAE68C",
"tX c #FDEF87",
"yX c #FDF38E",
"uX c #FDF793",
"iX c #D0D1A2",
"pX c #FCFCB4",
"aX c #FEFCAA",
"sX c #FAFACA",
/* pixels */
"                                                                                                                        ",
"                                                                                                                        ",
"                                                                                                                        ",
"                                                                                                                        ",
"                                                                                                                        ",
"                                                                                                                        ",
"                                                  .   X O X O O $ o o o X                                               ",
"                                            o # 3 z B c.k.z.L.L.z.l.k.S V 8 o .                                         ",
"                                        . $ z B j.E.).).}.{.{.{.{.oXOXOX:XS c 8 & .                                     ",
"                                    . # l c.K.(.).'.`.`.'.'.}.}.[.{.oX+X+Xx 0 s w 0 o                                   ",
"                                  o 7 v.E._.T._.T._._._._._.`.'.'.[.{.XX;X1Xs 9 q q G 5 o                               ",
"                                o m I.J.J.J.J.U.U.U.Y.T.T._._.`.`.'.}.XX;X6X<Xz 9 9 e F G o                             ",
"                              $ C I.G.S.D.D.D.D.F.F.F.U.U.Y.T._._._.'..X=X5XqXrXeXiXiXL s F 4                           ",
"                            - %./.A.Z.Z.Z.Z.Z.S.S.D.F.F.J.J.U.Y.T.T._.|.$X3X9XyXaXsXsXwXs q F q                         ",
"                          & %.~.V.d.a.N.N.N.N.B.B.B.S.S.D.D.F.J.U.Y.T._.#X*X4X0XyXaXpXeXJ 0 q s s o                     ",
"                        o K m.h.d.a.a.a.a.a.a.M.M.N.B.B.B.S.D.D.J.J.U.T.W.#X2X4X9XyXuXrX,Xb 0 e J 8 .                   ",
"                        c n.j.j.p.p.a.a.a.a.a.a.a.a.N.N.N.Z.Z.Z.D.D.J.J.Y.!.%X&X4X7X9X0X8X1XA k s >X%                   ",
"                      , n.h.s.p.p.p.p.p.a.a.a.a.a.a.a.a.a.N.N.N.B.S.D.F.K.Y.!.%X&X2X4X4X4X4X3X^.l.-XA #                 ",
"                    o L h.s.p.p.p.p.p.a.a.a.a.a.a.a.a.a.a.a.a.N.M.B.B.S.F.G.Q.!.@X%X&X&X=X=X$X$X+X+X/.2 .               ",
"                  . 7 v.s.y.e.p.p.p.p.p.s.a.u.u.a.a.a.a.a.a.a.a.M.M.M.B.B.H.G.Q.!.!.!.#X#X.X.X.X X/.A -                 ",
"                  . C j.s.y.y.p.y.p.p.p.p.p.a.a.a.a.u.a.a.a.a.u.a.M.M.M.B.B.A.H.P.Q.W.W.W.].|.P.x.l O .                 ",
"                  , v.i.e.e.e.y.e.y.y.p.y.y.p.p.y.u.u.u.a.u.a.u.u.M.u.M.d.N.B.S.A.G.K.R.W.G.v.z $ .                     ",
"                o b j.w.e.e.e.e.y.y.y.y.y.y.p.y.y.u.u.u.u.u.u.u.u.u.a.a.a.M.M.M.B.A.H.V.&.z                             ",
"                o Z s.w.e.e.e.e.e.e.e.y.y.y.y.y.y.y.y.y.u.u.u.u.u.u.u.a.u.u.M.M.N.M.~ p .                               ",
"                > $.r.w.w.w.e.e.e.e.y.e.y.y.y.y.y.y.y.u.e.u.u.u.y.u.u.u.M.u.u.i.^ < .                                   ",
"              o 7 ! w.w.w.w.q.e.w.e.w.y.w.e.w.y.y.y.e.u.u.e.u.e.y.u.u.y.M.w.Q z - .                                     ",
"              o b g.q.q.e.e.q.e.w.e.e.w.e.w.y.e.y.e.y.y.y.y.e.y.y.y.u.r.Q x - .                                         ",
"              # V g.q.q.q.q.q.e.w.w.w.w.w.y.w.e.e.e.e.e.e.e.y.e.y.i.W B 6 o .                                           ",
"              # V f.] q.q.q.q.q.w.w.w.w.w.w.w.w.e.w.e.e.e.e.y.} { #.2 $ .                                               ",
"              + Z f.q.q.q.q.q.q.[ q.w.q.w.w.w.w.w.w.w.w.[ e.e.y.~ > .                                                   ",
"              # Z f.q.q.[ ] q.q.q.q.q.q.w.w.w.w.w.[ w.w.w.w.w.e.r.B o                                                   ",
"              + m f.E q.E q.] ] [ q.[ q.[ [ [ [ w.[ [ w.[ w.w.w.w.t.m +                                                 ",
"              + m ! ] q.E q.] q.] ] q.q.[ ] [ [ q.q.w.w.w.[ w.w.w.e.| v o                                               ",
"              o b ! E E E ] ] E ] ] ] ] ] q.] [ [ ] [ [ [ [ [ [ [ w.e.{ p .                                             ",
"              o 7 ~ W E E E E E ] E ] ] ] ] ] [ ] [ [ ] [ [ [ [ [ [ [ w.r.c .                                           ",
"                % #.{ E E E E ] ] E E ] ] ] ] ] ] ] ] [ ] ] ] [ [ [ ] [ e.g.6 .                                         ",
"                & o.{ E E E R E E E E E ' ' ] ] ] ] ] ' ] ] ] ] ] ] [ [ [ [ ~ 1 .                                       ",
"                o p | R R R R R R E R E ] E E E E E ] ] ] ' ] ] ] ] ] ] ] [ r.#.>                                       ",
"                  % P ] E T R T R R R E E R R E E ' ' ' ' ] ' ] ] ' ] ] ] ] ] { f #                                     ",
"                    1 | T T E T R T R R R R E R R R E R ' ' ' ' ' ] ' ' ' ] ' ] W d +                                   ",
"                    - r 1.R T T T R T R T R R T R R R R R R E R ' ' ' R ' ' ' ' E ^ r .                                 ",
"                      ; 3.} R T T T T T T T T T R R R R R R R R R R E R E ' E E E E ^ 2 X                               ",
"                      & * 4._ R U T T U T T T T U R R Y Y R R R R R R R R R R R E R R h <                               ",
"                      . 6 t 6.<.( R U T T U T U U U T T T Y Y U R Y R R Y R R R R R R W j 3                             ",
"                        . v =.7.3.1./ U U U U U T U U U U U U U U R Y T T R R R R T T E W g .                           ",
"                          + ..6.8.5.4.) / U U U U U U U U U U U U U U U Y U U T U R R } <.1.>                           ",
"                            # o.,.8.8.7.-.<.) / Y Y U U U U U U U U U U U U Y / ( _ 3.5.9.6.y                           ",
"                              o n 6.8.8.:.:.;.-.2.1.1.) I / / Y Y Y / ( ( _ <.2.5.9.8.9.6.t                             ",
"                                . p 0.9.;.:.:.:.:.:.:.:.:.;.:.;.;.;.;.;.5.7.8.:.:.8.8.I : .                             ",
"                                  . ; O.,.8.:.:.:.:.:.:.:.:.:.:.:.:.:.:.:.:.:.:.8.-.u O .                               ",
"                                      + 1 n *.,.>.:.:.:.:.:.:.:.:.:.:.:.;.>.-.=.i @ .                                   ",
"                                        . + < n +.*.-.>.>.;.;.;.>.>.>.-.=.I y * O                                       ",
"                                            . + = 1 a  .X.+.@.@.+.+.O.r * @ O .                                         ",
"                                                    . . X X X O X X . .                                                 ",
"                                                                                                                        ",
"                                                                                                                        ",
"                                                                                                                        ",
"                                                                                                                        ",
"                                                                                                                        ",
"                                                                                                                        "
};
