/* XPM */
static char *result[] = {
/* columns rows colors chars-per-pixel */
"60 60 212 2 ",
"   c #3B3E3D",
".  c #353838",
"X  c #3E413E",
"o  c #46463C",
"O  c #58573E",
"+  c #524F3A",
"@  c #3E4141",
"#  c #434544",
"$  c #474943",
"%  c #494B49",
"&  c #4E5048",
"*  c #56584A",
"=  c #6A6948",
"-  c #666856",
";  c #757149",
":  c #787965",
">  c #8E6F14",
",  c #936E15",
"<  c #9B6E16",
"1  c #8F7013",
"2  c #947414",
"3  c #997614",
"4  c #977815",
"5  c #9C7B14",
"6  c #957519",
"7  c #9C751B",
"8  c #97781A",
"9  c #9B7C1A",
"0  c #A46D16",
"q  c #AB6D16",
"w  c #A76F18",
"e  c #B46D17",
"r  c #BB6C17",
"t  c #B46F18",
"y  c #A07F14",
"u  c #A4731A",
"i  c #AE7219",
"p  c #A4761B",
"a  c #B5721B",
"s  c #B97019",
"d  c #9C7C23",
"f  c #9D7F2C",
"g  c #A97B26",
"h  c #B67825",
"j  c #A47F33",
"k  c #B07F38",
"l  c #C56B17",
"z  c #CB6A16",
"x  c #C96D18",
"c  c #C26F19",
"v  c #D26D19",
"b  c #D96C18",
"n  c #C9721B",
"m  c #D5701B",
"M  c #E36C19",
"N  c #EC6D1B",
"B  c #E06B17",
"V  c #F26917",
"C  c #FE671C",
"Z  c #F36A1A",
"A  c #FC691C",
"S  c #EE711E",
"D  c #CA7626",
"F  c #D97727",
"G  c #D77B32",
"H  c #FD6723",
"J  c #F66E21",
"K  c #FC6B24",
"L  c #FA6B2C",
"P  c #E97426",
"I  c #FA7129",
"U  c #F67327",
"Y  c #F96B31",
"T  c #EC7C31",
"R  c #F87331",
"E  c #897F42",
"W  c #9F801A",
"Q  c #A38215",
"!  c #A88616",
"~  c #A4841A",
"^  c #A8871C",
"/  c #A7881D",
"(  c #AB8A1D",
")  c #B08E1E",
"_  c #B4921D",
"`  c #B9961D",
"'  c #BD9A1E",
"]  c #9E8123",
"[  c #9E812A",
"{  c #9E8132",
"}  c #A38423",
"|  c #A98621",
" . c #AD8C22",
".. c #A2852D",
"X. c #AB8D2A",
"o. c #A68825",
"O. c #B08F22",
"+. c #B18F29",
"@. c #AF912E",
"#. c #AF9027",
"$. c #B39224",
"%. c #B89724",
"&. c #BC9A23",
"*. c #B39229",
"=. c #B9972C",
"-. c #BC9A2C",
";. c #A68934",
":. c #AB8F32",
">. c #A68937",
",. c #AE9035",
"<. c #AE923B",
"1. c #B29534",
"2. c #B2953B",
"3. c #B99A37",
"4. c #C19E1E",
"5. c #C5A11F",
"6. c #CCA71F",
"7. c #D2AD1F",
"8. c #DBB51F",
"9. c #D6B11F",
"0. c #C19E22",
"q. c #C19E29",
"w. c #C29F30",
"e. c #E08330",
"r. c #C5A222",
"t. c #C9A621",
"y. c #CDAA23",
"u. c #C4A22B",
"i. c #CDA92B",
"p. c #D2AD22",
"a. c #D3AF2C",
"s. c #D5B123",
"d. c #DBB522",
"f. c #DAB52B",
"g. c #DBB625",
"h. c #C4A232",
"j. c #C9A634",
"k. c #CCAA35",
"l. c #C9A73A",
"z. c #D0AE3B",
"x. c #D2AE35",
"c. c #D5B13B",
"v. c #D9B53C",
"b. c #DBB737",
"n. c #E3BC22",
"m. c #E3BD2C",
"M. c #E2BD34",
"N. c #E1BC3C",
"B. c #EBC325",
"V. c #EBC42C",
"C. c #EAC329",
"Z. c #F3CB2B",
"A. c #F8D42F",
"S. c #EAC337",
"D. c #F3CD34",
"F. c #F1CB3C",
"G. c #F6D235",
"H. c #F9D532",
"J. c #F9DC3B",
"K. c #F8D538",
"L. c #FCE13E",
"P. c #898449",
"I. c #948D4A",
"U. c #988F50",
"Y. c #B59944",
"T. c #A69C55",
"R. c #B9AB4B",
"E. c #BDB251",
"W. c #BDAD56",
"Q. c #85866A",
"!. c #939477",
"~. c #A39F69",
"^. c #C7AB46",
"/. c #DAB642",
"(. c #DCB843",
"). c #C8B754",
"_. c #E2BD42",
"`. c #E1BD49",
"'. c #C2BA6D",
"]. c #C6C054",
"[. c #E5C044",
"{. c #EBC645",
"}. c #EAC54D",
"|. c #E9C64B",
" X c #F3CE4C",
".X c #F4D44D",
"XX c #F8DA46",
"oX c #EECB5A",
"OX c #E9C755",
"+X c #F1CD56",
"@X c #E9D457",
"#X c #F3D354",
"$X c #F4D658",
"%X c #EFD34E",
"&X c #FAE549",
"*X c #F5E754",
"=X c #EDE052",
"-X c #D7C86F",
";X c #F3D363",
":X c #F7DA6A",
">X c #F7DD75",
",X c #EBD36C",
"<X c #F8E27B",
"1X c #B5B68D",
"2X c #D4D090",
"3X c #E7DE8A",
"4X c #F7E687",
"5X c #F9EC95",
"6X c #F5ED9D",
"7X c #D4D4A5",
"8X c #F3F0AF",
"9X c None",
/* pixels */
"9X9X9X9X9X9X9X9X9X9X9X9X9X9X9X9X9X9X9X9X9X9X9X9X9X9X9X9X9X9X9X9X9X9X9X9X9X9X9X9X9X9X9X9X9X9X9X9X9X9X9X9X9X9X9X9X9X9X9X9X",
"9X9X9X9X9X9X9X9X9X9X9X9X9X9X9X9X9X9X9X9X9X9X9X9X9X9X9X9X9X9X9X9X9X9X9X9X9X9X9X9X9X9X9X9X9X9X9X9X9X9X9X9X9X9X9X9X9X9X9X9X",
"9X9X9X9X9X9X9X9X9X9X9X9X9X9X9X9X9X9X9X9X9X9X9X9X9X9X9X9X9X9X9X9X9X9X9X9X9X9X9X9X9X9X9X9X9X9X9X9X9X9X9X9X9X9X9X9X9X9X9X9X",
"9X9X9X9X9X9X9X9X9X9X9X9X9X9X9X9X9X9X9X9X9X9X9Xj { { { { { { ....;.;.;.;.9X9X9X9X9X9X9X9X9X9X9X9X9X9X9X9X9X9X9X9X9X9X9X9X",
"9X9X9X9X9X9X9X9X9X9X9X9X9X9X9X9X9X9X9X9X9Xk j j [ [ f [ [ ] } [ X.[ X.;.;.;.<.9X9X9X9X9X9X9X9X9X9X9X9X9X9X9X9X9X9X9X9X9X",
"9X9X9X9X9X9X9X9X9X9X9X9X9X9X9X9X9XG h g g f f d d d d ] ] } ] } ] o.[ X.X.;.X.:.,.<.9X9X9X9X9X9X9X9X9X9X9X9X9X9X9X9X9X9X",
"9X9X9X9X9X9X9X9X9X9X9X9X9X9X9X9XG D g g d d 8 8 8 8 9 W ] W W ~ o.W / / ] X.X.X.,.,.<.Y.9X9X9X9X9X9X9X9X9X9X9X9X9X9X9X9X",
"9X9X9X9X9X9X9X9X9X9X9X9X9X9XT F D h g d 6 8 8 8 8 W W W W W ~ W W W / o.W  .o.X.@.:.,.,.Y.9X9X9X9X9X9X9X9X9X9X9X9X9X9X9X",
"9X9X9X9X9X9X9X9X9X9X9X9X9XT F D g d 8 8 4 4 4 4 W 8 W W W W W W ~ / / ~ | o.o. . .@.@.,.2.Y.Y.9X9X9X9X9X9X9X9X9X9X9X9X9X",
"9X9X9X9X9X9X9X9X9X9X9X9XU P D s 7 8 1 8 4 2 W 4 4 W 5 W W W Q W ~ ~ / / / / (  . .X.#.,.,.2.Y.R.9X9X9X9X9X9X9X9X9X9X9X9X",
"9X9X9X9X9X9X9X9X9X9X9XU F m a u 2 2 2 4 4 4 4 Q W W 4 W W W W Q ~ ~ ^ / / / )  . . .#.@.1.1.2.Y.Y.9X9X9X9X9X9X9X9X9X9X9X",
"9X9X9X9X9X9X9X9X9XR I J v i < 6 2 2 2 4 2 4 4 4 4 W W W Q W W ! ~ ~ ^ / / ( (  . .#.#.#.*.*.1.2.3.^.9X9X9X9X9X9X9X9X9X9X",
"9X9X9X9X9X9X9X9X9XI J N s u 6 2 2 6 2 2 4 4 Q Q 4 W W Q W W ! W ~ / / / / /  . . . .O.#.#.1.=.3.3.^.^.9X9X9X9X9X9X9X9X9X",
"9X9X9X9X9X9X9X9XI J S b a , 6 1 1 6 4 4 4 4 4 4 Q W Q W W ! W / ~ ~ / ( ( /  . . .#.O.#.#.*.*.=.3.h.z.^.9X9X9X9X9X9X9X9X",
"9X9X9X9X9X9X9XL K A M x q > 2 1 2 1 2 4 4 4 4 4 4 W W W W ! / W ^ ^ ( /  .(  . .O.O.#.#.%.*.*.1.=.h.k.z.9X9X9X9X9X9X9X9X",
"9X9X9X9X9X9X9XK J N m a < 2 1 2 2 4 4 4 4 2 Q Q 4 W W W W W / / ^ / / /  . . .O.#.#.@.*.*.*.$.%.=.u.j.x.v.9X9X9X9X9X9X9X",
"9X9X9X9X9X9XI J V B l < 2 1 1 1 2 2 4 2 2 Q Q 2 Q Q Q W Q Q W W ~ | / |  . . .#.#.*.@.*.@.*.$.%.%.q.i.a.b.(.9X9X9X9X9X9X",
"9X9X9X9X9XL L A V z e < 1 1 2 2 2 4 3 4 1 Q 2 Q Q Q W Q W W ! W ^  . .( (  . .#.#.*.*.*.#.%.%.%.%.0.i.a.f.M.N.9X9X9X9X9X",
"9X9X9X9X9XL H A B z q 1 1 1 2 2 2 2 3 3 Q 2 2 Q 1 Q Q W W ! ! / ^ ^ ( (  . . .O.X.*.*.*.*.%.%.%.0.r.i.s.f.M.M.9X9X9X9X9X",
"9X9X9X9XL K A Z B l q 1 1 1 1 1 2 2 1 Q 2 2 Q Q Q Q W Q ! ! W / ^ /  . . . . .*.*.*.*.*.%.$.$.%.&.r.y.s.g.m.S.9X9X9X9X9X",
"9X9X9X9XL H A V b e < 1 1 1 1 3 2 2 1 Q 2 3 Q 3 Q Q W Q W ! ~ / / ( ( (  .O.O.*.*.*.*.*.$.%.%.&.0.t.y.s.g.C.C.9X9X9X9X9X",
"9X9X9X9XH H A N z q , 1 1 < 1 3 1 Q Q 2 2 Q 2 Q Q Q Q Q ! / ! / ( (  . . .O.O.#.+.*.$.$.%.%.` &.0.t.7.s.g.n.C.F.9X9X9X9X",
"9X9X9XL H C V B z 0 , 1 1 2 1 2 2 Q 2 2 Q 2 Q Q 5 Q W Q W ! ! / / ( (  .O.O.O.#.$.$.$.$.$.` ` ' r.6.9.s.8.B.V.F.9X9X9X9X",
"9X9X9XL C C V B l < , > 1 1 2 2 2 2 2 Q 2 Q Q 3 5 Q Q W ! ! ! / ( (  . . .#.O.$.$.$.$.$.` ` %.' 5.6.9.8.n.B.V.D.G.9X9X9X",
"9X9XY L H C Z b r < > > , , 2 3 3 2 Q 3 3 Q Q 5 Q Q Q Q Q Q ! ! ( ( O.( O.$.$.$.$.$._ _ ` ` ' 5.5.7.9.8.8.B.Z.A.K.9X9X9X",
"9X9XY H H C V b e < > > 1 1 1 2 2 2 2 2 3 5 3 Q 5 Q Q Q Q Q ! ! ( (  .O.O.O.O.O.O._ _ _ _ ` ' 5.5.7.8.8.n.B.Z.A.K.9X9X9X",
"9X9XL H C C V b e < > 1 1 1 3 2 3 3 3 Q Q 3 Q 5 Q Q Q Q ! ! ! ) ( ( (  .O.O.$.O._ _ _ _ ` ' ' 5.6.9.8.8.n.B.Z.A.K.9X9X9X",
"9X9XL H C C V z q < > 1 < 1 2 3 1 Q 3 3 3 Q 5 Q Q Q Q Q ! ! ! ! ( ( )  . .O._ _ _ _ _ ` ` ' 5.6.y.9.8.B.B.B.Z.A.K.9X9X9X",
"9X9XL H C C V z q < 1 1 1 2 2 3 2 3 Q 3 Q 3 Q 5 Q Q Q Q ! ! ! ! ! _ ) ) ) ) ! _ _ _ _ _ ' ' 5.6.y.8.g.n.B.Z.Z.A.J.J.9X9X",
"9X9XL H C C V z q 1 1 1 2 2 2 2 3 3 Q 3 3 3 Q Q Q Q Q Q ! ! ! ) ( ( ) ) ) _ _ _ _ _ _ ` ' 5.6.6.9.d.n.C.Z.Z.A.H.J.XX9X9X",
"9X9XL H C C V l q 1 1 1 1 2 2 3 3 3 2 Q Q Q Q Q Q Q Q ! ! ! ! ( ! _ ! ) ) ) _ _ _ _ ` ` &.r.y.y.s.g.m.C.V.Z.A.J.J.XX9X9X",
"9X9XH C C C V l q 2 1 1 1 2 2 2 3 3 3 3 3 3 Q Q Q Q Q ! ! ( ) ! ! ( _ ) ) _ _ _ _ _ ` ` 0.t.y.p.d.m.C.V.Z.A.H.J.&X&X9X9X",
"9X9XL H C A V l 0 , , 1 6 2 2 2 3 5 5 5 y y y Q Q Q ! ! | X.| | ( ) ) ) ) _ _ _ _ ` %.4.0.y.a.s.f.M.V.D.D.G.J.L.&X&X9X9X",
"9X9XL K C A V l 0 , > 1 6 2 3 2 3 3 5 5 5 y y y Q Q ! !  .9X9X| ( ) ) ) O._ O._ %.` 0.0.t.i.a.f.M.S.F.F.F.XXJ.&X&X9X9X9X",
"9X9XY H C A V l q , , , 2 2 2 3 3 5 5 5 5 y y y y ! ( ) 9X9X9X9X| ) ) O.O._ O.%.%.%.0.0.i.a.f.M.M.S.F.XXXXXXXX&X&X9X9X9X",
"9X9XY H A A V x q , , 1 , 2 3 3 3 7 5 5 y y y y ! ^ O.9X9X9X9X9X| | O.O.O.O.%.%.%.&.q.w.i.a.b.N.S.{. XXX.XXX&X*X*X9X9X9X",
"9X9XY L A A Z x q , , 1 2 2 2 3 3 5 5 y 5 y Q Q ^  .9X9X9X9X9X9X9XO.O.O.$.$.%.*.q.q.w.j.x.c.N.N.|.%X#X.X$X@X@X=X*X9X9X9X",
"9X9X9XL H A Z v a , 6 , 2 2 6 3 5 3 5 5 y y ~ | 9X9X9X9X9X9X9X9X9X9X .$.$.*.*.=.q.w.i.x.N._._.}.%X$X:X:X@XE.E.E.].9X9X9X",
"9X9X9XL K A Z m r < , 6 2 2 3 3 3 5 5 y y ~ ^ 9X9X9X9X9X9X9X9X9X9X9XX.+.*.=.=.q.w.j.x.c._.`.}.+X$X>X<X-XW.P.P.I.9X9X9X9X",
"9X9X9X9XL A A b c 0 < 2 6 2 6 3 5 7 5 y ~ ^ 9X9X9X9X9X9X9X9X9X9X9X9XX.+.$.*.=.w.h.k.z./.`.}.oX;X<X<X4X'.U.* O = 9X9X9X9X",
"9X9X9X9XI K A M x 0 < 6 2 2 3 6 5 9 y ~ | 9X9X9X9X9X9X9X9X9X9X9X9X9X9X+.+.=.q.h.k.z./.`.`.oX;X>X4X5X3X~.= $ o * 9X9X9X9X",
"9X9X9X9XI A A S v i 7 , 2 6 6 3 3 9 y | 9X9X9X9X9X9X9X9X9X9X9X9X9X9X9X9X+.=.w.h.k./.`.`.`.;X>X4X5X6X2XQ.& X X 9X9X9X9X9X",
"9X9X9X9X9XI A S b s u 6 6 2 3 9 ~ ~  .9X9X9X9X9X9X9X9X9X9X9X9X9X9X9X9X9X=.=.w.k.z./.`.`.oX:X>X5X8X8X7XQ.* @ @ 9X9X9X9X9X",
"9X9X9X9X9XI I J M n i 6 6 3 7 9 p | 9X9X9X9X9X9X9X9X9X9X9X9X9X9X9X9X9X9X9X=.w.z././.`.OX;X>X5X6X8X8X7XQ.* $ 9X9X9X9X9X9X",
"9X9X9X9X9X9XI J S m a 3 6 6 9 g | 9X9X9X9X9X9X9X9X9X9X9X9X9X9X9X9X9X9X9X9Xw.h.c._._.`.+X;X>X5X6X8X7X1X: * % 9X9X9X9X9X9X",
"9X9X9X9X9X9X9XI J b c p p 9 9 } 9X9X9X9X9X9X9X9X9X9X9X9X9X9X9X9X9X9X9X9X9X9Xj.c._._.+X+X>X>X3X2X1X!.Q.- & 9X9X9X9X9X9X9X",
"9X9X9X9X9X9X9XU U S m i p } 9X9X9X9X9X9X9X9X9X9X9X9X9X9X9X9X9X9X9X9X9X9X9X9Xk.b.N._.+X+X:X:X-X~.- * $ % # 9X9X9X9X9X9X9X",
"9X9X9X9X9X9X9X9XU P F h | 9X9X9X9X9X9X9X9X9X9X9X9X9X9X9X9X9X9X9X9X9X9X9X9X9X9Xv._._. X+X;X-X~.; $ @   @ 9X9X9X9X9X9X9X9X",
"9X9X9X9X9X9X9X9X9Xe.e.9X9X9X9X9X9X9X9X9X9X9X9X9X9X9X9X9X9X9X9X9X9X9X9X9X9X9X9Xc.b.{..X#XoXW.; + . X $ 9X9X9X9X9X9X9X9X9X",
"9X9X9X9X9X9X9X9X9X9X9X9X9X9X9X9X9X9X9X9X9X9X9X9X9X9X9X9X9X9X9X9X9X9X9X9X9X9X9X9X[.{..X#X).U.O o . X 9X9X9X9X9X9X9X9X9X9X",
"9X9X9X9X9X9X9X9X9X9X9X9X9X9X9X9X9X9X9X9X9X9X9X9X9X9X9X9X9X9X9X9X9X9X9X9X9X9X9X9X[.{..X%X^.{ $ X X 9X9X9X9X9X9X9X9X9X9X9X",
"9X9X9X9X9X9X9X9X9X9X9X9X9X9X9X9X9X9X9X9X9X9X9X9X9X9X9X9X9X9X9X9X9X9X9X9X9X9X9X9X9X{..X%X^.I.= & 9X9X9X9X9X9X9X9X9X9X9X9X",
"9X9X9X9X9X9X9X9X9X9X9X9X9X9X9X9X9X9X9X9X9X9X9X9X9X9X9X9X9X9X9X9X9X9X9X9X9X9X9X9X9X9X.X%X).T.; 9X9X9X9X9X9X9X9X9X9X9X9X9X",
"9X9X9X9X9X9X9X9X9X9X9X9X9X9X9X9X9X9X9X9X9X9X9X9X9X9X9X9X9X9X9X9X9X9X9X9X9X9X9X9X9X9X$X$X@X9X9X9X9X9X9X9X9X9X9X9X9X9X9X9X",
"9X9X9X9X9X9X9X9X9X9X9X9X9X9X9X9X9X9X9X9X9X9X9X9X9X9X9X9X9X9X9X9X9X9X9X9X9X9X9X9X9X9X9X9X9X9X9X9X9X9X9X9X9X9X9X9X9X9X9X9X",
"9X9X9X9X9X9X9X9X9X9X9X9X9X9X9X9X9X9X9X9X9X9X9X9X9X9X9X9X9X9X9X9X9X9X9X9X9X9X9X9X9X9X9X9X9X9X9X9X9X9X9X9X9X9X9X9X9X9X9X9X",
"9X9X9X9X9X9X9X9X9X9X9X9X9X9X9X9X9X9X9X9X9X9X9X9X9X9X9X9X9X9X9X9X9X9X9X9X9X9X9X9X9X9X9X9X9X9X9X9X9X9X9X9X9X9X9X9X9X9X9X9X",
"9X9X9X9X9X9X9X9X9X9X9X9X9X9X9X9X9X9X9X9X9X9X9X9X9X9X9X9X9X9X9X9X9X9X9X9X9X9X9X9X9X9X9X9X9X9X9X9X9X9X9X9X9X9X9X9X9X9X9X9X",
"9X9X9X9X9X9X9X9X9X9X9X9X9X9X9X9X9X9X9X9X9X9X9X9X9X9X9X9X9X9X9X9X9X9X9X9X9X9X9X9X9X9X9X9X9X9X9X9X9X9X9X9X9X9X9X9X9X9X9X9X",
"9X9X9X9X9X9X9X9X9X9X9X9X9X9X9X9X9X9X9X9X9X9X9X9X9X9X9X9X9X9X9X9X9X9X9X9X9X9X9X9X9X9X9X9X9X9X9X9X9X9X9X9X9X9X9X9X9X9X9X9X"
};
