/* XPM */
static char *result[] = {
/* columns rows colors chars-per-pixel */
"60 60 224 2 ",
"   c #000000",
".  c #090606",
"X  c #0C0906",
"o  c #0C0B09",
"O  c #110B05",
"+  c #120D0B",
"@  c #1E0F08",
"#  c #14110B",
"$  c #16130A",
"%  c #1D1B12",
"&  c #181613",
"*  c #2D160A",
"=  c #21160A",
"-  c #221D15",
";  c #2A1A11",
":  c #361B0E",
">  c #2C2414",
",  c #2B261B",
"<  c #352E1C",
"1  c #372317",
"2  c #38331C",
"3  c #29250E",
"4  c #2A2C2B",
"5  c #242425",
"6  c #322B23",
"7  c #3C3626",
"8  c #333427",
"9  c #2F3332",
"0  c #333634",
"q  c #35393B",
"w  c #3C3D3C",
"e  c #363938",
"r  c #523516",
"t  c #71370F",
"y  c #693B1E",
"u  c #6B3311",
"i  c #753511",
"p  c #473B27",
"a  c #643D2A",
"s  c #3C403D",
"d  c #53441A",
"f  c #735F1D",
"g  c #6E541A",
"h  c #7B600D",
"j  c #7C6216",
"k  c #44412C",
"l  c #4E4628",
"z  c #544A28",
"x  c #5E562A",
"c  c #4A4934",
"v  c #584A34",
"b  c #565237",
"n  c #79492D",
"m  c #675C38",
"M  c #7D5F36",
"N  c #6C502F",
"B  c #76662B",
"V  c #6B6334",
"C  c #7F6E3B",
"Z  c #746736",
"A  c #787032",
"S  c #7C792E",
"D  c #3D3F40",
"F  c #3F4143",
"G  c #444547",
"H  c #4E5145",
"J  c #505342",
"K  c #6F6340",
"L  c #75704F",
"P  c #855114",
"I  c #B74E11",
"U  c #936E00",
"Y  c #9B6B01",
"T  c #967100",
"R  c #9B7401",
"E  c #9E7901",
"W  c #9B740A",
"Q  c #8F7113",
"!  c #9D7E17",
"~  c #96781B",
"^  c #8A6B0C",
"/  c #A26B01",
"(  c #AB6A01",
")  c #B36A01",
"_  c #BC6B01",
"`  c #B96B06",
"'  c #A07601",
"]  c #A37C00",
"[  c #A87F01",
"{  c #A57C0A",
"}  c #BD7204",
"|  c #A87C12",
" . c #884D2F",
".. c #8F542C",
"X. c #99502D",
"o. c #825031",
"O. c #925332",
"+. c #A95328",
"@. c #B35324",
"#. c #846B25",
"$. c #887825",
"%. c #8B793E",
"&. c #9B7E25",
"*. c #D25210",
"=. c #CD520B",
"-. c #E75A09",
";. c #F65C06",
":. c #FE5C01",
">. c #F35C09",
",. c #E25F14",
"<. c #CA6B02",
"1. c #C76804",
"2. c #DB6503",
"3. c #DD6804",
"4. c #D46802",
"5. c #EC6502",
"6. c #E86508",
"7. c #F46101",
"8. c #FC6102",
"9. c #F86605",
"0. c #C36025",
"q. c #A68101",
"w. c #AB8401",
"e. c #AE8801",
"r. c #AA840C",
"t. c #A3800E",
"y. c #B38C01",
"u. c #B88F01",
"i. c #B18B09",
"p. c #B69003",
"a. c #BB9201",
"s. c #B5910B",
"d. c #BB9508",
"f. c #A48214",
"g. c #A38318",
"h. c #BA961B",
"j. c #B59514",
"k. c #A5941F",
"l. c #AFA41E",
"z. c #B9A91A",
"x. c #948032",
"c. c #9A8B25",
"v. c #A68A28",
"b. c #AF9C21",
"n. c #A68B35",
"m. c #B7972D",
"M. c #C09701",
"N. c #C49A01",
"B. c #C99E01",
"V. c #C79E0E",
"C. c #C29B12",
"Z. c #CDA202",
"A. c #CEA50B",
"S. c #D1A602",
"D. c #D5AA01",
"F. c #DAAE01",
"G. c #D9AE0B",
"H. c #D3A90B",
"J. c #DEB202",
"K. c #DBB20D",
"L. c #C4B215",
"P. c #D9B314",
"I. c #CFA91C",
"U. c #E2B501",
"Y. c #E6B903",
"T. c #EBBC02",
"R. c #E3B709",
"E. c #E3BA0A",
"W. c #EABD0E",
"Q. c #E1B611",
"!. c #E7BB18",
"~. c #C09D29",
"^. c #D0B92E",
"/. c #C6AD27",
"(. c #EDC00C",
"). c #EDC806",
"_. c #F2C302",
"`. c #F7C801",
"'. c #F9CC02",
"]. c #F4C40E",
"[. c #FBD301",
"{. c #FADB03",
"}. c #F8D407",
"|. c #F5C917",
" X c #EFD11A",
".X c #FBD31B",
"XX c #FCD918",
"oX c #F7E109",
"OX c #EEE510",
"+X c #FBE619",
"@X c #ECC127",
"#X c #F3C625",
"$X c #FBD72B",
"%X c #EFC533",
"&X c #F5CB3D",
"*X c #F7CC38",
"=X c #FBD438",
"-X c #EDE131",
";X c #FEE53C",
":X c #EEE326",
">X c #8F8C47",
",X c #A3A05F",
"<X c #B9B457",
"1X c #C6BB4B",
"2X c #F6CE45",
"3X c #F7DA46",
"4X c #FAD955",
"5X c #FCE254",
"6X c #FEF05C",
"7X c #FBDE66",
"8X c #EDE26D",
"9X c #FCE66E",
"0X c #FCE874",
"qX c #FAF47A",
"wX c #A6A783",
"eX c #CBCB94",
"rX c #EAE68C",
"tX c #FDEF87",
"yX c #FDF38E",
"uX c #FDF793",
"iX c #D0D1A2",
"pX c #FCFCB4",
"aX c #FEFCAA",
"sX c #FAFACA",
/* pixels */
"                                                                                                                        ",
"                                                                                                                        ",
"                                                                                                                        ",
"                                                                                                                        ",
"                                                                                                                        ",
"                                                                                                                        ",
"                                                                                                                        ",
"                                                . . o + + # + # + o o .                                                 ",
"                                          . . + % 7 b m m Z Z m V b 7 % o .                                             ",
"                                        . - p Z #.~ ~ g.g.f.f.f.t.c.g.$.Z b - o                                         ",
"                                    . - : P f.t.E E E E E q.[ q.q.e.q.i.i.j.v.C 7 o                                     ",
"                                . # * r ` { T E E E E q.q.] q.q.q.q.e.q.e.e.i.j.v.L , .                                 ",
"                              o 6 * 3.} R T E E E E E E q.q.q.q.q.q.e.e.e.e.e.i.s.h.n.c o                               ",
"                            + v u 2.} W T R E T E E ] q.E q.] q.q.e.e.w.e.e.i.y.y.s.h.n.K $                             ",
"                          # ..=.6.} R T R R R E E E q.] ] q.q.q.q.w.e.e.e.e.e.y.i.u.s.h.m.%.3                           ",
"                        o o.6.7.<.Y T T T T E E E ] E ] q.q.q.q.w.w.w.w.e.y.y.y.u.u.u.d.h.m.%.%                         ",
"                    . X n 6.7.2.( U T T E T E E E E ] q.q.q.q.q.w.w.w.e.e.y.y.y.p.y.p.p.d.A.~.A o                       ",
"                    . p ,.8.5.1.R U T T T R E E E ] ] ] q.q.q.w.w.e.w.e.e.y.y.y.p.p.p.a.d.d.A.I.m o                     ",
"                    - 0.8.8.4./ T T T T R R R E ] ] ] q.q.q.w.q.w.e.w.y.y.y.y.y.p.p.p.p.a.d.Z.G.I.8 .                   ",
"                  o O.9.:.7._ U U T T R R R ] R E ] ] ] q.q.w.w.w.w.y.w.e.p.p.p.p.a.p.a.a.a.Z.D.E.v.$                   ",
"                . 1 *.8.:.5./ U U T T T E E ] ] ] ] ] ] q.q.w.w.w.y.y.y.y.y.u.u.p.a.a.a.a.N.Z.D.U.E.l .                 ",
"                +  .8.8.:.1.U U U T T T R E R ' ] ] q.[ q.w.w.w.w.w.w.y.y.i.u.s.p.a.a.a.a.N.Z.D.J._.c.$                 ",
"              . 6 *.:.:.;.) U U U T T R R R ] ] ] ] [ [ q.w.w.w.e.y.y.y.y.y.u.u.a.a.a.a.d.N.Z.D.U.T.G.l o               ",
"              # n -.:.:.-./ U U T T T T R E E ] ] [ [ [ q.w.w.w.w.w.y.y.y.y.u.u.a.a.a.a.d.Z.S.D.U.T.(.A $               ",
"              @ +.;.:.:.-.Y U U U T R R R ' ' ] ] ] [ ] q.w.w.e.w.w.u.y.y.y.u.a.a.a.a.a.N.B.S.F.U.T._.h.3               ",
"              1 *.:.:.:.=.U U U R Y R R R R ' ] ] [ [ [ w.w.w.e.e.e.y.u.y.u.u.u.a.a.a.M.N.B.D.J.Y.T.'.K.z               ",
"            . a -.:.:.:._ U U U U R R R ' ] ' ] ] ] [ [ [ [ w.e.w.u.y.y.y.u.u.u.a.a.a.M.N.S.D.F.T._.'.).B X             ",
"            .  .-.:.:.:.) U U U U R R R R ' ] ] [ [ [ w.e.[ e.e.y.w.y.y.u.u.u.u.a.a.a.N.B.S.F.U.T.T.'.).c.o             ",
"            X X.>.:.:.:.( U U T Y T R R ' ' ] ] [ [ [ [ [ e.e.w.w.u.u.y.u.u.u.u.a.a.M.N.Z.D.F.U.T._.`.}.k.X             ",
"            X +.;.:.:.;./ U U T T R R R ' ' ] ] [ [ [ w.e.[ w.w.y.w.y.u.u.u.a.a.a.a.N.B.S.D.U.T._.`.'.}.l.X             ",
"            X @.;.:.:.;./ U U Y Y R R ' ' ' ] ] ] [ q.w.w.w.y.y.y.y.y.y.u.u.u.a.a.a.N.Z.S.F.U.T._.`.[.{.L.O             ",
"            O @.;.:.:.;.Y U U U R R R R ' ] ] ] [ [ q.w.w.} y.w.y.y.y.u.u.u.u.a.a.M.N.S.F.F.Y._._.'.{.oXL.$             ",
"            O +.;.:.:.;.Y U U U R R R ' ' ] ] [ [ [ [ [ w.r.~ r.y.y.y.u.u.u.a.u.M.N.B.D.J.U.T.T.`.'.{.{.z.$             ",
"            . +.>.:.:.5.Y U U U R R R ' R ] ] ] [ [ [ e.t.B > #.e.y.u.u.u.u.a.M.M.N.Z.F.J.Y.T.`.'.[.{.{.l.O             ",
"            .  .>.:.:.;./ U U Y Y R R ] ] ] ] [ [ w.e.{ m .   p W y.u.u.u.a.a.M.N.B.D.F.T.T.`.'.[.{.oXOXc.O             ",
"              y -.:.:.;./ U U R R R R ' ' ] ] ] [ w.{ v o     # M r.u.u.a.a.a.M.N.D.F.U.T.T.]..XXX+X+XOXS o             ",
"              * =.:.:.7.) U U Y R R R R ' ] ] [ [ f.k .       . < Q u.u.a.M.M.N.Z.D.R.T.W.|.=X=X;X;X:X:XV .             ",
"              @ I ;.:.8._ U U R R R ' ' ' ] [ q.g.v .           . x e.u.a.a.N.B.H.G.R.W.#X*X3X5X6X^.x S < .             ",
"              + y -.:.8.<.Y U R R R ' ' ] ] r.~ 6 .               - Q M.M.M.B.A.G.Q.!.%X2X4X9XqX<Xs e c o               ",
"                * =.8.:.2./ U R R R ' ' ] { $., .                 X z i.M.N.V.G.P.!.@X2X4X9XuXrXc 9 s 9 o               ",
"                . i 8.8.5.( R R R R ] ] W f > .                     - Q N.B.H.G.!.@X&X4X7XyXpXeX4 q w &                 ",
"                . @ -.:.9._ Y T R R R ^ d #                         . < d.Z.G.Q.!.%X2X7XtXpXsXeX0 q e .                 ",
"                  . u :.8.4.R R R R ^ p +                             . &.H.G.W.@X*X4X0XuXpXsXiXe D o                   ",
"                    O I 8.5.) R R h 2 o                                 p V.R.W.@X*X4X0XrXeXwXL w 4                     ",
"                      : 6.9.<.{ j 2 o                                   X &.E.].#X=X4X8X,XH s D G o                     ",
"                      . t 6.1.g = .                                       c K.].#X=X5X1XJ 0 q G o                       ",
"                          g > .                                             v.].XX$X3XA 0 0 F 4                         ",
"                                                                            z K.XX$X^.k q D w                           ",
"                                                                            # x. XOXl.c H w                             ",
"                                                                            . p ^.+X-X>X8 o                             ",
"                                                                              $ A /.Z & .                               ",
"                                                                              . % < # .                                 ",
"                                                                                  .                                     ",
"                                                                                                                        ",
"                                                                                                                        ",
"                                                                                                                        ",
"                                                                                                                        ",
"                                                                                                                        ",
"                                                                                                                        ",
"                                                                                                                        "
};
