/* XPM */
static char *result[] = {
/* columns rows colors chars-per-pixel */
"60 60 212 2 ",
"   c #3B3E3D",
".  c #353838",
"X  c #3E413E",
"o  c #46463C",
"O  c #59573E",
"+  c #524F3A",
"@  c #3E4141",
"#  c #434544",
"$  c #474943",
"%  c #494B49",
"&  c #4E5048",
"*  c #56584A",
"=  c #6A6949",
"-  c #676856",
";  c #757149",
":  c #787A65",
">  c #8E6F14",
",  c #936E15",
"<  c #9C6E16",
"1  c #8F7013",
"2  c #947414",
"3  c #997614",
"4  c #977815",
"5  c #9C7B14",
"6  c #957519",
"7  c #9C751B",
"8  c #97781A",
"9  c #9B7C1A",
"0  c #A46D16",
"q  c #AB6D16",
"w  c #A76F18",
"e  c #B46D17",
"r  c #BB6C17",
"t  c #B46F18",
"y  c #A07F14",
"u  c #A4731A",
"i  c #AE7219",
"p  c #A4761B",
"a  c #B5721B",
"s  c #B97019",
"d  c #9C7C23",
"f  c #9D7F2C",
"g  c #A97B26",
"h  c #B67825",
"j  c #A47F33",
"k  c #C56B17",
"l  c #CB6A16",
"z  c #C96D18",
"x  c #C26F19",
"c  c #D26C19",
"v  c #D96C18",
"b  c #C9721B",
"n  c #D5701B",
"m  c #E36C19",
"M  c #EC6D1B",
"N  c #E06B17",
"B  c #F26917",
"V  c #FE671C",
"C  c #F36A1A",
"Z  c #FC691C",
"A  c #EE711E",
"S  c #CA7627",
"D  c #D97727",
"F  c #D77B32",
"G  c #FD6723",
"H  c #F66E21",
"J  c #FC6B24",
"K  c #FA6B2C",
"L  c #E97426",
"P  c #FA7129",
"I  c #F67327",
"U  c #F96B31",
"Y  c #EC7C31",
"T  c #F87331",
"R  c #897F42",
"E  c #9F801A",
"W  c #A38215",
"Q  c #A88616",
"!  c #A4841A",
"~  c #A8871C",
"^  c #A7881D",
"/  c #AB8A1D",
"(  c #B18F1E",
")  c #B4921D",
"_  c #B8961D",
"`  c #BD9A1E",
"'  c #9E8123",
"]  c #9E812A",
"[  c #9E8132",
"{  c #A38423",
"}  c #A98621",
"|  c #A78923",
" . c #AD8C22",
".. c #A2852D",
"X. c #AB8D2A",
"o. c #A68929",
"O. c #B08F22",
"+. c #B18F29",
"@. c #AF912E",
"#. c #AF9027",
"$. c #B39224",
"%. c #B89723",
"&. c #BC9A23",
"*. c #B39229",
"=. c #B9972C",
"-. c #BC9A2C",
";. c #A68934",
":. c #AB8F32",
">. c #A68937",
",. c #AE9035",
"<. c #AE923B",
"1. c #B29534",
"2. c #B2953B",
"3. c #B99A37",
"4. c #B08038",
"5. c #C19E1E",
"6. c #C5A11F",
"7. c #CAA61F",
"8. c #CFAA1F",
"9. c #D2AD1F",
"0. c #DBB51F",
"q. c #D6B11F",
"w. c #C19E25",
"e. c #C19F30",
"r. c #E08330",
"t. c #C5A222",
"y. c #C9A621",
"u. c #CDAA23",
"i. c #C4A22B",
"p. c #CDA92B",
"a. c #D2AD22",
"s. c #D3AF2C",
"d. c #D5B123",
"f. c #DBB522",
"g. c #DAB52B",
"h. c #DBB625",
"j. c #C4A232",
"k. c #C9A634",
"l. c #CCAA35",
"z. c #C9A73A",
"x. c #D0AE3B",
"c. c #D2AE35",
"v. c #D5B13B",
"b. c #D9B53C",
"n. c #DBB737",
"m. c #E3BC22",
"M. c #E3BD2C",
"N. c #E2BD34",
"B. c #E1BC3C",
"V. c #EBC325",
"C. c #EBC42C",
"Z. c #EAC329",
"A. c #F3CB2B",
"S. c #F8D42F",
"D. c #EAC337",
"F. c #F3CD34",
"G. c #F1CB3C",
"H. c #F6D235",
"J. c #F9D532",
"K. c #F9DC3B",
"L. c #F8D538",
"P. c #FCE13E",
"I. c #8A8449",
"U. c #948D4A",
"Y. c #988F50",
"T. c #B59944",
"R. c #A69C55",
"E. c #BAAB4B",
"W. c #BDB351",
"Q. c #BDAD56",
"!. c #85866B",
"~. c #939477",
"^. c #A39F69",
"/. c #C7AB46",
"(. c #DAB642",
"). c #DCB843",
"_. c #C8B754",
"`. c #E2BD42",
"'. c #E1BC49",
"]. c #C3BA6D",
"[. c #C6C054",
"{. c #EBC645",
"}. c #EAC54D",
"|. c #E8C448",
" X c #F3CE4C",
".X c #F4D44D",
"XX c #F8DA46",
"oX c #EECB5A",
"OX c #E9C755",
"+X c #F1CD56",
"@X c #E9D457",
"#X c #F4D354",
"$X c #F4D658",
"%X c #EFD34E",
"&X c #FAE549",
"*X c #F5E754",
"=X c #EDE052",
"-X c #D7C86F",
";X c #F3D363",
":X c #F7DA6A",
">X c #F7DD74",
",X c #EBD36C",
"<X c #F8E27B",
"1X c #B6B68D",
"2X c #D4D090",
"3X c #E7DE8A",
"4X c #F7E687",
"5X c #F9EC95",
"6X c #F5ED9D",
"7X c #D4D4A5",
"8X c #F3F0AF",
"9X c None",
/* pixels */
"9X9X9X9X9X9X9X9X9X9X9X9X9X9X9X9X9X9X9X9X9X9X9X9X9X9X9X9X9X9X9X9X9X9X9X9X9X9X9X9X9X9X9X9X9X9X9X9X9X9X9X9X9X9X9X9X9X9X9X9X",
"9X9X9X9X9X9X9X9X9X9X9X9X9X9X9X9X9X9X9X9X9X9X9X9X9X9X9X9X9X9X9X9X9X9X9X9X9X9X9X9X9X9X9X9X9X9X9X9X9X9X9X9X9X9X9X9X9X9X9X9X",
"9X9X9X9X9X9X9X9X9X9X9X9X9X9X9X9X9X9X9X9X9X9X9X9X9X9X9X&XXX&X&XXX9X9X9X9X9X9X9X9X9X9X9X9X9X9X9X9X9X9X9X9X9X9X9X9X9X9X9X9X",
"9X9X9X9X9X9X9X9X9X9X9X9X9X9X9X9X9X9X9X9X9X9X[.*X*X&X&X&XK.K.K.K.L.J.L.H.H.9X9X9X9X9X9X9X9X9X9X9X9X9X9X9X9X9X9X9X9X9X9X9X",
"9X9X9X9X9X9X9X9X9X9X9X9X9X9X9X9X9X9X9X* ; U.W.=X&X&X&XP.K.K.J.S.S.S.S.S.H.F.G.9X9X9X9X9X9X9X9X9X9X9X9X9X9X9X9X9X9X9X9X9X",
"9X9X9X9X9X9X9X9X9X9X9X9X9X9X9X9X9X@ X o + I.E.@X&X&XK.K.J.S.S.S.S.A.A.A.C.C.C.C.N.D.D.9X9X9X9X9X9X9X9X9X9X9X9X9X9X9X9X9X",
"9X9X9X9X9X9X9X9X9X9X9X9X9X9X9X% % @ @ o * U.W.%X&XXXXXL.H.A.A.V.V.V.V.V.V.m.m.M.M.N.n.n.9X9X9X9X9X9X9X9X9X9X9X9X9X9X9X9X",
"9X9X9X9X9X9X9X9X9X9X9X9X9X% % * * * % - Y.Q.-X*X.XXXG.F.A.A.C.V.V.m.0.m.m.h.m.h.g.g.g.n.(.9X9X9X9X9X9X9X9X9X9X9X9X9X9X9X",
"9X9X9X9X9X9X9X9X9X9X9X9X@ # - : !.!.!.^.].,X:X$X.XXXG.F.M.A.m.m.m.m.0.0.0.0.d.d.d.d.s.p.x.x.(.9X9X9X9X9X9X9X9X9X9X9X9X9X",
"9X9X9X9X9X9X9X9X9X9X9X#   $ !.1X7X7X2X3X4X>X:X$X XG.G.N.M.M.m.m.0.0.q.q.q.q.a.u.u.u.p.p.k.l.z./.9X9X9X9X9X9X9X9X9X9X9X9X",
"9X9X9X9X9X9X9X9X9X9X@   o * ^.7X8X8X5X4X<X:X$X X{.G.N.M.M.f.m.0.q.q.9.8.7.7.y.t.t.t.t.i.i.j.j.E./.9X9X9X9X9X9X9X9X9X9X9X",
"9X9X9X9X9X9X9X9X9X#   . & - 1X7X8X8X5X4X:X;X X XB.N.M.M.f.d.a.a.8.7.7.6.6.6.5.5.&.%.&.&.=.=.-.3.3.E.9X9X9X9X9X9X9X9X9X9X",
"9X9X9X9X9X9X9X9X* o o + ; ^.2X6X8X5X4X>X;X+X}.`.B.N.g.g.a.a.u.7.7.6.6.5.` &.` %.&.%.=.$.=.*.=.3.2.T.T.9X9X9X9X9X9X9X9X9X",
"9X9X9X9X9X9X9X; = + O = ^.-X3X5X5X<X>X$XoX}.'.B.n.g.s.a.u.y.8.w.6.5.` ` ` _ _ %.$.%.%.$.$.*.*.1.1.2.T.T.9X9X9X9X9X9X9X9X",
"9X9X9X9X9X9X9XR.[ R Y._.-X>X>X>X>X:X;X+X'.'.`.n.s.s.a.u.w.5.5.5.` _ _ _ _ %.%.%.$.%.*.*.$.*.*.*.=.1.2.T.9X9X9X9X9X9X9X9X",
"9X9X9X9X9X9X@X_.E.E._.@X$X:X:X:X;XoXOX'.'.`.v.c.p.p.u.w.w.5.5.5._ _ ) _ ) $.%.$.=.*.*.*.*.*.*.$.*.1.1.2.T.9X9X9X9X9X9X9X",
"9X9X9X9X9X9X$X#X.X X X#X+X+X+XoXoX'.'.'.b.b.c.p.p.w.w.` _ _ _ ) ) ) ) ) $.$.$.*.*.*.*.*.*.#.#.#.#.@.,.,.<.T.9X9X9X9X9X9X",
"9X9X9X9X9X9X#X.X.X.X.X X+X X}.}.'.'.'.(.x.l.k.e.w.w.w._ ) _ ) ) ) ) ) ) $.$.$.*.*.*.*.*.$.$.X.$.X.#.#.*.:.<.9X9X9X9X9X9X",
"9X9X9X9X9X9X9X9X|.{.{.{.{.{.'.`.'.(.(.z.l.k.e.w.=.%._ _ ) ) ) ) ) ) ) $.$.$.$.*.*.*.@.*.$.X.X. .O. .X.X.:.,.<.9X9X9X9X9X",
"9X9X9X9X9X9X9X9X9X`.`.`.`.B.B.b.v.v.z.k.j.e.e.=.%.%.$.) ) ) ) ) ) ( $.$.$.$.$.*.@.*.#.#.#.#./  . . . .X.X.:.<.9X9X9X9X9X",
"9X9X9X9X9X9X9X9X9X9X9Xv.b.b.b.x.x.k.j.e.e.=.=.%.$.) ) ) ) ) ) ) ) O.$.$.$.*.+.+.X.$.O.X.O.X. . . . . .| X.X.:.9X9X9X9X9X",
"9X9X9X9X9X9X9X9X9X9X9X9X9Xz.k.j.j.e.e.e.=.=.=.%.$.) ) ) ) ) ) Q ) O.O.O.O.O.O.O.O.X. . . ./  ./ / /  . .| X.:.>.9X9X9X9X",
"9X9X9X9X9X9X9X9X9X9X9X9X9X9X9X=.e.=.=.w.=.=.$.$.$.) ( ( ( ( ) ( $.( O.O.X.O.O.O. . . . . . ./  .^ ^ ^  .| | X.>.9X9X9X9X",
"9X9X9X9X9X9X9X9X9X9X9X9X9X9X9X9X9X*.+.+.+.+.+.$.$.O.( ( ) ( ( (  .O. .O.O. . . . . ./  ./ / / / ^ ^ ^ ^ ^ | ;.;.9X9X9X9X",
"9X9X9X9X9X9X9X9X9X9X9X9X9X9X9X9X9X9X9X*.+.O.O.O.O.O.( ( ( ( ( ( O.O. . .(  .O. ./ | /  ./ ^ ^ ^ ^ ^ ^ ^ ^ | o.;.;.9X9X9X",
"9X9X9X9X9X9X9X9X9X9X9X9X9X9X9X9X9X9X9X9XX.X.+.O.O.( ( ( ( ( ( / / ( / O. ./ / } /  ./ / / / Q ^ ^ ^ ^ ^ ^ ' ] o.;.9X9X9X",
"9X9X9X9X9X9X9X9X9X9X9X9X9X9X9X9X9X9X9X9X9X9X9XO. . ./ / ( / ~ ( ( / ( / / / / /  .^ ^ ^ ^ ^ ^ ! Q ! ! ! E ^ | ] ;.9X9X9X",
"9X9X9X9X9X9X9X9X9X9X9X9X9X9X9X9X9X9X9X9X9X9X9X9Xh ~ / ~ Q ( ~ ~ / ~ ~ / ~ ~ / ~ ~ ^ ^ ^ ^ ^ ^ ^ ! ! ! ! ^ ! ' o...9X9X9X",
"9X9X9X9X9X9X9X9X9X9X9X9X9X9X9X9X9X9X9X9X9X9X9X9X9X9X}  .~ Q ( Q ~ Q ~ / ~ / ~ ~ ! ~ ^ ! ^ ^ ! E ! ! E ^ E | ' ] ..9X9X9X",
"9X9X9X9X9X9X9X9X9X9X9X9X9X9X9X9X9X9X9X9X9X9X9X9X9X9X9X} / Q / Q ~ Q Q ~ ! Q Q ! ! ~ ! ! E Q E Q E ! E E E E E o...9X9X9X",
"9X9X9X9X9X9X9X9X9X9X9X9X9X9X9X9X9X9X9X9X9X9X9X9X9X9X9X .Q Q Q Q Q Q Q ! Q Q ! ! ! ! ! ! Q E Q ! E ! E E E E ' ] ..9X9X9X",
"9X9X9X9X9X9X9X9X9X9X9X9X9X9X9X9X9X9X9X9X9X9X9X9X9X9X .( Q Q Q Q Q Q Q Q y Q Q ! ! y ! ! E E E E E E E E E E E ] [ 9X9X9X",
"9X9X9X9X9X9X9X9X9X9X9X9X9X9X9X9X9X9X9X9X9X9X9X9X9X .~ ~ Q W W Q W W W W W W W W W W E E E E W E E E 5 E E E ' ] ] 9X9X9X",
"9X9X9X9X9X9X9X9X9X9X9X9X9X9X9X9X9X9X9X9X9X9X9X9X .~ ~ W Q W W W W W W W W W W y W y 5 W W E E 5 E E E 5 E 8 d f [ 9X9X9X",
"9X9X9X9X9X9X9X9X9X9X9X9X9X9X9X9X9X9X9X9X9X9X9X .~ Q W W W W y y W W W W y y y y y y 5 W E W 5 W E 4 E 4 8 E ' f [ 9X9X9X",
"9X9X9X9X9X9X9X9X9X9X9X9X9X9X9X9X9X9X9X9X9X9X9X~ Q W W W y y y y y W y y y y y y y y y 5 4 4 E 4 5 E 4 E E 8 d ] [ 9X9X9X",
"9X9X9X9X9X9X9X9X9X9X9X9X9X9X9X9X9X9X9X9X9X9X} ! W W y y y y y y y y y y y y y y W 4 4 5 W 5 E 4 4 E 4 E 7 9 j j >.9X9X9X",
"9X9X9X9X9X9X9X9X9X9X9X9X9X9X9X9X9X9X9X9X9X! ! y y y y y y y y y y y 5 y 5 5 5 y 5 5 W 5 4 4 5 4 4 4 8 4 8 7 d j 9X9X9X9X",
"9X9X9X9X9X9X9X9X9X9X9X9X9X9X9X9X9X9X9X9X~ ! y y y y y y y y 5 y y y 3 y 5 5 5 5 5 2 5 5 5 4 4 4 4 4 4 8 8 d g j 9X9X9X9X",
"9X9X9X9X9X9X9X9X9X9X9X9X9X9X9X9X9X9X9X/ ! y y y y 5 5 y y y 5 5 3 y 5 5 3 5 5 3 5 5 3 5 3 5 4 4 4 4 4 6 6 d j 9X9X9X9X9X",
"9X9X9X9X9X9X9X9X9X9X9X9X9X9X9X9X9X9X} ! y 7 5 5 y 5 5 5 5 5 5 5 3 5 5 5 3 5 3 3 2 3 2 W 1 W 1 2 6 4 6 6 8 g g 9X9X9X9X9X",
"9X9X9X9X9X9X9X9X9X9X9X9X9X9X9X9X9X| ! y 5 5 5 5 5 5 5 5 5 5 3 3 3 3 3 3 5 3 3 3 3 3 2 W 2 2 W 2 2 2 6 6 d g h 9X9X9X9X9X",
"9X9X9X9X9X9X9X9X9X9X9X9X9X9X9X9X| y 5 7 5 5 3 5 3 3 3 5 3 3 3 3 3 3 3 2 3 3 3 2 2 2 2 2 1 1 1 1 2 6 6 g h S F 9X9X9X9X9X",
"9X9X9X9X9X9X9X9X9X9X9X9X9X9X9X| ! 9 5 3 5 5 3 5 3 3 3 3 3 3 3 3 3 3 3 3 2 2 2 3 2 2 2 2 1 W 1 1 , 3 7 s S F 9X9X9X9X9X9X",
"9X9X9X9X9X9X9X9X9X9X9X9X9X9X{ E 7 5 5 3 3 3 3 3 3 3 3 3 3 2 2 3 2 2 2 2 2 2 2 2 2 2 2 2 E 2 2 2 6 u a S F 9X9X9X9X9X9X9X",
"9X9X9X9X9X9X9X9X9X9X9X9X9X9Xg 9 3 3 6 4 3 2 3 2 3 3 2 3 2 2 2 2 2 2 2 2 2 2 2 1 2 1 1 1 ; 1 1 2 7 s S D Y 9X9X9X9X9X9X9X",
"9X9X9X9X9X9X9X9X9X9X9X9X9X{ 8 8 3 6 2 3 < 2 2 2 2 2 2 2 2 2 2 1 1 2 2 2 2 1 2 1 1 1 1 1 1 2 2 3 t z L Y 9X9X9X9X9X9X9X9X",
"9X9X9X9X9X9X9X9X9X9X9X9X} p 7 8 6 3 2 2 2 2 2 2 1 2 2 2 2 1 , , 1 2 1 1 1 1 1 1 1 1 , , 3 q e k c D I 9X9X9X9X9X9X9X9X9X",
"9X9X9X9X9X9X9X9X9X9X9X9XS a y 3 6 6 6 2 , , 6 > 1 6 > , > 2 , > 1 1 1 1 > > > > 1 > , 0 t k v H H I 9X9X9X9X9X9X9X9X9X9X",
"9X9X9X9X9X9X9X9X9X9X9Xr.n b b s i w < 3 , 6 , , , , > > > > > > 1 1 1 1 , < , < w q e k c m M H I 9X9X9X9X9X9X9X9X9X9X9X",
"9X9X9X9X9X9X9X9X9X9X9Xr.I A m n k s i w 0 < , , , , , , , , , , 2 1 < < < 0 q e r z c m A H I I T 9X9X9X9X9X9X9X9X9X9X9X",
"9X9X9X9X9X9X9X9X9X9X9X9Xr.H A A m v c b s r t t q 0 0 w 0 q q q e e r r k l l v N m M C C J K 9X9X9X9X9X9X9X9X9X9X9X9X9X",
"9X9X9X9X9X9X9X9X9X9X9X9X9XP P J H C A m v v z z k k k k k k l l l v v v N B B B Z Z H J J K 9X9X9X9X9X9X9X9X9X9X9X9X9X9X",
"9X9X9X9X9X9X9X9X9X9X9X9X9X9X9XP I H Z Z Z C C C B B B B B B B B B B B C B B B B Z G J P 9X9X9X9X9X9X9X9X9X9X9X9X9X9X9X9X",
"9X9X9X9X9X9X9X9X9X9X9X9X9X9X9X9XP K J J J Z G V V V V V V V V V V V V V V G V V J K P 9X9X9X9X9X9X9X9X9X9X9X9X9X9X9X9X9X",
"9X9X9X9X9X9X9X9X9X9X9X9X9X9X9X9X9X9XP P J J G G V V V V V V V V V V V G G G G G U 9X9X9X9X9X9X9X9X9X9X9X9X9X9X9X9X9X9X9X",
"9X9X9X9X9X9X9X9X9X9X9X9X9X9X9X9X9X9X9X9X9XK K J J J G J G G G G G G G G K U 9X9X9X9X9X9X9X9X9X9X9X9X9X9X9X9X9X9X9X9X9X9X",
"9X9X9X9X9X9X9X9X9X9X9X9X9X9X9X9X9X9X9X9X9X9X9XU U K K U K K K K K K U U 9X9X9X9X9X9X9X9X9X9X9X9X9X9X9X9X9X9X9X9X9X9X9X9X",
"9X9X9X9X9X9X9X9X9X9X9X9X9X9X9X9X9X9X9X9X9X9X9X9X9X9X9X9X9X9X9X9X9X9X9X9X9X9X9X9X9X9X9X9X9X9X9X9X9X9X9X9X9X9X9X9X9X9X9X9X",
"9X9X9X9X9X9X9X9X9X9X9X9X9X9X9X9X9X9X9X9X9X9X9X9X9X9X9X9X9X9X9X9X9X9X9X9X9X9X9X9X9X9X9X9X9X9X9X9X9X9X9X9X9X9X9X9X9X9X9X9X"
};
