/* XPM */
static char *result[] = {
/* columns rows colors chars-per-pixel */
"60 60 177 2 ",
"   c #3E3F36",
".  c #343738",
"X  c #363939",
"o  c #5B583C",
"O  c #3F4142",
"+  c #414344",
"@  c #565849",
"#  c #525448",
"$  c #5D5F52",
"%  c #676647",
"&  c #63654B",
"*  c #8E6E14",
"=  c #936E15",
"-  c #9C6E16",
";  c #8E7014",
":  c #947314",
">  c #987614",
",  c #977814",
"<  c #9C7B14",
"1  c #95751A",
"2  c #9B7519",
"3  c #977A1C",
"4  c #9B7E1A",
"5  c #AD6C16",
"6  c #B36C17",
"7  c #BB6B16",
"8  c #A07F14",
"9  c #A57018",
"0  c #A07F1F",
"q  c #B4721A",
"w  c #BD721B",
"e  c #9C7C27",
"r  c #9F7F31",
"t  c #B77929",
"y  c #BC7523",
"u  c #C06C17",
"i  c #C26D18",
"p  c #C96B16",
"a  c #D86C18",
"s  c #D46C18",
"d  c #D3701A",
"f  c #E06A17",
"g  c #EF6B17",
"h  c #E36E1A",
"j  c #FE6817",
"k  c #FE661D",
"l  c #F46D1B",
"z  c #FD6A1B",
"x  c #EB721C",
"c  c #FD6722",
"v  c #FB6C24",
"b  c #FB6B2C",
"n  c #E4772C",
"m  c #FD7328",
"M  c #F07325",
"N  c #F96C30",
"B  c #EC7E34",
"V  c #F87333",
"C  c #9F811A",
"Z  c #A48215",
"A  c #A88616",
"S  c #A3841A",
"D  c #A9871C",
"F  c #A7881E",
"G  c #AB8A1D",
"H  c #B08E1E",
"J  c #B4921C",
"K  c #B9971F",
"L  c #BD9A1D",
"P  c #9E8129",
"I  c #A28424",
"U  c #A68823",
"Y  c #AD8C23",
"T  c #A3862C",
"R  c #AC8E2C",
"E  c #B08F23",
"W  c #B28E28",
"Q  c #AF9026",
"!  c #AF902C",
"~  c #B39224",
"^  c #B99722",
"/  c #BC9A22",
"(  c #B2922A",
")  c #B8962A",
"_  c #BC992B",
"`  c #AC8038",
"'  c #A88C38",
"]  c #AF9135",
"[  c #AD9038",
"{  c #BA9630",
"}  c #B79938",
"|  c #C7A31F",
" . c #D4AF1F",
".. c #D7B11E",
"X. c #DEB81E",
"o. c #DCB61F",
"O. c #E1BA1F",
"+. c #C29F23",
"@. c #C19F30",
"#. c #C4A121",
"$. c #CAA623",
"%. c #CDA922",
"&. c #C9A62A",
"*. c #CFAB2A",
"=. c #D2AD21",
"-. c #D6B125",
";. c #DBB522",
":. c #D7B32C",
">. c #DEB82B",
",. c #DAB52F",
"<. c #C6A330",
"1. c #CAA835",
"2. c #D2AF39",
"3. c #D1AD36",
"4. c #D4B13E",
"5. c #D9B53B",
"6. c #D6B132",
"7. c #E3BC23",
"8. c #E6BF2B",
"9. c #E5BF35",
"0. c #E0BB3A",
"q. c #E7C026",
"w. c #EAC225",
"e. c #EDC52C",
"r. c #F0C728",
"t. c #F5CD2D",
"y. c #FAD62F",
"u. c #EBC333",
"i. c #F1CB3C",
"p. c #F3CC36",
"a. c #FBDB34",
"s. c #F8D235",
"d. c #FCE23F",
"f. c #9C934A",
"g. c #A39445",
"h. c #B59945",
"j. c #B09545",
"k. c #A29F50",
"l. c #A09B5F",
"z. c #ADA049",
"x. c #CCAB40",
"c. c #DEBA42",
"v. c #DFBB48",
"b. c #D5B440",
"n. c #E2BE43",
"m. c #C7BE72",
"M. c #E7C246",
"N. c #EBC544",
"B. c #E8C34C",
"V. c #F7D242",
"C. c #F5DD44",
"Z. c #F9D84B",
"A. c #E8C350",
"S. c #E3CE5F",
"D. c #EECA57",
"F. c #F2CF5B",
"G. c #F3CE54",
"H. c #FADA52",
"J. c #F2D958",
"K. c #F8D452",
"L. c #F7E64E",
"P. c #FCE848",
"I. c #FCE853",
"U. c #EFDD6C",
"Y. c #F6D66B",
"T. c #F9DC73",
"R. c #FBE06E",
"E. c #FBE274",
"W. c #AEAE88",
"Q. c #FBED8D",
"!. c #FDEF92",
"~. c #F7EC93",
"^. c #DDDDA5",
"/. c #E3E2A0",
"(. c #EDEDBD",
"). c #FFFDB8",
"_. c None",
/* pixels */
"_._._._._._._._._._._._._._._._._._._._._._._._._._._._._._._._._._._._._._._._._._._._._._._._._._._._._._._._._._._._.",
"_._._._._._._._._._._._._._._._._._._._._._._._._._._._._._._._._._._._._._._._._._._._._._._._._._._._._._._._._._._._.",
"_._._._._._._._._._._._._._._._._._._._._._._._._._._._._._._._._._._._._._._._._._._._._._._._._._._._._._._._._._._._.",
"_._._._._._._._._._._._._._._._._._._._._._._._._._._._._._._._._._._._._._._._._._._._._._._._._._._._._._._._._._._._.",
"_._._._._._._._._._._._._._._._._._._._._._._._._._._._._._._._._._._._._._._._._._._._._._._._._._._._._._._._._._._._.",
"_._._._._._._._._._._._._._._._._._._._._._._._._._._._._._._._._._._._._._._._._._._._._._._._._._._._._._._._._._._._.",
"_._._._._._._._._._._._._._._._._._._._._._._._._._._._._._._._._._._._._._._._._._._._._._._._._._._._._._._._._._._._.",
"_._._._._._._._._._._._._._._._._._._._._._._._._._._._._._._._._._._._._._._._._._._._._._._._._._._._._._._._._._._._.",
"_._._._._._._._._._._._._._._._._._._._._._._._._._._._._._._._._._._._._._._._._._._._._._._._._._._._._._._._._._._._.",
"_._._._._._._._._._._._._._._._._._._._._._._._._._._._._._._._._._._._._._._._._._._._._._._._._._._._._._._._._._._._.",
"_._._._._._._._._._._._._._._._._._._._._._._._._._._._._._._._._._._._._._._._._._._._._._._._._._._._._._._._._._._._.",
"_._._._._._._._._._._._._._._._._._._._._._._._._._._._._._._._._._._._._._._._._._._._._._._._._._._._._._._._._._._._.",
"_._._._._._._._._._._._._._._._._._._._._._._._._._._._._._._._._._._._._._._._._._._._._._._._._._._._._._._._._._._._.",
"_._._._._._._._._._._._._._._._._._._._._._._._._._._.C.C.C.L._._._._._._._._._._._._._._._._._._._._._._._._._._._._._.",
"_._._._._._._._._._._._._._._._._._._._._._._._.p.s.y.y.a.a.P.P.I.k.& _._._._._._._._._._._._._._._._._._._._._._._._._.",
"_._._._._._._._._._._._._._._._._._._._._.0.9.8.8.w.w.r.t.t.a.V.I.f.  X O _._._._._._._._._._._._._._._._._._._._._._._.",
"_._._._._._._._._._._._._._._._._._._._.b.,.-.-.;.X.O.q.w.e.p.V.H.U.l.@ $ # + _._._._._._._._._._._._._._._._._._._._._.",
"_._._._._._._._._._._._._._._._._._._.x.1.&.%.%...-...X.X.q.u.i.K.R.Q./.(.W.X + _._._._._._._._._._._._._._._._._._._._.",
"_._._._._._._._._._._._._._._._._._.h._ _ ^ / / L #.| %.-.-.>.0.N.F.T.!.).^.# . + _._._._._._._._._._._._._._._._._._._.",
"_._._._._._._._._._._._._._._._._.h.} ) ) ~ ^ ^ K L L | | %.-.,.5.A.F.T.Q.~.m.o   % _._._._._._._._._._._._._._._._._._.",
"_._._._._._._._._._._._._._._._.h.} ( ( ( ( ( ~ K J J K L | $.*.6.c.A.D.Y.T.E.S.g.z._._._._._._._._._._._._._._._._._._.",
"_._._._._._._._._._._._._._._.j.[ ! Q Q ( ( ( ( ~ K J J J K L / &.2.4.n.A.D.G.K.H.H.J._._._._._._._._._._._._._._._._._.",
"_._._._._._._._._._._._._._._.[ R Y Y Y Q ( ( ( ( J J J J J K ^ +.<.3.2.c.n.N.N.N.N._._._._._._._._._._._._._._._._._._.",
"_._._._._._._._._._._._._._._.] R Y Y Y Q Q Y ( ( Q Q J J J J ~ ( { @.1.2.5.5.4._._._._._._._._._._._._._._._._._._._._.",
"_._._._._._._._._._._._._._.' U Y G D Y Y E E E Y Y ~ E J J J ~ ~ ) ) _ _ ) _._._._._._._._._._._._._._._._._._._._._._.",
"_._._._._._._._._._._._._._.' U F G D F F F Y Y G Y E Y G H H E ( ( W W _._._._._._._._._._._._._._._._._._._._._._._._.",
"_._._._._._._._._._._._._._.T U S F F A D D Y F G Y G J H H G J E Y _._._._._._._._._._._._._._._._._._._._._._._._._._.",
"_._._._._._._._._._._._._._.T S S S S D F F F F G G G G D G D U _._._._._._._._._._._._._._._._._._._._._._._._._._._._.",
"_._._._._._._._._._._._._._.P P C C S S S S F A F A A A A A E _._._._._._._._._._._._._._._._._._._._._._._._._._._._._.",
"_._._._._._._._._._._._._._.P C C C C S S A S S A A A A A A W _._._._._._._._._._._._._._._._._._._._._._._._._._._._._.",
"_._._._._._._._._._._._._._.P C C C < C S < S Z S Z Z Z Z Z A Y _._._._._._._._._._._._._._._._._._._._._._._._._._._._.",
"_._._._._._._._._._._._._._.e 4 4 < < C C < < Z 8 8 Z Z Z Z Z A Y _._._._._._._._._._._._._._._._._._._._._._._._._._._.",
"_._._._._._._._._._._._._._.P e C , C , C C 8 8 8 8 8 Z 8 8 8 8 Z _._._._._._._._._._._._._._._._._._._._._._._._._._._.",
"_._._._._._._._._._._._._._.` 3 3 , , , , , , 8 8 , < 8 8 8 8 8 8 8 W _._._._._._._._._._._._._._._._._._._._._._._._._.",
"_._._._._._._._._._._._._._._.e 1 1 , , , , , , < < < < 8 8 < 8 8 8 A _._._._._._._._._._._._._._._._._._._._._._._._._.",
"_._._._._._._._._._._._._._._.t 3 : , 1 , , , , , < > > > < > 8 < < 8 S _._._._._._._._._._._._._._._._._._._._._._._._.",
"_._._._._._._._._._._._._._._.B y 1 : 1 : : : : : : : : > > > > > > < < 0 _._._._._._._._._._._._._._._._._._._._._._._.",
"_._._._._._._._._._._._._._._._.n w : ; ; : : : : : : : : : : - > > > 2 2 0 _._._._._._._._._._._._._._._._._._._._._._.",
"_._._._._._._._._._._._._._._._._.M 6 > ; ; ; ; : ; : : : : : : : : : : : 2 I _._._._._._._._._._._._._._._._._._._._._.",
"_._._._._._._._._._._._._._._._._._.v h 7 - = * ; ; ; ; : : ; ; = = : 1 1 2 q _._._._._._._._._._._._._._._._._._._._._.",
"_._._._._._._._._._._._._._._._._._.V v l a u 5 - = = = * * = * = = 2 9 i d k <._._._._._._._._._._._._._._._._._._._._.",
"_._._._._._._._._._._._._._._._._._._.V v z l l f s p 7 7 6 5 6 7 i a h l c c _._._._._._._._._._._._._._._._._._._._._.",
"_._._._._._._._._._._._._._._._._._._._._.V v c j j j j j j j j j z z z m _._._._._._._._._._._._._._._._._._._._._._._.",
"_._._._._._._._._._._._._._._._._._._._._._._.b c c c k k k k c c v b N _._._._._._._._._._._._._._._._._._._._._._._._.",
"_._._._._._._._._._._._._._._._._._._._._._._._._._.N N b b b b N _._._._._._._._._._._._._._._._._._._._._._._._._._._.",
"_._._._._._._._._._._._._._._._._._._._._._._._._._._._._._._._._._._._._._._._._._._._._._._._._._._._._._._._._._._._.",
"_._._._._._._._._._._._._._._._._._._._._._._._._._._._._._._._._._._._._._._._._._._._._._._._._._._._._._._._._._._._.",
"_._._._._._._._._._._._._._._._._._._._._._._._._._._._._._._._._._._._._._._._._._._._._._._._._._._._._._._._._._._._.",
"_._._._._._._._._._._._._._._._._._._._._._._._._._._._._._._._._._._._._._._._._._._._._._._._._._._._._._._._._._._._.",
"_._._._._._._._._._._._._._._._._._._._._._._._._._._._._._._._._._._._._._._._._._._._._._._._._._._._._._._._._._._._.",
"_._._._._._._._._._._._._._._._._._._._._._._._._._._._._._._._._._._._._._._._._._._._._._._._._._._._._._._._._._._._.",
"_._._._._._._._._._._._._._._._._._._._._._._._._._._._._._._._._._._._._._._._._._._._._._._._._._._._._._._._._._._._.",
"_._._._._._._._._._._._._._._._._._._._._._._._._._._._._._._._._._._._._._._._._._._._._._._._._._._._._._._._._._._._.",
"_._._._._._._._._._._._._._._._._._._._._._._._._._._._._._._._._._._._._._._._._._._._._._._._._._._._._._._._._._._._.",
"_._._._._._._._._._._._._._._._._._._._._._._._._._._._._._._._._._._._._._._._._._._._._._._._._._._._._._._._._._._._.",
"_._._._._._._._._._._._._._._._._._._._._._._._._._._._._._._._._._._._._._._._._._._._._._._._._._._._._._._._._._._._.",
"_._._._._._._._._._._._._._._._._._._._._._._._._._._._._._._._._._._._._._._._._._._._._._._._._._._._._._._._._._._._.",
"_._._._._._._._._._._._._._._._._._._._._._._._._._._._._._._._._._._._._._._._._._._._._._._._._._._._._._._._._._._._.",
"_._._._._._._._._._._._._._._._._._._._._._._._._._._._._._._._._._._._._._._._._._._._._._._._._._._._._._._._._._._._.",
"_._._._._._._._._._._._._._._._._._._._._._._._._._._._._._._._._._._._._._._._._._._._._._._._._._._._._._._._._._._._."
};
