/* XPM */
static char *result[] = {
/* columns rows colors chars-per-pixel */
"60 60 211 2 ",
"   c #3B3E3D",
".  c #353838",
"X  c #3E413E",
"o  c #46463C",
"O  c #57553D",
"+  c #3E4141",
"@  c #434544",
"#  c #474943",
"$  c #494B49",
"%  c #4E5048",
"&  c #56584A",
"*  c #6A6949",
"=  c #666856",
"-  c #757149",
";  c #787A65",
":  c #8E6F14",
">  c #936E15",
",  c #9C6E16",
"<  c #8F7013",
"1  c #947414",
"2  c #997614",
"3  c #977815",
"4  c #9C7B14",
"5  c #957519",
"6  c #9C751B",
"7  c #97781A",
"8  c #9B7C1A",
"9  c #A46D16",
"0  c #AB6D16",
"q  c #A76F18",
"w  c #B46D17",
"e  c #BB6C17",
"r  c #B46F18",
"t  c #A07F14",
"y  c #A4731A",
"u  c #AE7219",
"i  c #A4761B",
"p  c #B5721B",
"a  c #B97019",
"s  c #9C7C23",
"d  c #9D7F2C",
"f  c #A97B26",
"g  c #B67825",
"h  c #A47F33",
"j  c #B07F38",
"k  c #C56B17",
"l  c #CB6A16",
"z  c #C96D18",
"x  c #C26F19",
"c  c #D26C19",
"v  c #D96C18",
"b  c #C9721B",
"n  c #D5701B",
"m  c #E36C19",
"M  c #EC6D1B",
"N  c #E06B17",
"B  c #F26917",
"V  c #FE671C",
"C  c #F36A1A",
"Z  c #FC691C",
"A  c #EE711E",
"S  c #CA7626",
"D  c #D97727",
"F  c #D77B32",
"G  c #FD6723",
"H  c #F66E21",
"J  c #FC6B24",
"K  c #FA6B2C",
"L  c #E97426",
"P  c #FA7129",
"I  c #F67327",
"U  c #F96B31",
"Y  c #EC7C31",
"T  c #F87331",
"R  c #897F42",
"E  c #9F801A",
"W  c #A38215",
"Q  c #A88616",
"!  c #A4841A",
"~  c #A8871C",
"^  c #A7881D",
"/  c #AB8A1D",
"(  c #B18F1E",
")  c #B4921D",
"_  c #B9961D",
"`  c #BD9A1E",
"'  c #9E8123",
"]  c #9E812A",
"[  c #9E8132",
"{  c #A38423",
"}  c #A98621",
"|  c #A78923",
" . c #AD8C22",
".. c #A2852D",
"X. c #AB8D2A",
"o. c #A68929",
"O. c #B08F22",
"+. c #B18F29",
"@. c #AF912E",
"#. c #AF9027",
"$. c #B39224",
"%. c #B89724",
"&. c #BC9A23",
"*. c #B39229",
"=. c #B9972C",
"-. c #BC9A2C",
";. c #A68934",
":. c #AB8F32",
">. c #A68937",
",. c #AE9035",
"<. c #AE923B",
"1. c #B29534",
"2. c #B2953B",
"3. c #B99A37",
"4. c #C19E1E",
"5. c #C5A11F",
"6. c #CCA71F",
"7. c #D2AD1F",
"8. c #DBB51F",
"9. c #D6B11F",
"0. c #C19E25",
"q. c #C19F30",
"w. c #E08330",
"e. c #C5A222",
"r. c #C9A621",
"t. c #CDAA23",
"y. c #C4A22B",
"u. c #CDA92B",
"i. c #D2AD22",
"p. c #D3AF2C",
"a. c #D5B123",
"s. c #DBB522",
"d. c #DAB52B",
"f. c #DBB625",
"g. c #C4A232",
"h. c #C9A634",
"j. c #CCAA35",
"k. c #C9A73A",
"l. c #D0AE3B",
"z. c #D2AE35",
"x. c #D5B13B",
"c. c #D9B53C",
"v. c #DBB737",
"b. c #E3BC22",
"n. c #E3BD2C",
"m. c #E2BD34",
"M. c #E1BC3C",
"N. c #EBC325",
"B. c #EBC42C",
"V. c #EAC329",
"C. c #F3CB2B",
"Z. c #F8D42F",
"A. c #EAC337",
"S. c #F3CD34",
"D. c #F1CB3C",
"F. c #F6D235",
"G. c #F9D532",
"H. c #F9DC3B",
"J. c #F8D538",
"K. c #FCE13E",
"L. c #898449",
"P. c #948D4A",
"I. c #988F50",
"U. c #B59944",
"Y. c #A69C55",
"T. c #BAAB4B",
"R. c #BDB351",
"E. c #BDAD56",
"W. c #85866B",
"Q. c #939477",
"!. c #A39F69",
"~. c #C7AB46",
"^. c #DAB642",
"/. c #DCB843",
"(. c #C8B754",
"). c #E2BD42",
"_. c #E1BD49",
"`. c #C3BA6D",
"'. c #C6C054",
"]. c #E5C044",
"[. c #EBC645",
"{. c #EAC54D",
"}. c #E9C64B",
"|. c #F3CE4C",
" X c #F4D44D",
".X c #F8DA46",
"XX c #EECB5A",
"oX c #E9C755",
"OX c #F1CD56",
"+X c #E9D457",
"@X c #F4D354",
"#X c #F4D658",
"$X c #EFD34E",
"%X c #FAE549",
"&X c #EEE254",
"*X c #FAEB52",
"=X c #D7C86F",
"-X c #F3D363",
";X c #F7DA6A",
":X c #F7DD75",
">X c #EBD36C",
",X c #F8E27B",
"<X c #B5B68D",
"1X c #D4D090",
"2X c #E7DE8A",
"3X c #F7E687",
"4X c #F9EC95",
"5X c #F5ED9D",
"6X c #D4D4A5",
"7X c #F3F0AE",
"8X c None",
/* pixels */
"8X8X8X8X8X8X8X8X8X8X8X8X8X8X8X8X8X8X8X8X8X8X8X8X8X8X8X8X8X8X8X8X8X8X8X8X8X8X8X8X8X8X8X8X8X8X8X8X8X8X8X8X8X8X8X8X8X8X8X8X",
"8X8X8X8X8X8X8X8X8X8X8X8X8X8X8X8X8X8X8X8X8X8X8X8X8X8X8X8X8X8X8X8X8X8X8X8X8X8X8X8X8X8X8X8X8X8X8X8X8X8X8X8X8X8X8X8X8X8X8X8X",
"8X8X8X8X8X8X8X8X8X8X8X8X8X8X8X8X8X8X8X8X8X8X8X8X8X8X8X8X.X.X.X%X%X8X8X8X8X8X8X8X8X8X8X8X8X8X8X8X8X8X8X8X8X8X8X8X8X8X8X8X",
"8X8X8X8X8X8X8X8X8X8X8X8X8X8X8X8X8X8X8X8X8X8X8XD.J.J.G.H.H.H.H.H.%X%X*X*X&X'.8X8X8X8X8X8X8X8X8X8X8X8X8X8X8X8X8X8X8X8X8X8X",
"8X8X8X8X8X8X8X8X8X8X8X8X8X8X8X8X8X8X8X8X8XD.S.F.Z.Z.Z.Z.G.G.H.H.H.%X%X*X&XR.P.* * 8X8X8X8X8X8X8X8X8X8X8X8X8X8X8X8X8X8X8X",
"8X8X8X8X8X8X8X8X8X8X8X8X8X8X8X8X8XA.A.A.B.B.V.V.B.C.C.C.C.Z.Z.G.H..X%X%X+XT.L.% o   + 8X8X8X8X8X8X8X8X8X8X8X8X8X8X8X8X8X",
"8X8X8X8X8X8X8X8X8X8X8X8X8X8X8X8Xc.M.A.d.n.N.b.N.N.N.N.N.C.C.Z.Z.J.J..X%X+XR.L.& o + @ $ $ 8X8X8X8X8X8X8X8X8X8X8X8X8X8X8X",
"8X8X8X8X8X8X8X8X8X8X8X8X8X8X8Xc.v.d.d.f.f.f.f.b.b.8.N.N.N.B.B.B.D.J. X.X#X+XE.I.* % % & & % @ 8X8X8X8X8X8X8X8X8X8X8X8X8X",
"8X8X8X8X8X8X8X8X8X8X8X8X8X^.l.z.p.p.p.a.a.a.8.8.8.8.8.N.N.N.V.B.S.D..X|.@X;X>X`.!.W.W.Q.; = @ + 8X8X8X8X8X8X8X8X8X8X8X8X",
"8X8X8X8X8X8X8X8X8X8X8X8X~.~.k.h.u.t.t.t.t.i.7.9.8.8.8.8.8.f.V.V.m.D.D.|. X;X,X3X2X6X6X6X<XW.#   @ 8X8X8X8X8X8X8X8X8X8X8X",
"8X8X8X8X8X8X8X8X8X8X8X~.k.g.g.q.y.0.y.e.5.5.r.t.6.7.9.9.s.s.s.f.n.m.A.[.|.#X:X,X3X5X7X7X6XQ.& @   + 8X8X8X8X8X8X8X8X8X8X",
"8X8X8X8X8X8X8X8X8X8XU.3.3.3.=.=.%.&.&.4.4.5.4.e.5.6.6.6.t.a.a.f.n.m.m.M.[.|.-X;X,X4X7X7X7X<X= # .   @ 8X8X8X8X8X8X8X8X8X",
"8X8X8X8X8X8X8X8X8XU.U.3.3.=.%.%.%.%.%.%._ &.` 4.4.5.5.5.6.t.i.a.d.d.m.M.).|.XX-X:X3X4X4X5X1X!.- # o   O 8X8X8X8X8X8X8X8X",
"8X8X8X8X8X8X8X8XU.U.2.1.*.*.*.*.*.%.$.%.%._ _ ` ` ` 5.5.5.5.r.t.i.d.p.m.M.).{.XX-X>X3X3X4X2X=XY.- O O * - 8X8X8X8X8X8X8X",
"8X8X8X8X8X8X8X8XU.2.1.*.*.*.*.*.%.*.$.%.%.$._ _ _ _ ` ` ` 5.e.r.i.u.p.d.M.)._.{.XXXX;X:X,X:X:X=X(.I.[ P.Y.8X8X8X8X8X8X8X",
"8X8X8X8X8X8X8XU.U.2.1.@.*.*.*.*.*.*.*.*.%.$.$.) _ ) _ _ ` ` ` e.0.0.u.u.z.x._._._.XXXX-X-X;X;X-XoX(.T.T.(.+X8X8X8X8X8X8X",
"8X8X8X8X8X8XU.,.,.@.#.#.*.#.#.*.*.*.*.*.*.$.) ) ) ) ) ) _ _ _ _ 4.0.0.q.u.z.c.^.)._._.oXOXOXOXOX@X X$X$X X#X8X8X8X8X8X8X",
"8X8X8X8X8X8X<.,.@.@.#.#.O.#.#.#.@.*.*.*.*.$.$.$.$.$.) ) ) ) ) _ ) 0.0.0.q.h.j.l.^.^._._.{.{.OX|.|. X X X X#X8X8X8X8X8X8X",
"8X8X8X8X8X<.,.:.@. .#. .O. .#.#.*.#.*.*.*.*.$.$.) ) ) ) ) ) _ _ _ _ %.0.0.q.h.j.l.c./._.)._.).[.[.[.[.[.8X8X8X8X8X8X8X8X",
"8X8X8X8X8X,.:.X.X.X. . . . . .#.#.#.#.@.*.*. .$.$.$.) ) ) ) ) ) ) ) $.%.0.q.q.g.k.k.l.^.^.M.).M.).).].8X8X8X8X8X8X8X8X8X",
"8X8X8X8X8X:.X.X.|  . ./  . . .#.#.#.#.#.#.*.*.$.O.$. .) Q ) ) ) ) $.) %.%.=.-.q.q.h.k.l.z.c.c.c.x.8X8X8X8X8X8X8X8X8X8X8X",
"8X8X8X8X<.:.o.X.|  ./ /  ./ /  . .#.#. .*. .O.$.O.$.O.) ) ) ) ) ) ( $.$.O.%.=.-.q.q.q.g.g.h.j.8X8X8X8X8X8X8X8X8X8X8X8X8X",
"8X8X8X8X<.o.| | | ^ | / /  ./  . . . .#. . .O.O.O.O.$.$.( ( Q ) ( %.O.O.=.O.=.*.+.0.=.q.q.8X8X8X8X8X8X8X8X8X8X8X8X8X8X8X",
"8X8X8X8X;.o.| | ^ ^ / / / ^  .} /  . ./  . . . . .O./ ) / ( ( ) ( ) O.%.O.*.*.*.+.+.+.8X8X8X8X8X8X8X8X8X8X8X8X8X8X8X8X8X",
"8X8X8X>.;.o.{ ^ ^ ^ ^ / ^ / ^ / /  ./  ./  ./  . .O. ./ $./ ) / ( ( O.O.O.O.O.+.+.8X8X8X8X8X8X8X8X8X8X8X8X8X8X8X8X8X8X8X",
"8X8X8X;...| { ^ ^ / ^ ! / ! ^ ^ } / } }  ./  ./  ./  .) / ) / ) ( ( ( O.O.+.X.+.8X8X8X8X8X8X8X8X8X8X8X8X8X8X8X8X8X8X8X8X",
"8X8X8X;.o.{ ! ! ^ ! ! ! ! / ^ ^ / ^ / / / / / / / / / / ( / / / ( /  . . .8X8X8X8X8X8X8X8X8X8X8X8X8X8X8X8X8X8X8X8X8X8X8X",
"8X8X8X....' { ! E ! ! ! ! ! ^ ^ ^ ^ ~ ~ ~ / / / / / / / Q / ( / ~ ~ } } 8X8X8X8X8X8X8X8X8X8X8X8X8X8X8X8X8X8X8X8X8X8X8X8X",
"8X8X8X;.' { E ^ ! ! E ! ! ! ! ! ^ ^ ^ ! ^ / ! / / / / Q Q Q ( Q } } 8X8X8X8X8X8X8X8X8X8X8X8X8X8X8X8X8X8X8X8X8X8X8X8X8X8X",
"8X8X8X....E E E E E W ! ! ! ! ! ! ! ~ ! Q Q / ! Q Q Q Q ( Q Q /  .8X8X8X8X8X8X8X8X8X8X8X8X8X8X8X8X8X8X8X8X8X8X8X8X8X8X8X",
"8X8X8X..' ' E E E W ! E 8 ! ! ! ! ! ! ! ! ! ! Q Q Q Q Q Q Q Q /  .8X8X8X8X8X8X8X8X8X8X8X8X8X8X8X8X8X8X8X8X8X8X8X8X8X8X8X",
"8X8X8X[ ] ' ' E E E E W 8 ! ! ! t ! ! W ! W Q W W Q Q Q Q Q Q Q  . .8X8X8X8X8X8X8X8X8X8X8X8X8X8X8X8X8X8X8X8X8X8X8X8X8X8X",
"8X8X8X[ ] s E E E E E E E E E W E E W W W E W W W W W W W W W W W Q ( 8X8X8X8X8X8X8X8X8X8X8X8X8X8X8X8X8X8X8X8X8X8X8X8X8X",
"8X8X8X[ d ' 7 E E 3 4 E E 4 W E W W W E W W W W W W W W W W W W W W /  .8X8X8X8X8X8X8X8X8X8X8X8X8X8X8X8X8X8X8X8X8X8X8X8X",
"8X8X8X[ ] s 8 8 7 E E E 4 E 3 E W < W W W E W W 1 W W W W W W W W W Q ^  .8X8X8X8X8X8X8X8X8X8X8X8X8X8X8X8X8X8X8X8X8X8X8X",
"8X8X8X[ ] s 7 8 E 3 3 4 W 3 W 4 E W 1 W W W 1 W W W W W W W W W W W E Q ! 8X8X8X8X8X8X8X8X8X8X8X8X8X8X8X8X8X8X8X8X8X8X8X",
"8X8X8X>.h s 7 7 E 3 W 3 3 E 3 W W W 1 W W W 2 W W W W W 2 W W W W W W W W Q 8X8X8X8X8X8X8X8X8X8X8X8X8X8X8X8X8X8X8X8X8X8X",
"8X8X8X8Xh s s 7 3 3 3 4 3 3 3 3 1 W W 1 1 1 W W W 1 W 1 1 W 1 W W W t W W W ^ 8X8X8X8X8X8X8X8X8X8X8X8X8X8X8X8X8X8X8X8X8X",
"8X8X8X8Xj d 7 7 3 3 3 3 3 3 3 4 W 1 1 W W 1 W 1 W 1 W W W 2 W W 4 W 4 t 4 t W ~ 8X8X8X8X8X8X8X8X8X8X8X8X8X8X8X8X8X8X8X8X",
"8X8X8X8X8Xf s 5 5 3 3 3 3 3 3 2 2 < W 2 < W 1 W < W 1 W 2 W 2 W 4 t 4 t 4 W t ! ~ 8X8X8X8X8X8X8X8X8X8X8X8X8X8X8X8X8X8X8X",
"8X8X8X8X8Xf f s 5 3 3 5 3 3 < 3 2 2 2 2 2 2 W 1 4 2 2 4 2 t t t i 4 4 4 t 4 t W ! } 8X8X8X8X8X8X8X8X8X8X8X8X8X8X8X8X8X8X",
"8X8X8X8X8Xg g s 7 5 5 1 3 3 3 3 2 2 2 2 2 2 < W 2 4 2 2 2 2 2 2 2 4 4 4 4 4 4 4 4 ! } 8X8X8X8X8X8X8X8X8X8X8X8X8X8X8X8X8X",
"8X8X8X8X8XF S g 8 5 5 1 1 1 < 1 1 1 1 2 2 2 1 2 2 2 2 2 2 2 2 2 2 4 4 4 4 4 4 3 4 4 ! { 8X8X8X8X8X8X8X8X8X8X8X8X8X8X8X8X",
"8X8X8X8X8X8XF S g 6 5 < < 1 1 1 1 1 1 1 2 1 1 2 2 2 2 2 2 2 2 2 2 2 2 2 2 2 3 6 4 6 8 ! | 8X8X8X8X8X8X8X8X8X8X8X8X8X8X8X",
"8X8X8X8X8X8X8XD S a y 5 1 3 < < < 1 1 1 1 1 1 1 1 1 1 2 2 1 2 1 2 2 2 2 2 2 2 2 2 3 4 8 8 { 8X8X8X8X8X8X8X8X8X8X8X8X8X8X",
"8X8X8X8X8X8X8XY D S p , 3 < < < < 1 < 1 1 < 1 1 1 1 1 1 > 1 1 1 1 1 1 1 2 1 5 2 2 5 6 3 8 f 8X8X8X8X8X8X8X8X8X8X8X8X8X8X",
"8X8X8X8X8X8X8X8XY A n u 9 1 < < < < < < < 1 < 1 < 1 1 < 1 1 > > 1 1 1 1 1 5 1 1 5 2 5 3 7 8 { 8X8X8X8X8X8X8X8X8X8X8X8X8X",
"8X8X8X8X8X8X8X8X8XT D n x r y 2 > 1 < < < < < 1 < 1 < < < 1 1 > 1 1 1 1 1 1 1 1 1 5 5 5 6 i i f 8X8X8X8X8X8X8X8X8X8X8X8X",
"8X8X8X8X8X8X8X8X8X8XI H A v z r 9 > > : : : : : : : : : : : : : : : > > < > : 5 1 1 1 5 6 y p O.8X8X8X8X8X8X8X8X8X8X8X8X",
"8X8X8X8X8X8X8X8X8X8X8XP H A m c x r 0 9 , > > > > > : : : : : : > > : > > 1 5 > , 2 9 u r x b n w.8X8X8X8X8X8X8X8X8X8X8X",
"8X8X8X8X8X8X8X8X8X8X8XT P H H M m c z e w 0 9 , , > , > , > > : 1 > > > > > , 9 q u a b c n A L Y 8X8X8X8X8X8X8X8X8X8X8X",
"8X8X8X8X8X8X8X8X8X8X8X8X8XP H J C M m N v l l k e e w w 0 0 0 0 9 9 0 0 w w e x b c v m A H I I 8X8X8X8X8X8X8X8X8X8X8X8X",
"8X8X8X8X8X8X8X8X8X8X8X8X8X8XK K J Z Z C B M m N v v l l l k l k k k k z z l v v m A C H H J P 8X8X8X8X8X8X8X8X8X8X8X8X8X",
"8X8X8X8X8X8X8X8X8X8X8X8X8X8X8X8XP J J Z V B B V V B B B B B B B B M B B C C C Z H Z H P P 8X8X8X8X8X8X8X8X8X8X8X8X8X8X8X",
"8X8X8X8X8X8X8X8X8X8X8X8X8X8X8X8X8XK K J G G V V V V V V V V V V V V V V Z Z J J J J P P 8X8X8X8X8X8X8X8X8X8X8X8X8X8X8X8X",
"8X8X8X8X8X8X8X8X8X8X8X8X8X8X8X8X8X8X8XU K G G G V V V V V V V V V V Z Z J J G J K P 8X8X8X8X8X8X8X8X8X8X8X8X8X8X8X8X8X8X",
"8X8X8X8X8X8X8X8X8X8X8X8X8X8X8X8X8X8X8X8X8X8XK K K G K G G G G G J G G K K K K 8X8X8X8X8X8X8X8X8X8X8X8X8X8X8X8X8X8X8X8X8X",
"8X8X8X8X8X8X8X8X8X8X8X8X8X8X8X8X8X8X8X8X8X8X8X8XU K K K K K K K K K K K U 8X8X8X8X8X8X8X8X8X8X8X8X8X8X8X8X8X8X8X8X8X8X8X",
"8X8X8X8X8X8X8X8X8X8X8X8X8X8X8X8X8X8X8X8X8X8X8X8X8X8X8X8X8X8X8X8X8X8X8X8X8X8X8X8X8X8X8X8X8X8X8X8X8X8X8X8X8X8X8X8X8X8X8X8X",
"8X8X8X8X8X8X8X8X8X8X8X8X8X8X8X8X8X8X8X8X8X8X8X8X8X8X8X8X8X8X8X8X8X8X8X8X8X8X8X8X8X8X8X8X8X8X8X8X8X8X8X8X8X8X8X8X8X8X8X8X"
};
