/* XPM */
static char *result[] = {
/* columns rows colors chars-per-pixel */
"60 60 212 2 ",
"   c #3B3E3D",
".  c #353838",
"X  c #3E413E",
"o  c #46463C",
"O  c #59573E",
"+  c #524F3A",
"@  c #3E4141",
"#  c #434544",
"$  c #474943",
"%  c #494B49",
"&  c #4E5048",
"*  c #56584A",
"=  c #6A6949",
"-  c #676856",
";  c #757149",
":  c #787A65",
">  c #8E6F14",
",  c #936E15",
"<  c #9C6E16",
"1  c #8F7013",
"2  c #947414",
"3  c #997614",
"4  c #977815",
"5  c #9C7B14",
"6  c #957519",
"7  c #9C751B",
"8  c #97781A",
"9  c #9B7C1A",
"0  c #A46D16",
"q  c #AB6D16",
"w  c #A76F18",
"e  c #B46D17",
"r  c #BB6C17",
"t  c #B46F18",
"y  c #A07F14",
"u  c #A4731A",
"i  c #AE7219",
"p  c #A4761B",
"a  c #B5721B",
"s  c #B97019",
"d  c #9C7C23",
"f  c #9D7F2C",
"g  c #A97B26",
"h  c #B67825",
"j  c #A47F33",
"k  c #C56B17",
"l  c #CB6A16",
"z  c #C96D18",
"x  c #C26F19",
"c  c #D26C19",
"v  c #D96C18",
"b  c #C9721B",
"n  c #D5701B",
"m  c #E36C19",
"M  c #EC6D1B",
"N  c #E06B17",
"B  c #F26917",
"V  c #FE671C",
"C  c #F36A1A",
"Z  c #FC691C",
"A  c #EE711E",
"S  c #CA7627",
"D  c #D97727",
"F  c #D77B32",
"G  c #FD6723",
"H  c #F66E21",
"J  c #FC6B24",
"K  c #FA6B2C",
"L  c #E97426",
"P  c #FA7129",
"I  c #F67327",
"U  c #F96B31",
"Y  c #EC7C31",
"T  c #F87331",
"R  c #897F42",
"E  c #9F801A",
"W  c #A38215",
"Q  c #A88616",
"!  c #A4841A",
"~  c #A8871C",
"^  c #A7881D",
"/  c #AB8A1D",
"(  c #B18F1E",
")  c #B4921D",
"_  c #B8961D",
"`  c #BD9A1E",
"'  c #9E8123",
"]  c #9E812A",
"[  c #9E8132",
"{  c #A38423",
"}  c #A98621",
"|  c #A78923",
" . c #AD8C22",
".. c #A2852D",
"X. c #AB8D2A",
"o. c #A68929",
"O. c #B08F22",
"+. c #B18F29",
"@. c #AF912E",
"#. c #AF9027",
"$. c #B39224",
"%. c #B89723",
"&. c #BC9A23",
"*. c #B39229",
"=. c #B9972C",
"-. c #BC9A2C",
";. c #A68934",
":. c #AB8F32",
">. c #A68937",
",. c #AE9035",
"<. c #AE923B",
"1. c #B29534",
"2. c #B2953B",
"3. c #B99A37",
"4. c #B08038",
"5. c #C19E1E",
"6. c #C5A11F",
"7. c #CAA61F",
"8. c #CFAA1F",
"9. c #D2AD1F",
"0. c #DBB51F",
"q. c #D6B11F",
"w. c #C19E25",
"e. c #C19F30",
"r. c #E08330",
"t. c #C5A222",
"y. c #C9A621",
"u. c #CDAA23",
"i. c #C4A22B",
"p. c #CDA92B",
"a. c #D2AD22",
"s. c #D3AF2C",
"d. c #D5B123",
"f. c #DBB522",
"g. c #DAB52B",
"h. c #DBB625",
"j. c #C4A232",
"k. c #C9A634",
"l. c #CCAA35",
"z. c #C9A73A",
"x. c #D0AE3B",
"c. c #D2AE35",
"v. c #D5B13B",
"b. c #D9B53C",
"n. c #DBB737",
"m. c #E3BC22",
"M. c #E3BD2C",
"N. c #E2BD34",
"B. c #E1BC3C",
"V. c #EBC325",
"C. c #EBC42C",
"Z. c #EAC329",
"A. c #F3CB2B",
"S. c #F8D42F",
"D. c #EAC337",
"F. c #F3CD34",
"G. c #F1CB3C",
"H. c #F6D235",
"J. c #F9D532",
"K. c #F9DC3B",
"L. c #F8D538",
"P. c #FCE13E",
"I. c #8A8449",
"U. c #948D4A",
"Y. c #988F50",
"T. c #B59944",
"R. c #A69C55",
"E. c #BAAB4B",
"W. c #BDB351",
"Q. c #BDAD56",
"!. c #85866B",
"~. c #939477",
"^. c #A39F69",
"/. c #C7AB46",
"(. c #DAB642",
"). c #DCB843",
"_. c #C8B754",
"`. c #E2BD42",
"'. c #E1BC49",
"]. c #C3BA6D",
"[. c #C6C054",
"{. c #EBC645",
"}. c #EAC54D",
"|. c #E8C448",
" X c #F3CE4C",
".X c #F4D44D",
"XX c #F8DA46",
"oX c #EECB5A",
"OX c #E9C755",
"+X c #F1CD56",
"@X c #E9D457",
"#X c #F4D354",
"$X c #F4D658",
"%X c #EFD34E",
"&X c #FAE549",
"*X c #F5E754",
"=X c #EDE052",
"-X c #D7C86F",
";X c #F3D363",
":X c #F7DA6A",
">X c #F7DD74",
",X c #EBD36C",
"<X c #F8E27B",
"1X c #B6B68D",
"2X c #D4D090",
"3X c #E7DE8A",
"4X c #F7E687",
"5X c #F9EC95",
"6X c #F5ED9D",
"7X c #D4D4A5",
"8X c #F3F0AF",
"9X c None",
/* pixels */
"9X9X9X9X9X9X9X9X9X9X9X9X9X9X9X9X9X9X9X9X9X9X9X9X9X9X9X9X9X9X9X9X9X9X9X9X9X9X9X9X9X9X9X9X9X9X9X9X9X9X9X9X9X9X9X9X9X9X9X9X",
"9X9X9X9X9X9X9X9X9X9X9X9X9X9X9X9X9X9X9X9X9X9X9X9X9X9X9X9X9X9X9X9X9X9X9X9X9X9X9X9X9X9X9X9X9X9X9X9X9X9X9X9X9X9X9X9X9X9X9X9X",
"9X9X9X9X9X9X9X9X9X9X9X9X9X9X9X9X9X9X9X9X9X9X9X9X9X9X9X9X9X9X9X9X9X9X9X9X9X9X9X9X9X9X9X9X9X9X9X9X9X9X9X9X9X9X9X9X9X9X9X9X",
"9X9X9X9X9X9X9X9X9X9X9X9X9X9X9X9X9X9X9X9X9X9X9X9X9X9X9X9X9X9X9X9X9X9X9X9X9X9X9X9X9X9X9X9X9X9X9X9X9X9X9X9X9X9X9X9X9X9X9X9X",
"9X9X9X9X9X9X9X9X9X9X9X9X9X9X9X9X9X9X9X9X9X9X9X9X9X9X9X9X9X9X9X9X9X9X9X9X9X9X9X9X9X9X9X9X9X9X9X9X9X9X9X9X9X9X9X9X9X9X9X9X",
"9X9X9X9X9X9X9X9X9X9X9X9X9X9X9X9X9X9X9X9X9X9X9X9X9X9X9X9X9X9X9X9X9X9X9X9X9X9X9X9X9X9X9X9X9X9X9X9X9X9X9X9X9X9X9X9X9X9X9X9X",
"9X9X9X9X9X9X9X9X9X9X9X9X9X9X9X@X$X$X9X9X9X9X9X9X9X9X9X9X9X9X9X9X9X9X9X9X9X9X9X9X9X9X9X9X9X9X9X9X9X9X9X9X9X9X9X9X9X9X9X9X",
"9X9X9X9X9X9X9X9X9X9X9X9X9X; Y._.%X.X9X9X9X9X9X9X9X9X9X9X9X9X9X9X9X9X9X9X9X9X9X9X9X9X9X9X9X9X9X9X9X9X9X9X9X9X9X9X9X9X9X9X",
"9X9X9X9X9X9X9X9X9X9X9X9X+ = U.E.%X.X{.9X9X9X9X9X9X9X9X9X9X9X9X9X9X9X9X9X9X9X9X9X9X9X9X9X9X9X9X9X9X9X9X9X9X9X9X9X9X9X9X9X",
"9X9X9X9X9X9X9X9X9X9X9X# o + f E.%X.X{.`.9X9X9X9X9X9X9X9X9X9X9X9X9X9X9X9X9X9X9X9X9X9X9X9X9X9X9X9X9X9X9X9X9X9X9X9X9X9X9X9X",
"9X9X9X9X9X9X9X9X9X9X@   o O Y._. X X{.{.9X9X9X9X9X9X9X9X9X9X9X9X9X9X9X9X9X9X9X9X9X9X9X9X9X9X9X9X9X9X9X9X9X9X9X9X9X9X9X9X",
"9X9X9X9X9X9X9X9X9X#   . + = _.@X#X X{.`.v.9X9X9X9X9X9X9X9X9X9X9X9X9X9X9X9X9X9X9X9X9X9X9X9X9X9X9X9Xr.r.9X9X9X9X9X9X9X9X9X",
"9X9X9X9X9X9X9X9X@   @ # ; ^.-X;X$X X{.B.v.9X9X9X9X9X9X9X9X9X9X9X9X9X9X9X9X9X9X9X9X9X9X9X9X9X9Xg S D L I 9X9X9X9X9X9X9X9X",
"9X9X9X9X9X9X9X# # % * - ^.-X>X:X+X+X|.b.v.l.9X9X9X9X9X9X9X9X9X9X9X9X9X9X9X9X9X9X9X9X9X9X9X9X{ p i b A H P 9X9X9X9X9X9X9X",
"9X9X9X9X9X9X9X& - !.1X1X2X3X>X:X+X}.`.`.v.k.9X9X9X9X9X9X9X9X9X9X9X9X9X9X9X9X9X9X9X9X9X9X..g 7 7 y x n A P 9X9X9X9X9X9X9X",
"9X9X9X9X9X9X% * : 1X2X7X6X5X<X;XoX}.'.b.v.k.-.9X9X9X9X9X9X9X9X9X9X9X9X9X9X9X9X9X9X9X9X} y 9 8 3 7 r n A Z P 9X9X9X9X9X9X",
"9X9X9X9X9X9X@ * ~.7X8X8X6X4X>X;XOX'.'.b.c.j.e.9X9X9X9X9X9X9X9X9X9X9X9X9X9X9X9X9X9X9X{ ! 7 8 5 6 6 i b m H P P 9X9X9X9X9X",
"9X9X9X9X9X@ @ * !.7X8X8X5X4X:XoX}.'.(.x.k.e.=.+.9X9X9X9X9X9X9X9X9X9X9X9X9X9X9X9X9X} y 9 5 7 6 6 6 p s v C J J 9X9X9X9X9X",
"9X9X9X9X9X@ X * R 7X6X4X4X:X;XoX'.).x.x.j.e.e.+.9X9X9X9X9X9X9X9X9X9X9X9X9X9X9X9X} ! 9 7 3 4 2 6 6 < q c A Z J T 9X9X9X9X",
"9X9X9X9X- o o - ^.7X4X4X>X;XoX'.).(.x.k.e.e.*.*.*.9X9X9X9X9X9X9X9X9X9X9X9X9X9X~ ! y 5 5 3 3 2 2 2 < u b m C J P 9X9X9X9X",
"9X9X9X9X= + * Y.].4X4X>X;XoX}.'.).x.l.j.e.=.$.$.*.X.9X9X9X9X9X9X9X9X9X9X9X9X~ W y 5 5 7 4 4 2 6 , 6 0 r v C G J 9X9X9X9X",
"9X9X9X9XU.I.I.Q.,X>X:X;X+X}.'.`.x.x.j.e.e.=.=.*.+.X.9X9X9X9X9X9X9X9X9X9X9X~ ! y y 5 5 3 4 3 2 , 2 , < r v C Z J K 9X9X9X",
"9X9X9X[.W.W.W.@X:X:X$X+X}.`.B.b.c.k.e.e.=.=.$.*.+.O.9X9X9X9X9X9X9X9X9X9X} ! y 5 5 y 3 3 3 3 , 6 , 6 < t c C V J K 9X9X9X",
"9X9X9X*X=X%X@X$X#X$X X{.`.B.n.c.p.j.w.w.$.$.$.$.O.O.O.9X9X9X9X9X9X9X .~ W y y y 5 5 5 4 4 3 6 2 6 , , q z C V J J U 9X9X",
"9X9X9X*X&X&X&XXXXX XG.{.N.N.s.c.i.w.&.&.%.$.O.$.O.O.O.} 9X9X9X9X9X( Q Q W y 5 y 5 5 5 3 3 2 2 2 > > , q z B V G G U 9X9X",
"9X9X9X&X&X&XXXXX XG.N.N.N.g.s.p.w.w.%.%.$.) $.$.O.( } } 9X9X9X9X) Q Q y W y y p 5 5 3 3 3 < 2 1 > , , 0 k C V V G K 9X9X",
"9X9X9X&X&XXXXXL.G.G.N.M.s.s.u.y.w.&.%.) ) ( ) ( ( ( / / } 9X9XO.Q Q Q Q y y y y 5 5 3 3 3 2 2 2 6 , , 0 k B Z V J U 9X9X",
"9X9X*X&XK.L.L.G.F.D.M.g.g.s.u.w.w.%.) ) ) ) ( ( ( ( ( Q / } +.} Q Q y y W y y y 5 5 3 3 3 2 2 2 > > , 0 k C Z V G K 9X9X",
"9X9X&XP.K.J.J.F.C.M.M.g.q.8.7.5._ _ ( ) ) ) ( ( ( ( ( / / / / Q Q W W W y y y 3 5 5 3 3 3 2 2 2 > > , q k B V V G K 9X9X",
"9X9XXXK.J.S.A.A.V.M.m.a.8.8.5.5._ _ ) ) ) ) ( ( ( ( Q ( / Q Q Q Q Q W y y y y y y 3 3 3 3 2 2 1 , > , 0 k B V V G K 9X9X",
"9X9XXXK.J.S.A.Z.m.m.f.a.8.7.5._ ) ) ) ) ) ( ( ( ( ( / Q Q Q Q Q W W y y y y y 5 5 5 3 3 2 2 2 , 1 > , q l B V V G K 9X9X",
"9X9XXXK.J.A.A.V.m.m.0.a.7.6.5.5._ ) ) ) ( ) ( ( ( / ( / / Q Q Q W W W y y y 5 5 5 5 3 3 3 2 , 1 > > , q l B V V G K 9X9X",
"9X9X9XL.S.A.V.V.m.0.q.8.7.6.` _ ) _ ) ) ( ) $./ $.( / / / Q Q Q W W W W W 5 5 5 5 3 3 2 2 2 2 1 , , , e l B V V G K 9X9X",
"9X9X9XL.S.A.V.V.m.0.q.7.6.5._ _ ) ) ) ) )  . .$./  ./ / / Q Q Q W W W W W 5 5 5 5 3 5 2 2 2 3 1 > > , e l B V V G K 9X9X",
"9X9X9XL.S.A.V.m.0.q.9.7.6.` _ _ ) $.$.) $./ $. .O./ / / ~ Q Q W W W W y W 5 W 5 5 5 2 3 3 2 1 1 > > < e v B V V J U 9X9X",
"9X9X9XL.S.V.V.m.0.0.8.6.5._ _ _ ) ) $.#.#.$. .O.O.O./ / ~ Q ~ Q W W W y W 5 5 3 3 3 3 2 1 2 2 1 > > < r N B V V G U 9X9X",
"9X9X9XH.F.C.m.0.0.q.u.6.` ` _ ) %.$.$.$.$.$.$./  ./  .~ ~ ~ Q W W W y y 5 5 W 3 3 5 3 2 3 2 1 1 > , < k N C V G K 9X9X9X",
"9X9X9X9XG.C.V.m.d.q.7.6.` _ _ ) $.$.$.$.O.+.O. . . ./ ~ ~ Q ~ W E W W W 5 W 3 W 5 3 3 3 1 2 2 1 > , 0 l m Z G J K 9X9X9X",
"9X9X9X9XG.C.M.h.q.a.7.&.` %.%.%.$.$.$.+.$.X.+. ./ / / / ~ ~ W ! W W y 5 W 5 5 3 3 5 3 2 2 2 2 1 > , q l B Z G J 9X9X9X9X",
"9X9X9X9X9XC.M.h.d.u.7.&.&.%.$.$.*.*.*.*.$.O.O. . ./ / / ~ ~ ! W W W 5 W 5 5 3 3 5 2 1 2 2 2 2 1 > < e v B Z J U 9X9X9X9X",
"9X9X9X9X9XC.M.g.d.u.t.&.&.%.$.*.*.*.*.X.*.X. ./  .} / ~ Q ! Q ! W E W 4 W 2 W 3 2 5 2 2 2 2 1 1 > 0 r v Z Z J T 9X9X9X9X",
"9X9X9X9X9XN.N.g.d.u.t.&.%.%.%.*.*.*.*.*.$.O. . ./ / / ^ ^ ^ ! E E W W W W W 2 3 5 2 3 2 2 1 1 1 > q k M C G J 9X9X9X9X9X",
"9X9X9X9X9XD.N.g.s.p.t.%.%.%.#.*.*.@.$.#.X.X.(  .} / ~ ^ ^ ! ! W E W 4 W 2 W W 3 2 3 2 2 2 2 1 2 < t v M Z J K 9X9X9X9X9X",
"9X9X9X9X9X9XB.n.s.p.i.%.*.%.*.*.*.$.@.#.+./  ./ /  .^ ^ ^ ! ! ! W 4 W W W 2 3 3 5 2 2 2 2 1 1 1 < x N C J P 9X9X9X9X9X9X",
"9X9X9X9X9X9X9X).c.l.i.=.*.%.*.*.$.*.#.#. . . . .^ } ^ ^ Q E ^ ! W E 4 E 4 4 4 4 4 4 2 2 2 1 1 3 t c M H J 9X9X9X9X9X9X9X",
"9X9X9X9X9X9X9X9Xx.l.e.=.=.*.*.*.#.#.#.#. . ./ } / ^ ^ ^ ! ! E E E E W 4 E 4 5 4 4 2 2 2 1 1 1 q b m H J P 9X9X9X9X9X9X9X",
"9X9X9X9X9X9X9X9X/.x.j.3.=.*.*.*.#.#.#. . . ./ / / ~ ~ ! ! ! Q E E E W 4 E 4 5 4 4 2 2 1 2 2 2 e n M J P 9X9X9X9X9X9X9X9X",
"9X9X9X9X9X9X9X9X9X/.z.3.1.1.*.*.#.#. . . ./ / ^ ~ ^ ~ ! ! ! E E E 4 W E 5 5 4 5 2 2 2 2 2 3 3 k M H P 9X9X9X9X9X9X9X9X9X",
"9X9X9X9X9X9X9X9X9X9X/.T.3.3.*.*.@.#.#. . ./ / ^ ^ ^ ! ^ E W ! E W 4 E 4 4 W 1 4 1 4 1 1 6 4 e c H P T 9X9X9X9X9X9X9X9X9X",
"9X9X9X9X9X9X9X9X9X9X9XT.T.3.1.1.@.X. . .| / / ^ ^ ^ ^ W ^ E E W E E E 4 W 1 4 4 6 6 6 6 p a S D I 9X9X9X9X9X9X9X9X9X9X9X",
"9X9X9X9X9X9X9X9X9X9X9X9XT.T.2.2.@.@.X. . ./ | ^ ^ E ^ E E ! E E W E 4 E E 4 4 1 6 6 6 u a S L I 9X9X9X9X9X9X9X9X9X9X9X9X",
"9X9X9X9X9X9X9X9X9X9X9X9X9XT.T.2.,.@.#. .#.|  .^ ^ ^ ^ ^ E E E E E 4 E 4 4 E 1 E , d u h S D I 9X9X9X9X9X9X9X9X9X9X9X9X9X",
"9X9X9X9X9X9X9X9X9X9X9X9X9X9X9XT.,.,.,.X.o.| | ^ ^ ^ ! E { E E E E 9 9 8 E 8 8 8 d d h S D Y 9X9X9X9X9X9X9X9X9X9X9X9X9X9X",
"9X9X9X9X9X9X9X9X9X9X9X9X9X9X9X9XT.<.,.,.@.o.o.| { ^ ' ^ E ! E E E E 9 8 8 8 8 8 g h S F 9X9X9X9X9X9X9X9X9X9X9X9X9X9X9X9X",
"9X9X9X9X9X9X9X9X9X9X9X9X9X9X9X9X9X9X<.,.:.;.X.o.o.{ { { { ' E d ' d d d d d ] f g h F 9X9X9X9X9X9X9X9X9X9X9X9X9X9X9X9X9X",
"9X9X9X9X9X9X9X9X9X9X9X9X9X9X9X9X9X9X9X9X9X<.:.;.;.....o.' ....] ] ] f f j >.4.9X9X9X9X9X9X9X9X9X9X9X9X9X9X9X9X9X9X9X9X9X",
"9X9X9X9X9X9X9X9X9X9X9X9X9X9X9X9X9X9X9X9X9X9X9X9X>.;...;.....[ ] [ [ [ [ >.9X9X9X9X9X9X9X9X9X9X9X9X9X9X9X9X9X9X9X9X9X9X9X",
"9X9X9X9X9X9X9X9X9X9X9X9X9X9X9X9X9X9X9X9X9X9X9X9X9X9X9X9X9X9X9X9X9X9X9X9X9X9X9X9X9X9X9X9X9X9X9X9X9X9X9X9X9X9X9X9X9X9X9X9X",
"9X9X9X9X9X9X9X9X9X9X9X9X9X9X9X9X9X9X9X9X9X9X9X9X9X9X9X9X9X9X9X9X9X9X9X9X9X9X9X9X9X9X9X9X9X9X9X9X9X9X9X9X9X9X9X9X9X9X9X9X",
"9X9X9X9X9X9X9X9X9X9X9X9X9X9X9X9X9X9X9X9X9X9X9X9X9X9X9X9X9X9X9X9X9X9X9X9X9X9X9X9X9X9X9X9X9X9X9X9X9X9X9X9X9X9X9X9X9X9X9X9X"
};
