/* XPM */
static char *result[] = {
/* columns rows colors chars-per-pixel */
"60 60 224 2 ",
"   c #000000",
".  c #090606",
"X  c #0C0906",
"o  c #0C0B09",
"O  c #110B05",
"+  c #120D0B",
"@  c #1E0F08",
"#  c #14110B",
"$  c #16130A",
"%  c #1D1B12",
"&  c #181613",
"*  c #2D160A",
"=  c #21160A",
"-  c #221D15",
";  c #2A1A11",
":  c #361B0E",
">  c #2C2414",
",  c #2B261B",
"<  c #352E1C",
"1  c #372317",
"2  c #38331C",
"3  c #29250E",
"4  c #2A2C2B",
"5  c #242425",
"6  c #322B23",
"7  c #3C3626",
"8  c #333427",
"9  c #2F3332",
"0  c #333634",
"q  c #35393B",
"w  c #3C3D3C",
"e  c #363938",
"r  c #523516",
"t  c #71370F",
"y  c #693B1E",
"u  c #6B3311",
"i  c #753511",
"p  c #473B27",
"a  c #643D2A",
"s  c #3C403D",
"d  c #53441A",
"f  c #735F1D",
"g  c #6E541A",
"h  c #7B600D",
"j  c #7C6216",
"k  c #44412C",
"l  c #4E4628",
"z  c #544A28",
"x  c #5E562A",
"c  c #4A4934",
"v  c #584A34",
"b  c #565237",
"n  c #79492D",
"m  c #675C38",
"M  c #7D5F36",
"N  c #6C502F",
"B  c #76662B",
"V  c #6B6334",
"C  c #7F6E3B",
"Z  c #746736",
"A  c #787032",
"S  c #7C792E",
"D  c #3D3F40",
"F  c #3F4143",
"G  c #444547",
"H  c #4E5145",
"J  c #505342",
"K  c #6F6340",
"L  c #75704F",
"P  c #855114",
"I  c #B74E11",
"U  c #936E00",
"Y  c #9B6B01",
"T  c #967100",
"R  c #9B7401",
"E  c #9E7901",
"W  c #9B740A",
"Q  c #8F7113",
"!  c #9D7E17",
"~  c #96781B",
"^  c #8A6B0C",
"/  c #A26B01",
"(  c #AB6A01",
")  c #B36A01",
"_  c #BC6B01",
"`  c #B96B06",
"'  c #A07601",
"]  c #A37C00",
"[  c #A87F01",
"{  c #A57C0A",
"}  c #BD7204",
"|  c #A87C12",
" . c #884D2F",
".. c #8F542C",
"X. c #99502D",
"o. c #825031",
"O. c #925332",
"+. c #A95328",
"@. c #B35324",
"#. c #846B25",
"$. c #887825",
"%. c #8B793E",
"&. c #9B7E25",
"*. c #D25210",
"=. c #CD520B",
"-. c #E75A09",
";. c #F65C06",
":. c #FE5C01",
">. c #F35C09",
",. c #E25F14",
"<. c #CA6B02",
"1. c #C76804",
"2. c #DB6503",
"3. c #DD6804",
"4. c #D46802",
"5. c #EC6502",
"6. c #E86508",
"7. c #F46101",
"8. c #FC6102",
"9. c #F86605",
"0. c #C36025",
"q. c #A68101",
"w. c #AB8401",
"e. c #AE8801",
"r. c #AA840C",
"t. c #A3800E",
"y. c #B38C01",
"u. c #B88F01",
"i. c #B18B09",
"p. c #B69003",
"a. c #BB9201",
"s. c #B5910B",
"d. c #BB9508",
"f. c #A48214",
"g. c #A38318",
"h. c #BA961B",
"j. c #B59514",
"k. c #A5941F",
"l. c #AFA41E",
"z. c #B9A91A",
"x. c #948032",
"c. c #9A8B25",
"v. c #A68A28",
"b. c #AF9C21",
"n. c #A68B35",
"m. c #B7972D",
"M. c #C09701",
"N. c #C49A01",
"B. c #C99E01",
"V. c #C79E0E",
"C. c #C29B12",
"Z. c #CDA202",
"A. c #CEA50B",
"S. c #D1A602",
"D. c #D5AA01",
"F. c #DAAE01",
"G. c #D9AE0B",
"H. c #D3A90B",
"J. c #DEB202",
"K. c #DBB20D",
"L. c #C4B215",
"P. c #D9B314",
"I. c #CFA91C",
"U. c #E2B501",
"Y. c #E6B903",
"T. c #EBBC02",
"R. c #E3B709",
"E. c #E3BA0A",
"W. c #EABD0E",
"Q. c #E1B611",
"!. c #E7BB18",
"~. c #C09D29",
"^. c #D0B92E",
"/. c #C6AD27",
"(. c #EDC00C",
"). c #EDC806",
"_. c #F2C302",
"`. c #F7C801",
"'. c #F9CC02",
"]. c #F4C40E",
"[. c #FBD301",
"{. c #FADB03",
"}. c #F8D407",
"|. c #F5C917",
" X c #EFD11A",
".X c #FBD31B",
"XX c #FCD918",
"oX c #F7E109",
"OX c #EEE510",
"+X c #FBE619",
"@X c #ECC127",
"#X c #F3C625",
"$X c #FBD72B",
"%X c #EFC533",
"&X c #F5CB3D",
"*X c #F7CC38",
"=X c #FBD438",
"-X c #EDE131",
";X c #FEE53C",
":X c #EEE326",
">X c #8F8C47",
",X c #A3A05F",
"<X c #B9B457",
"1X c #C6BB4B",
"2X c #F6CE45",
"3X c #F7DA46",
"4X c #FAD955",
"5X c #FCE254",
"6X c #FEF05C",
"7X c #FBDE66",
"8X c #EDE26D",
"9X c #FCE66E",
"0X c #FCE874",
"qX c #FAF47A",
"wX c #A6A783",
"eX c #CBCB94",
"rX c #EAE68C",
"tX c #FDEF87",
"yX c #FDF38E",
"uX c #FDF793",
"iX c #D0D1A2",
"pX c #FCFCB4",
"aX c #FEFCAA",
"sX c #FAFACA",
/* pixels */
"                                                                                                                        ",
"                                                                                                                        ",
"                                                                                                                        ",
"                                                                                                                        ",
"                                                                                                                        ",
"                                                                                                                        ",
"                                                                                                                        ",
"                                                                                  .                                     ",
"                                                                              . % , #                                   ",
"                                                                              $ A ^.A & .                               ",
"                                                                            . p L.+X-X>X0 .                             ",
"                                                                            # x.$X+Xb.c H s                             ",
"                                                                            z P.XX$X^.k e D w                           ",
"                          y , .                                           . v.]..X$X-XA 0 q F 5                         ",
"                      . t 9.1.g = .                                       l K.]..X=X5X1Xc 0 D G o .                     ",
"                      : 6.9.<.W j < o                                   . &.R.W.#X3X4X8X,XH D D G .                     ",
"                    O I 9.5.) R W h 2 +                                 p V.R.W.#X*X4X0XrXeXwXL F 5                     ",
"                  . u 8.8.4.R T R R ^ d +                             . ~ H.K.W.!.*X4X0XuXpXsXiXe F o                   ",
"                  = 6.8.9.<.Y T R R T ^ d #                         . 1 d.A.G.P.!.%X2X7XtXaXsXeX0 q e .                 ",
"                O i 8.8.5.( U R R R R E W f > .                     - Q B.Z.A.K.!.@X&X4X9XyXpXeX4 e s &                 ",
"              . * =.:.:.2.Y Y R R R ' ] ] { $.1 .                 . z e.M.N.B.G.P.!.%X2X4X0XuXrXb 8 e 8 .               ",
"              O y -.:.;.<.Y T R R R ' R ] ] { ~ 8 .             . - Q d.M.M.B.A.P.P.!.#X2X4X9XqX<Xs e c +               ",
"              @ I ;.:.:._ U T T R R ' ] E ] ] w.g.c .           + x e.a.d.a.N.B.A.G.R.!.#X*X3X5X6X1Xx S 2 .             ",
"              * =.;.:.7.) U U Y R R R ' ] ' ] [ [ r.k .       . 6 Q a.u.u.a.a.B.Z.D.J.R.W.|.$X=X;X;X:X:XV .             ",
"            . r -.;.:.;./ U U Y R R R ' ' ] ] [ [ w.| v +     $ M r.u.u.a.a.M.M.B.S.F.U.T._.]..XXX+X+XOX$.o             ",
"            X  .>.:.:.;./ U U Y Y R ' ] ' ] ] ] [ [ w.| x X   p / y.u.u.u.u.u.M.N.B.S.F.Y.T._.'.}.}.oXoXc.o             ",
"            O +.;.:.;.;.Y U U U R R R ' ' ] [ [ [ [ [ w.r.V > #.i.y.u.u.u.a.M.M.M.B.S.F.J.Y._._.'.[.{.oXl.O             ",
"            O +.;.:.:.;./ U U U R R R ' ' ' ] ] [ [ [ w.w.r.~ w.y.y.y.y.u.u.u.u.a.N.B.S.F.Y.T._.`.'.{.{.z.$             ",
"            O @.;.:.:.;.Y U T Y U R R R ] ] ] ] [ [ [ [ w.e.e.y.y.y.y.u.u.u.u.a.a.M.B.S.D.J.Y.T.`.'.}.{.L.$             ",
"            X @.;.:.:.;./ U U U Y R R R R ' ' ] [ [ [ e.w.w.w.e.w.y.y.y.u.u.u.u.a.M.N.B.D.J.U.Y.).`.'.{.L.$             ",
"            O +.;.:.:.;.( U U U Y R R R ' ] ] ] [ [ w.[ w.w.w.y.y.y.y.u.u.u.a.a.a.a.M.B.Z.D.U.Y._._.'.{.z.O             ",
"            . X.>.:.:.;.( U U T T R R R ' ' ] ( [ [ [ [ [ w.w.w.y.e.y.y.u.u.u.u.a.a.M.N.Z.D.J.U.T._.'.}.k.+             ",
"            X  .-.:.:.:.) U U U T R R R R ] ' ] ] [ [ q.[ w.y.w.y.e.y.y.u.u.u.u.a.a.M.N.B.S.F.U.T._.'.).x..             ",
"            . a -.:.:.:.1.U U U Y U R R R R ] ] ] [ [ w.w.w.[ y.e.y.y.y.y.u.u.u.a.a.a.M.B.Z.D.U.Y.T.'.).B .             ",
"              1 *.:.:.:.=.U U U T R R R R R ] ' ] ] [ [ [ w.[ y.e.e.y.y.y.u.u.u.a.a.a.a.N.Z.S.F.Y._.`.E.d .             ",
"              @ +.>.:.:.2.Y U U T T T R R ] ] ] ] [ q.] [ w.w.w.e.e.y.y.y.u.u.u.a.a.a.M.M.B.S.F.U.T._.j.3               ",
"              + N -.:.:.-./ U U U T T R R ' R ] [ [ q.q.w.w.w.w.[ y.y.y.y.y.u.s.a.a.a.a.M.N.S.D.U.T.(.S #               ",
"              . 1 *.:.:.7.) U U U T T R R R E ] ] ] ] [ q.[ w.e.e.e.e.y.y.y.u.u.a.a.a.a.M.N.S.D.J.Y.K.l X               ",
"                +  .8.:.;.<.Y U T T T R R ] R ] ' ] ] [ [ w.w.w.[ e.y.y.y.y.u.u.a.a.a.a.a.N.Z.D.J._.c.&                 ",
"                . 1 ,.:.:.6./ U U T T R R R ] E ] ] ] q.q.w.q.w.y.e.[ y.y.y.u.u.p.d.a.a.a.a.Z.D.J.R.l .                 ",
"                  o O.>.:.8.` U U T T T T E E E ] ] ] q.q.w.w.w.w.e.e.e.e.y.p.y.p.p.p.a.a.N.Z.D.R.v.#                   ",
"                    - 0.8.8.2./ U T T T R R E E E E ] ] q.q.q.w.w.w.e.e.e.y.y.p.p.p.p.p.a.a.Z.G.I.7 .                   ",
"                    . p -.9.5.1.R T T T T R E E ] E ] q.q.q.q.w.e.w.e.e.y.y.y.p.p.p.p.a.a.a.A.I.m .                     ",
"                      o N 6.9.3.( T T T T E R E E ] ] ] q.q.q.q.w.w.e.e.e.e.e.y.u.y.p.d.a.C./.C o                       ",
"                        + o.6.9.<.R T T E T R E ] ] ] ] q.q.q.q.q.e.e.w.e.y.y.p.y.u.d.s.h.~.%.&                         ",
"                          + ..=.6._ R T T T E E E E E ] ] q.q.q.w.w.w.e.e.e.e.p.y.p.s.h.m.%.3                           ",
"                            o v t 4.} T T E R R E E ] q.] q.] q.w.q.w.w.e.e.e.e.s.s.h.n.K &                             ",
"                              X 6 ; 3.} E T R E E E E E q.] q.q.q.w.w.w.e.e.i.i.s.h.n.c .                               ",
"                                  & ; r ` { R E E E ] E q.q.q.q.q.e.q.e.e.r.s.j.v.L , .                                 ",
"                                    . - : P | { W E E q.E q.q.q.q.q.e.e.i.j.c.C 7 .                                     ",
"                                        . & p o.#.~ ~ ! g.f.f.f.g.g.g.$.Z b > .                                         ",
"                                          . . & - 7 b m m V Z V V b 8 - o o                                             ",
"                                                  . + # + # + # # o . .                                                 ",
"                                                                                                                        ",
"                                                                                                                        ",
"                                                                                                                        ",
"                                                                                                                        ",
"                                                                                                                        ",
"                                                                                                                        ",
"                                                                                                                        "
};
