/* XPM */
static char *result[] = {
/* columns rows colors chars-per-pixel */
"60 60 238 2 ",
"   c #AD3A2C",
".  c #A8352A",
"X  c #B33B2D",
"o  c #BB3E2F",
"O  c #AA3C31",
"+  c #B33E32",
"@  c #B93F33",
"#  c #9F352D",
"$  c #94453C",
"%  c #BC412F",
"&  c #B54235",
"*  c #BB4335",
"=  c #BF4837",
"-  c #B5443A",
";  c #BD453A",
":  c #B3483E",
">  c #BD493C",
",  c #C24536",
"<  c #C44937",
"1  c #C2463A",
"2  c #C44B3C",
"3  c #CA4C3D",
"4  c #C84936",
"5  c #CD513E",
"6  c #C6503E",
"7  c #984C44",
"8  c #94554D",
"9  c #9A5249",
"0  c #8C5E58",
"q  c #9A5C53",
"w  c #975954",
"e  c #8C4F48",
"r  c #B44D43",
"t  c #BD4D43",
"y  c #BC4E48",
"u  c #AA544B",
"i  c #A5554A",
"p  c #BC5144",
"a  c #BE554A",
"s  c #BD5A4D",
"d  c #B35246",
"f  c #AD5C53",
"g  c #A75D56",
"h  c #B35E54",
"j  c #BC5D53",
"k  c #BE5650",
"l  c #A64D45",
"z  c #99635A",
"x  c #AA665D",
"c  c #A6645A",
"v  c #B3665C",
"b  c #BC635A",
"n  c #BD695D",
"m  c #B56559",
"M  c #996A64",
"N  c #93726B",
"B  c #AC6E64",
"V  c #A46A62",
"C  c #B46C62",
"Z  c #BB6E64",
"A  c #B56661",
"S  c #AC726B",
"D  c #A77368",
"F  c #B3736A",
"G  c #BB756B",
"H  c #BA746A",
"J  c #AC7B75",
"K  c #A87B76",
"L  c #B47A73",
"P  c #BC7C73",
"I  c #B97D77",
"U  c #C44C42",
"Y  c #CB4E43",
"T  c #C64D47",
"R  c #D04F43",
"E  c #C45245",
"W  c #CC5244",
"Q  c #C4544A",
"!  c #CC544A",
"~  c #C45A4D",
"^  c #CC5A4C",
"/  c #CD5845",
"(  c #D25445",
")  c #D2554B",
"_  c #D35A4D",
"`  c #DA5A4D",
"'  c #D65849",
"]  c #C45D53",
"[  c #CB5C52",
"{  c #CD5E59",
"}  c #CC5750",
"|  c #D45C52",
" . c #DB5D53",
".. c #D85A54",
"X. c #C46154",
"o. c #CC6255",
"O. c #C5655B",
"+. c #CB645A",
"@. c #C4695D",
"#. c #CB6A5C",
"$. c #D46255",
"%. c #DB6255",
"&. c #D3645A",
"*. c #DB645A",
"=. c #D46A5D",
"-. c #DC6A5D",
";. c #C9614F",
":. c #E1685B",
">. c #C46C64",
",. c #CC6C63",
"<. c #C36B65",
"1. c #D46C63",
"2. c #DC6C62",
"3. c #DA6D67",
"4. c #CC7264",
"5. c #C47469",
"6. c #C9776B",
"7. c #D37365",
"8. c #DC7265",
"9. c #D4756B",
"0. c #DC746B",
"q. c #D47A6D",
"w. c #DC7A6E",
"e. c #C47C73",
"r. c #CB7D73",
"t. c #C97570",
"y. c #D47B72",
"u. c #DB7D73",
"i. c #DF7E78",
"p. c #E56D64",
"a. c #E37165",
"s. c #E2746B",
"d. c #E17A6D",
"f. c #E27C73",
"g. c #E57F78",
"h. c #A7827C",
"j. c #B3827B",
"k. c #BC837B",
"l. c #B98479",
"z. c #C58174",
"x. c #C98176",
"c. c #C3847B",
"v. c #CB847B",
"b. c #CA897D",
"n. c #D58276",
"m. c #DC8174",
"M. c #D4857B",
"N. c #DC837B",
"B. c #D28A7E",
"V. c #DB897D",
"C. c #D98877",
"Z. c #DE806F",
"A. c #E3837A",
"S. c #E68679",
"D. c #9E8482",
"F. c #AA8882",
"G. c #BC8982",
"H. c #BA948C",
"J. c #B6948E",
"K. c #C58B83",
"L. c #CC8C84",
"P. c #C78B85",
"I. c #D28C83",
"U. c #DB8B84",
"Y. c #D38E89",
"T. c #DC8783",
"R. c #C3938B",
"E. c #CC948D",
"W. c #C99288",
"Q. c #D3938B",
"!. c #DB948B",
"~. c #D99589",
"^. c #CC9B92",
"/. c #CB9C97",
"(. c #DD9691",
"). c #D39C94",
"_. c #DC9B94",
"`. c #DB9E99",
"'. c #D39C97",
"]. c #E28D83",
"[. c #E88E87",
"{. c #E4938B",
"}. c #EB948D",
"|. c #E99589",
" X c #E39C93",
".X c #EB9C94",
"XX c #E79895",
"oX c #F0918E",
"OX c #CDA29A",
"+X c #D4A39C",
"@X c #DCA49C",
"#X c #D9A59B",
"$X c #E3A39C",
"%X c #ECA49D",
"&X c #E6A79C",
"*X c #F4A49D",
"=X c #CEA6A1",
"-X c #DBA7A1",
";X c #D5AAA3",
":X c #DCABA4",
">X c #D9ABA7",
",X c #DCB2AC",
"<X c #D7B3AB",
"1X c #DBB8B3",
"2X c #EBA6A1",
"3X c #E3ABA4",
"4X c #E2AFAA",
"5X c #E7AAA5",
"6X c #F1A9A6",
"7X c #E3B0A6",
"8X c #E3B4AC",
"9X c #EBB3AC",
"0X c #E9B9AF",
"qX c #F1B6AC",
"wX c #E3B6B2",
"eX c #EAB6B3",
"rX c #E4BAB5",
"tX c #EABBB5",
"yX c #E4BDBA",
"uX c #E9BEB9",
"iX c #F4BCB3",
"pX c #DDC4BC",
"aX c #E4C2BC",
"sX c #EBC3BC",
"dX c #F1C6BF",
"fX c #E6C6C3",
"gX c #EAC5C2",
"hX c #EBCAC4",
"jX c #E8CCC8",
"kX c #F2C9C6",
"lX c #EDD4CD",
"zX c #F1D3CB",
"xX c #EED4D3",
"cX c #EDDAD3",
"vX c #F1DBD9",
"bX c #F2D7D3",
"nX c #EEE0DD",
"mX c #EFE4E1",
/* pixels */
"[ | Q ! Q ! y.3.| ! Q T T T [ y.^ U ! } ^ T *.qX:.Q W | *.! ..%XA.p.*.:.*.*.} ..}._ R ) T W ) ..6X) ..) Y ......XX..} ..",
"k +.] } | &.t.A y y : r . r <.I.r { a ] ] +.O.iX{ 8.j p a a ~ $Xt.} &.Q } } E O.Y.u.,.1.{ <.9.,.9Xg.9.t.g.i.g.g.5XT.u.i.",
"S P.G.I F V S V q w F F.P P c.Q.c.I. XzX X$X`.(. X$X(.7X3X X X X(. X(.6X8X%X X$X`.2X(.XXeXXX2X`.$XXX(.XXbXeXXX5X`.$X`.XX",
"| ^ 4.3.} ] { t T T ..y.U ( U > ) E -.iX[ | +.%.( %._ ].0. .^ W _ ..} ..6X*.a.3.3. .*.p.oX......) ..R ) 6Xg.*.3.3.......",
"} ..u.0.2.,.1...^ W *.T.! ^ U - T U U qX8.-._ [ Y :._ ].s.Y Y Y @ W Y  .}.p.-.w.+.) ) ..XX` ) U R ) ....6Xi.3.} } 2.} } ",
"t T <.,.,.j r y : t { e.: a . : t > o.0X8.N.1.o.d.&.a. X9.[ Q +.y &.^ s.XX,.i.M.g.3.0.3.6X*.2.*.&.&.-...eXoX,.XXt.+.s.3.",
"H.H./.J.K K N M M K K j.j.S H.R.^.#XaXaXrXhXwXfX@XeXtXsXuX,X,XxX7X8XtX8XuXwXeXjXhX3X9X,X9X`.5X>XxX@X4XeXeXgXgXbXvXvXbXbX",
"T T - ] j - <.} U ! E _ = E 9.0.U ^ U ! y o.9.7X[ | Q _ _ ^ W (.! E [ X Q 7.+.(.1.- 1 @ U T ; } kXU ) ) Y { ) ..-Xg.R ) ",
"U ; Q ] y @ t.) T Q U ! W ; 9.0.( E 3 ! ^ E 0.5Xa.../ _ ! | ^ ).2.[ ^ T T { E (.+.T U ; T t U T kXY R ..` } .. .5Xg.) ..",
"T t O.a T y <.} } T E T E ^ u.1.& > E - ~ a =._.&.=.=.o.[ $.[ 7XQ T [ a ,.s } _.>.; t y Q T t ,.kX..*...2...1.3.4XA.! } ",
"I.c.R.k.P P L H G C x.c.e.5.L.B.x.r.M.).L.b.~.^.c.B.v.OX#XQ.~.+XL.L.Y.W.,XE.).4X`.K.L.L.-XL.v.Y.3X!.Q.`.uX_.Y.Y.`.Y.v.Y.",
"..! 9.+.; U t ^ T ; T V.U 3 3 U W W ' .XW / $.&.E | %.|.A.E _ Q Q T ^ Y N./ - 2 Y 3 `  .XXR ` U ! U _ W .X:.%.| } ! ) R ",
"U Q u.3.! ! Y ; T t ! {.( _ Y Y 3 _ ` {.%./ / W _ &./ V.8.W $.W W 2 ! $.[._ _ U _ _ ' W .X_ R ) ( ) ! ! *X) | | ....) ..",
") :.9.,.! T T ! ! E { {.Y ^ _ | ^ ( | {.%.! ^ E $.%._ ].7. .| _ *.E ..8.[._ %.^ ; _ 6 %..X.. .} ..} _ / 2X..Q } T ) T ..",
"G.G.R.K M z 0 M 0 K /.=Xj.G.OXOX;X^.+X1XeX8XuXxXrX7X;XrX#X^.W.+X+X3X:X+X3X#X).rXtX4X7XrXuXiXkXuXhXdXsXrXgXgXyXyXvXeX,X;X",
"! Y T ; @ ; b +.; U Q U 2 ^ ^ N.( | Y W ) Y )  X| %.| T Q ^ ! }.-.! -.Y  ._ ) [.s._ ` W ` ` `  .}.! W W T ..^  .eX) ..) ",
"@ -   t ^ ( j 3.! -   - T 2 [ ]. .1 Y 1 2 1 ( 2X*...*._ ^ _ | oX-.:._ %.! .._ [.2.) ) ) R  .) ) oX'  ._ T *.T *.2X..T ) ",
"Y ; U T T } 9.&.* >   2 2 * | u.(  .T Y 2 U Y 6X^ *.*.! ^ -.| }.8.%.%.=.W W ! ].d.( Y R U _  .` V.Q | | ..{ ..p.5X) T *.",
"K F.F.K F.N D.N M M F.J.F.H.<XaXpX1XaXcXlXlXlXvXjXjXaXfX1XpXpXjXfXfXgXbXvXvXlXbXsXaXsXhXjXgXgXaXzXhXjXjXmXyXgXgXgX,XuXwX",
"y ] !.y.1.Q Q y &.+.2.{.8.=.o.&.=.-.a.tX[ a ~ [ ^ ~ ! qXw.&.s.&.&.| [ ].].^ t ! ^ ^ W &.N./ _ _  .|  ...6XT ..} } T R ) ",
"Q t i.3.T T 1 1 ) W ) }.! ( ! _ < W ` 7X& * & > * W W $X2.%._ W / ! | ].9.3 U E ! ( ' -.S.' %.W ` _ ` ` 6XR R ! T 1 1 T ",
"- t M.d.W W U U Y _ ` N.' ( ( ( Y ' ` &XW W * = & 2 / %X=._ _ -._ Y _ ].u._ 6 W 3 Y ( [ A._ ` ( W _ ` ` eX..T T T T 1 ) ",
"P.F j.G.c V S F D D S =XD ^.K.^.W.#XQ.aX).)./.,X#X@X3XsX#XK.L.#X:X#X#X8XtXOX#X7XtX8X0XrXhX8XaXsXjXwX#X7XxXuXyXwXfXgXuXeX",
"&.} y T t t b 8.t $.p =.[ E ~ V.=.&.^ ;.^ W _ %X_ ! E - U W ! {.0.$./ / %.( _ d.{.( W , 3 2 ' 5 2X( _ Y T T } } T...} ; ",
"!  .; ; T _ j s.W Y T W _ 1 Q u.^ > 2 E * 2 ; %X; 2 W & * = U [.a.^ ' _ ^ W 5 0.U.3 * 2 3 ( R U .X) ..R ) ..` ! T.Y Y T ",
"! } ^ _ U U j s.| ^ ^ ! ! Y | A.( E 3 2 = W W 2X/ W _ 2 2 2 = [.:.*.%./ | 5 E S.{.2 U U 1 3 ( ( .X| } ! T | ..} T.T R T ",
"E.Q.j.K M M F.J z V S K.k.K.).:XL.P.W.).,X1XyXcXrX8XrX:X,X,XrXjX).+X;XOX,XrX8XkXzXrXeX1XrX1XuXuXxXyXrXyX<X=XyXyXxXgXgXyX",
",.=.n.u.T ] Q &.=.o.=. X| W ^ E W ^ _ qX-.! [ E T Q > 3Xf.^ | E | = | m.A.2 U > > W 3 o..X .W _ ^ -. .-.2X_ [ ! ` } ) ` ",
"( 3 m.9.| ! ! ( U ( ..{._ ! 5 6 = 3 / qX2 ' 6 ;.* * * 3X&.Y * ! 3 = 3 q.q.1 U X Y 3 Y | [.3 '  .%.` Y  .%XY Y ) ! } 3 ) ",
"` 4 A.0.$.[ U ) ( 3 ` ]./ = 2 W & 2 / qX2 W Q X.2 5 W &X%.W / ! 2 5 2 A.m.U } E W 1 Y a.T.) _ ( ` R ' ` $X` *.) 2.3.R R ",
"z.b.;XyXc.P S x x G H wXL.$X3X@X@X3X@XvX3X3X8X8X3X8X0XlX0X7XtX7X9XsX0XhXsX8X3X3X:XwXeXyXhXeXsXuXtXdXuX>XxXuXuXgXyXfXkXkX",
"p ] s O.x.] b b.p : t p r t [ V.p a o.X.p f @._.| = 6 * 5 W 5 9.-.E *._ o.^ S.8.n.U 1 U 1 , W 3  XY R ) R ) T 3.6XT @ U ",
"( 5 W ~ 7.o.o.~.> T + ; > + t i.; ; * U T p t .X2 W ; ( = = % w./ / 6 > ~ ;.q.Z.V.E < 2 2 _ 1 1 {.3 3 ( Y ! } } 6XR U @ ",
"6 , _ > X.X.7._.; ; 2 ; . ; + f.@ > U - r d + 2X( 3 6 / % ' / Z./ _ _ 5 / -.8.S.n.6 * ; ; ; U 1 $XR 3 Y R _ ,.} 9XR 1 U ",
"m n Z Z G c.H OXg 8 9 g v f c c.v v C Z P F H sX~.B.z.H H z.v #Xb.P b.z.~.B.(.#X^.Z B F S G P S gXL.(. X5X!.(.`.hX'.(.`.",
"n b v.U.q.@.b @.X.s g Y.+.+.X.,.b q.4.wXn.4.] ,.#.#.;.5.7.~ ~ [ o.;.;.X.S.o.#.~ ^ / $.;.M.[ 3.} ^ ~ [ &.3Xu.] } } | { } ",
"& - q.-./ E 2 & = W & B.1 2 W - > & * @X2 3 3 3 2 3 2 <.$.2 3 W ' %.W t S., ^ 6 3 5 < 5 y.Y 3 2 U @ < , XX&.} R t U R 1 ",
"& & >.o.2 3 * 5 U & # ~.Y W Y * W 3 ; @XR , Y 3 2 , ( x...' 5 * < 6 = 2 S.3 ' / / ( ' = w.< U W @ U 3 ; '.T U T T U @ 1 ",
"f u P Z u l f c m s f OXn Z f v Z 5.5.rX+.#.b Z h u i J z 8 q w z x v c l.c x c c q w c R.V S L J V F G 1X4X-X+X/.E.E.E.",
"@.#.~ [ a r X.~.E ~ p p ~ ] ~ M.~ ~ o.o.] t [ P E > p : t t _ y.m.5 / W 6 4 ;.5 N./ / E 6 2 p 2  X2 U _ 1 _ T ^ ]...t T ",
"W 1 * ; - 2 = r.W E > > * + U V.6 < W W Y * > c.T 2 p E ; ; Y 0.Z.2 ' * 2 2 W 4 m.6 U E 2 , < , {.3 ` ' R ' ) Y {.) T T ",
"Y * 2 U & * & r.> 2 6 W > > ; ~.5 3 3 / 1 1 ; &X*.1 U * 2 ; ; } m.' 2 ' W ' ' ' S.3 3 5 W o 3 ; .X_ Y ' ) _ Y ) XXT 2 1 ",
"g c 8 e w w F F.z I L K.K.c.c.;Xz.z.L b.P.b.K.1XG.E.K.j.k.S J R.+Xj.^.E.Q.^.k.W.,Xl.c.W.R.l.K.c.jX,X7XeXtXsXdXuXvXgXhXuX",
"m l r.b b @.>.>.@.,._.S.Z.q.Z.4.@.4.C.&X=.#.4.#.X.O.~ @Xw.X.#.#.+.X.a V.$./ ^ / W E E O.N.^ > > T t > y 4X| Q ! Q Q [ &.",
"- & +.t ; - * + @ ; C.( * 2 & * % = ~ {.3 < < 2 2 , =  X6 < / 5 3 * % r.' < ; * 2 X   [ 9.1 * * * , @ y $XT 1 U + T * @ ",
"X * +.E @ U + - = * I.( * 2 & * * W s $X4 * 5 * W 2 5 %X5 6 = 2 W < Y N._ < ( , % 2 @ [ n.1 1 O & 1 ; T U., U 1 U U @ 1 ",
"m m B g u 7 7 g A f >XV.V.n.6.q.r.5.I.aXB.~.~.B.I.x.v.8Xv H G B.B.~.{.sX&X#X,X#XK.).#X,X;XB E.^.).).@X=XfX3X`.@X-X`.$X_.",
"s X.@.b j m h /.q.q.C.C.r.6.~.&XZ.q.q.n.4.q.q.#X~ o.s X.#.~ j 7.q.- > E E ^ E ^ y.3 2 > > ^ Q ^ U.- > y T E [ ! I.Q Q T ",
"* . & 6 2 & > K.= < & * = * 6 C.6 , % ; 2 = % B.2 5 3 2 6 5 , ^ 7.2 ; * W = 2 5 u.4 4 , * ; 3 3 U.2 . * Q @ U Q Y.T @ T ",
"  & * = * * U L.< 6 6 < E % = m., % % * & & < W.5 % , 2 = 4 % ^ q.= 2 2 3 < 2 4 w., 3 Y 4 @ U Y U.2 1 2 1 - Y Y (.T T ; ",
"c l i $ $ $ i H.G I.B.I.v.6.z.wXC H z.z.B.b.5.8X@X~.!.~.x.I.~.@X#XK.E.Q.E.E.Q.b.,Xj.J L I c.G G >X(.Q.+X`.'.'.@XfX>XwX>X",
"> ~ f j p p t r ~ ] } n.p s s d s ~ X.$X;.~ ;.E ^ ~ Q V.o.E E / 6 6 W n.;.$./ E ;.W ^ #.y.; T > Q ^ ^ W [.&.Q { { } } } ",
"R Y @.[ @ & . . O & - A.@ ; & =   & O  X< % < * 5 < 5 n.5 5 W = , < W 4.3 5 3 < 3 5 < ^ 7.* o 2 Y , 3 4 g.T U T t T U @ ",
"( X b O.* * + + - : ; A.& ; * - O . O  X< , < 6 < 5 < N.5 < ; 3 2 < * 4.( 5 W < , 3 ' ~ 9.Y 2 < 1 2 3 3 g.T Y T T U U U ",
"u Z P c 7 e w e $ i F P.x u Z z.e.P b.:Xr.e.x.@XU.r.5.E.G C v J P c.L c.Z x.x.k.L F C e.P H P P Y.r.M.!.4X`.`.3XeX$X3X X",
"E W _ > T E 5.h 3 2 * 2 , W W q.U 3 / 2 & > ~ {.5 , 3 = < < , 7.3 < * 3 = ; , <.@.2 3 * ; < , a u.- * @ @ 2 ; { !.1 - 1 ",
"< % * % % ~ @.h % % * 4 ( 4 , 9.' ( 5 5 ~ 2 %  X3 5 , 3 6 % 4 Z.3 3 3 , Y , < x.7.* < , 3 3 , } u.1 1 , * * p ! !.t * * ",
"% 3 2 X E ~ a m 6 % & 5 < 5 ( q.2 5 5 = W #._ .X5 5 < 6 5 , 4 q.3 , , , < R $.L.o.o o * o 3 4 ] 9.4 , 1 3 t T q.&X2 E 2 ",
"e q z 0 z z e w e 8 e z z D l.L F z c h.L OXW.OXx e.e.l.c.x x P 9 v v W.P P P K.e.Z x.H./.P.k.P P.G.Q.@X,X$X XeX-X3X_.2X",
". X l s ~ > * ; = 2 - n 2 ; * * * * = W.> @.s s = 6 = 7.2 = %   * 3 *  X, r d * *   * C.4.* + +   + O ] N.T t <.<.] * - "
};
